<?xml version="1.0" standalone="no"?>
<!DOCTYPE svg PUBLIC "-//W3C//DTD SVG 1.1//EN" "http://www.w3.org/Graphics/SVG/1.1/DTD/svg11.dtd" >
<svg xmlns="http://www.w3.org/2000/svg">
<metadata></metadata>
<defs>
<font id="dionregular" horiz-adv-x="718" >
<font-face units-per-em="2048" ascent="1536" descent="-512" />
<missing-glyph horiz-adv-x="694" />
<glyph unicode="AE" horiz-adv-x="1593" d="M47 137q12 166 35 297q4 21 59 268q-30 12 -49 40t-20 63q0 45 32.5 77.5t77.5 32.5h2q12 59 21 93q57 231 141 344q86 124 215 143q28 4 41 4q70 0 123 -35h63q40 0 114.5 -1t109.5 -1q53 0 151 4q2 2 6 2q9 0 17 2q28 5 49 7q68 10 133 10q42 0 62 -4q40 -8 73 -27 q38 -26 51 -67q15 -43 -4.5 -84t-62.5 -56q-58 -19 -105 19h-14q-19 0 -46.5 -2.5t-59.5 -7t-45 -5.5q-7 -1 -18.5 -3t-18.5 -3q-34 -2 -164 1t-137 3h-5q1 -4 13 -47t18 -67q20 -108 33 -240q74 0 86 6q150 23 215 23q62 0 107 -11q43 -12 65 -52.5t10 -84.5 q-12 -43 -51.5 -65.5t-83.5 -10.5q-8 2 -30.5 -1t-32.5 -3q-22 0 -43 -2t-50.5 -6t-46.5 -6q-92 -8 -135 -8q0 -20 1 -59t1 -58q0 -53 -6 -299q172 14 295 14q85 0 168 -6q46 -3 75.5 -36.5t26.5 -79.5q-2 -44 -36 -75t-80 -28q-102 4 -154 4q-165 0 -332 -18 q-30 -33 -78 -33q-27 0 -55 14q-36 -3 -78 -12h-18q-40 0 -71 25.5t-38 66.5q-7 44 19.5 80.5t70.5 44.5q9 2 28.5 5t29.5 5q2 64 10 168q2 49 2 160q0 80 -2 121q-55 2 -128.5 5.5t-102.5 4.5q-22 1 -64.5 2t-66.5 2q-5 -20 -5 -24q-51 -219 -61 -277q-22 -130 -33 -272 q-3 -46 -38 -76t-81 -27q-44 4 -73.5 39.5t-26.5 79.5zM408 913q17 -1 48.5 -2t47.5 -2q123 -4 213 -8q-2 8 -2 23q-19 183 -60 284q-27 63 -45 68l-8 4q-2 -2 -6 -2q-34 -3 -72 -55q-40 -51 -78 -164q-13 -42 -38 -146z" />
<glyph unicode="ae" horiz-adv-x="1292" d="M45.5 817q-3.5 49 24.5 86q39 52 98 90t115 41q96 6 178 -67q92 -82 155 -246q97 120 230 182q71 33 143 33q53 0 105 -18q59 -22 98 -70q58 -70 55 -158q0 -122 -92 -211q-72 -64 -164 -101t-190 -38q-60 0 -109 14v-8v-20q3 -34 31 -62q29 -29 68 -35q12 -2 38 -2 q92 -2 252 72q41 19 85 2.5t63 -59.5q20 -41 4 -85t-59 -63q-62 -28 -105 -44.5t-110.5 -32t-129.5 -15.5q-35 0 -73 6q-104 15 -183 88q-16 -20 -26 -30q-56 -53 -160.5 -62.5t-171.5 29.5q-80 46 -121 128.5t-41 186.5q0 76 27 146q23 56 72.5 94.5t105.5 44.5 q41 5 73.5 -3t72.5 -28t59 -27q0 19 -5.5 39t-10 29.5t-18 34t-17.5 31.5q-22 36 -56 57q-29 20 -61 20q-40 -3 -64 -34q-28 -38 -71.5 -42.5t-77.5 27.5q-33 31 -36.5 80zM266 348q0 -44 15 -78q11 -33 28 -41q4 -4 15 -4q31 0 82 49q21 21 28 50q25 74 19 77q-22 6 -52 23 q-32 20 -62 21.5t-51.5 -23t-21.5 -74.5zM764 551q4 0 17.5 1t17.5 1q47 -1 107 28t95 64q9 7 16 22t7 23t-4 12q0 2 -6 5q-8 4 -25 4q-23 0 -49 -11q-41 -20 -91 -62.5t-85 -86.5z" />
<glyph unicode="OE" horiz-adv-x="1746" d="M63 639v27q0 129 23 264q34 196 160 325q109 115 278 166q38 9 70 -2q24 6 29 6h24q87 0 164 -41q23 13 49 13q33 2 96 2q38 0 112 -1t110 -1q53 0 151 4h4q2 1 8 2t9 2q11 1 51 6q97 10 133 10q39 0 59 -4q44 -9 72 -26q40 -24 53 -68q15 -43 -4.5 -83.5t-62.5 -55.5 q-58 -19 -105 18h-12q-61 0 -152 -14q-28 -4 -36 -4q-82 -6 -310 -6q10 -29 20.5 -65.5t15.5 -58.5l5 -22q34 -97 45 -198q178 32 269 32q63 0 118 -14q44 -12 66 -51.5t10 -83.5q-12 -43 -51 -65.5t-82 -10.5q-21 6 -61 6q-79 0 -162 -22q-8 -2 -86 -27q-3 -32 -13 -72 q-6 -148 -49 -319q136 8 324 8q83 0 166 -6q46 -3 75.5 -37t26.5 -78q-3 -46 -36.5 -75.5t-77.5 -26.5q-102 4 -154 4q-260 0 -541 -49h-18q-41 0 -68 24q-71 -22 -137 -22q-106 0 -207 46t-184 130q-115 121 -158 270q-18 68 -23.5 116.5t-5.5 127.5zM281 641 q3 -162 22 -231q6 -22 16.5 -39t19.5 -26.5t31 -30.5t38 -38q105 -108 233 -108q69 0 98 10l41 19q11 8 26 14t23 15t21 34l16 35q48 119 45 285l-4 100q-2 28 -4.5 69.5t-4 60.5t-4.5 45.5t-8 48.5t-12 46q-10 26 -21.5 68.5t-23.5 72.5t-30 50l-25 28q-44 37 -127 37h-8 q-29 0 -45 8l-8 -4q-112 -32 -183 -106q-13 -14 -33.5 -32t-30.5 -28t-21 -32t-17 -54q-20 -129 -20 -292v-25z" />
<glyph unicode="oe" horiz-adv-x="1292" d="M31 334q0 73 20 223q34 216 119 338q48 67 104 98q42 21 78 21q13 0 37 -4q2 12 12 28q26 40 73.5 50.5t88.5 -15.5q84 -58 119 -176q5 -22 14 -72q61 50 135 86q62 32 150 35q66 -4 109 -20q60 -24 100 -72q57 -69 57 -160q-3 -129 -96 -219q-73 -66 -168.5 -104 t-196.5 -39q-53 0 -112 16v-10v-23q3 -31 33 -61q31 -31 69 -37q12 -2 41 -2q96 0 258 74q43 20 88.5 2.5t65.5 -60.5t2.5 -88t-60.5 -65q-97 -44 -180.5 -69t-173.5 -25q-37 0 -78 6q-113 18 -196 98q-1 2 -11 12q-12 -18 -34 -39q-88 -77 -195 -77h-2q-35 0 -80 10 q-55 13 -106 61q-35 37 -56 92q-28 71 -28 187zM262 334q0 -55 8 -86q2 -10 13 -31q6 -2 18 -2q18 0 41 18q31 27 57 84q25 52 42 119.5t20 114.5q10 107 10 162q0 65 -8 104q-35 -41 -92 -41q-2 -2 -6.5 -7t-6.5 -7q-54 -73 -77 -240q-19 -107 -19 -188zM764 565 q3 0 10.5 -1t11.5 -1q50 0 111.5 24.5t95.5 57.5q9 9 16 24.5t7 24.5q0 5 -4 13q-2 2 -6 4q-8 4 -25 4q-21 0 -51 -13q-97 -48 -166 -137z" />
<glyph unicode="&#xfb01;" horiz-adv-x="952" d="M27 668q2 47 35.5 79t80.5 31q2 0 15 -0.5t30 -0.5t33 1q10 152 35 283q16 77 51 145q50 87 125 129q61 33 133 33h8q56 0 101 -16q154 -55 186 -123q49 -103 72 -158v-2q14 -25 14 -57q0 -46 -33 -79.5t-79 -33.5q-34 0 -62.5 19t-42.5 49q-17 33 -14 65q0 6 2 12v5 q6 33 -4 55q-4 6 -6 12.5t-2 7.5q-1 0 -3 4t-7 10t-12.5 12.5t-22 10.5t-33.5 4t-33.5 -2.5t-23.5 -6.5t-14.5 -7.5t-9.5 -7.5t-5 -4q-13 -9 -23 -21q-28 -34 -41 -100q-18 -93 -28 -228q65 7 333 7h17q38 0 66.5 -22t39.5 -58q2 -2 2 -4v-6q2 -8 2 -25q0 -23 2 -39 q4 -32 4 -51q3 -50 3 -98v-56v-49q0 -256 -19 -403q-6 -43 -38 -71t-75 -28h-14q-45 6 -74 43.5t-24 83.5q18 136 18 375v41v2v62q0 52 -2 75v2q-199 -4 -250 -8q-2 -2 -2 -6q-1 -52 -3 -155.5t-3 -155.5q-2 -76 -6 -142q-1 -13 -5.5 -29t-4.5 -48v-21q0 -47 -32.5 -80 t-78.5 -35h-2q-46 0 -79.5 33.5t-33.5 79.5v23q0 35 5 56t6 34q4 70 4 133q4 194 8 289v16q-29 -2 -35 -2h-2q-27 0 -41 2q-46 2 -77.5 35.5t-30.5 79.5z" />
<glyph unicode="&#xfb02;" horiz-adv-x="999" d="M29 668q1 46 35.5 78t80.5 30q2 0 16 -0.5t31 -0.5t33 1q6 148 35 283q18 85 51 145q50 87 123 129q59 35 133 35q2 0 6 -1t5 -1q55 0 100 -16q1 0 18 -6.5t23.5 -9t23.5 -10t28 -13.5t25.5 -15t26 -19.5t21.5 -21.5q30 -36 51.5 -80t30 -81t13.5 -73t3.5 -54.5 t-0.5 -27.5v-1q1 -23 3.5 -218t2.5 -231v-55v-49q0 -266 -18 -403q-6 -43 -38 -71t-75 -28h-14q-46 6 -74 43.5t-22 83.5q16 138 16 375v41v2v61q0 13 -3 213t-3 211v2l1 45q0 45 -5 101.5t-19 79.5q-15 22 -63 22q-19 0 -34 -2.5t-24 -6.5t-14.5 -7.5t-9 -7.5t-4.5 -4 q-11 -3 -23 -21q-28 -34 -41 -100q-21 -96 -28 -226q67 5 86 5h16q47 -1 80 -35t33 -80q-1 -47 -35 -80t-80 -33h-14q-66 0 -95 -4l-2 -2v-6q-4 -101 -8 -311q-2 -76 -6 -142q-1 -12 -4.5 -27.5t-3.5 -49.5v-21q0 -46 -33 -80t-80 -35q-47 0 -79.5 33.5t-34.5 79.5v23 q0 35 4.5 56t5.5 34q4 71 6 135q1 47 6 287q2 6 2 18q-29 -2 -37 -2h-41q-47 2 -79 36t-31 81z" />
<glyph unicode="&#xfb03;" horiz-adv-x="1517" d="M29 655q2 46 35.5 78.5t80.5 32.5q12 -2 35 -2q11 0 31 2q7 157 35 299q20 88 51 145q50 87 125 129q80 41 145 41h8q65 -5 101 -18q29 -10 56 -33.5t38 -46.5q7 -17 8.5 -66.5t3.5 -60.5q0 -3 -0.5 -7t-3 -16t-7.5 -21.5t-15.5 -19t-24.5 -12.5l-4 -2q-43 -13 -76 7 t-47 65q-4 10 -32 6.5t-44 -14.5q-3 -2 -18 -21q-31 -39 -43 -102q-19 -100 -29 -227v-21q54 2 171 5t171 5q10 149 35 285q18 82 53 145q51 89 123 129q70 36 135 33h9q55 0 100 -16q154 -55 188 -125q2 -4 31.5 -68.5t38.5 -87.5l2 -2q12 -27 12 -57q0 -48 -32.5 -81.5 t-79.5 -33.5q-35 0 -63 19.5t-42 50.5q-17 30 -14 63q0 9 2 13v4q5 35 -4 57q-3 4 -4.5 8.5t-2 6.5t-1.5 3q-1 0 -3 5t-6.5 11t-12.5 12.5t-22.5 10.5t-33.5 4t-33.5 -2.5t-23.5 -6.5t-14.5 -7.5t-9.5 -7.5t-5 -4q-13 -9 -23 -21q-29 -42 -41 -102q-21 -97 -28 -227 q55 6 333 6h17q38 0 67.5 -23t38.5 -57q2 -2 2 -4l2 -6q0 -4 1.5 -12.5t1.5 -12.5v-41q4 -32 4 -49q4 -66 4 -100q0 -11 -1 -30.5t-1 -25.5v-49q0 -258 -19 -405q-5 -41 -37 -70t-75 -29q-9 0 -15 2q-46 6 -75 43.5t-23 83.5q18 136 18 375v41v4v60q0 52 -2 77 q-229 -5 -252 -8v-6q-4 -101 -8 -311q-2 -76 -6 -142q-1 -12 -4.5 -28.5t-3.5 -48.5v-23q0 -46 -33.5 -79.5t-79.5 -33.5h-2q-46 0 -79 33t-33 80v23q0 35 4.5 55.5t5.5 32.5q4 74 4 135q4 194 8 291v16l-344 -10q-1 -50 -3 -150.5t-3 -150.5q-2 -76 -6 -142 q-1 -13 -5.5 -29t-4.5 -48v-23q2 -46 -32 -79.5t-81 -33.5q-46 0 -79.5 33t-33.5 80v23q0 35 3.5 56t4.5 32q7 122 7 135q4 194 8 291h-23h-41q-47 2 -79 35.5t-31 80.5z" />
<glyph unicode="&#xfb04;" horiz-adv-x="1562" d="M45 657q2 47 36 79.5t81 31.5h33h30q11 186 37 297q13 76 51 145q51 89 123 129q70 41 146 41h8q62 -4 100 -18q29 -10 56 -33t36 -45q8 -18 10.5 -69t4.5 -60q0 -7 -2 -17.5t-15 -31t-35 -25.5l-4 -2q-43 -15 -76 5t-47 65q-4 10 -31.5 6.5t-43.5 -14.5q-9 -6 -19 -21 q-27 -29 -41 -100q-21 -97 -28 -227q-2 -4 -2 -19q113 0 227 6q10 2 31 2h51h20h9q11 176 34 283q18 82 52 145q50 87 122 129q59 35 136 35q1 0 4 -1t4 -1q55 0 100 -16q1 0 21.5 -7.5t28.5 -11t28.5 -13t32.5 -17t28 -20t27 -25.5q30 -36 51.5 -80.5t30 -81t13.5 -72.5 t3.5 -55t-0.5 -28v-1q1 -17 4.5 -224.5t4.5 -223.5q-3 -34 -3 -56v-49q0 -266 -18 -403q-4 -42 -36.5 -70.5t-74.5 -28.5h-16q-46 6 -74 43.5t-22 83.5q16 138 16 375v41v2v62q0 13 -3 213t-3 211v2l1 45q1 45 -3.5 101t-17.5 79q-18 22 -66 22q-19 0 -33.5 -2.5t-23.5 -6.5 t-14.5 -7.5t-9.5 -7.5t-5 -4q-12 -4 -23 -21q-26 -33 -40 -100q-23 -102 -29 -225q54 4 86 4h18q46 -1 78.5 -35t32.5 -80q-1 -47 -35 -80t-80 -33h-14q-65 0 -94 -4q0 -2 -2 -2v-6q-6 -151 -9 -311q0 -37 -6 -142q0 -14 -4 -29.5t-4 -47.5v-21q0 -46 -31 -78.5t-77 -33.5 v-2l-3 2l-2 -2q-47 0 -79.5 33t-32.5 79v23q0 35 3.5 56.5t4.5 33.5q4 71 6 135q1 47 6 287q2 6 2 18h-2q-8 -2 -35 -2h-22l-279 -8q-4 -99 -8 -301q-2 -76 -6 -142q-1 -12 -4.5 -27.5t-3.5 -49.5v-21q0 -46 -33.5 -79t-79.5 -35h-2q-45 0 -77.5 33t-34.5 79v23q0 35 4.5 56 t5.5 34q4 71 6 135q1 47 6 287h-20h-2h-41q-46 2 -78 36t-31 80z" />
<glyph horiz-adv-x="2048" />
<glyph horiz-adv-x="2048" />
<glyph unicode="&#xd;" horiz-adv-x="2048" />
<glyph unicode=" "  horiz-adv-x="694" />
<glyph unicode="&#x09;" horiz-adv-x="694" />
<glyph unicode="&#xa0;" horiz-adv-x="694" />
<glyph unicode="!" horiz-adv-x="432" d="M47 100q0 24 8 52q15 44 57.5 65.5t88.5 7.5q57 -18 73 -75q26 -41 21 -84q-4 -43 -37 -72t-76 -29q-10 0 -14 2q-50 4 -84 41q-37 37 -37 92zM66 502q14 119 43.5 325.5t50 375t28.5 315.5q3 47 38.5 79t82.5 29t79.5 -38.5t29.5 -82.5q-11 -207 -63 -582.5t-60 -447.5 q-6 -44 -39 -73t-76 -29q-8 0 -12 2q-47 4 -77 41.5t-25 85.5z" />
<glyph unicode="&#x22;" horiz-adv-x="745" d="M90 1095l2 48q1 3 2 8t2 8q9 46 49 72t86 16q87 -17 91 -131v-6q-1 -1 -1.5 -28.5t0.5 -68t3 -69.5q11 -46 -13.5 -86.5t-70.5 -52.5q-21 -5 -47 -2q-33 6 -58.5 29.5t-34.5 56.5q-7 31 -9 94.5t-1 111.5zM434 1097l2 48q1 3 2 8t2 8q9 46 49 72t86 16q87 -17 91 -131v-6 q-1 -1 -1.5 -28.5t0.5 -68t3 -69.5q11 -46 -13.5 -86.5t-70.5 -52.5q-21 -5 -47 -2q-33 6 -58.5 29.5t-34.5 56.5q-7 31 -9 94.5t-1 111.5z" />
<glyph unicode="#" horiz-adv-x="1071" d="M41 764q0 47 32.5 81t76.5 34q81 0 120 -2q1 11 5.5 55.5t5.5 64.5q1 47 34.5 80t77.5 31q45 -3 75.5 -38.5t27.5 -82.5q-3 -59 -9 -123q9 -1 29.5 -2t30.5 -2q0 5 3 46t3 61q-4 12 -4 18q-2 6 -2 25q0 14 2 26q0 1 3 10.5t5 15.5t9 16.5t16 19.5q30 30 73 30 q12 -1 22.5 -3t18.5 -5.5t13 -6t11 -6.5t7 -5q15 -19 16 -21l23 -28l2 -37v-47q0 -63 -6 -125q102 -8 170 -10q44 -2 74.5 -37t27.5 -82q-2 -46 -32.5 -78.5t-73.5 -32.5h-4q-77 2 -191 10q-1 -7 -2 -21.5t-2 -21.5q-3 -30 -6 -57q24 -2 74 -5t75 -5q44 -3 74 -39.5 t27 -83.5q-3 -44 -34.5 -75.5t-74.5 -31.5h-6q-25 2 -76 5.5t-77 5.5q-6 -91 -9 -183q-2 -47 -33 -79.5t-75 -32.5h-2q-44 1 -75.5 36.5t-31.5 82.5q2 59 10 186h-59q0 -13 -1 -37.5t-1 -36.5q0 -33 2 -49q2 -47 -29 -83.5t-75 -37.5h-4q-43 0 -75.5 32.5t-33.5 78.5v59v78 h-35h-14q-44 0 -76.5 34t-32.5 81t32.5 81.5t76.5 34.5h14q8 0 26 -1t27 -1q2 23 7 62.5t6 48.5v8q-31 2 -94 2q-44 0 -76.5 34t-32.5 81zM442 524q18 -2 78 -2q6 73 6 74q0 9 6 45q-10 1 -36 2t-35 2q-6 -24 -6 -33q-1 -7 -6.5 -39t-6.5 -49z" />
<glyph unicode="$" horiz-adv-x="829" d="M31 864q0 69 28 148q38 105 138 159q51 28 104 37q0 14 1 40t1 40v4q0 46 31.5 79.5t75.5 33.5q45 0 76.5 -33.5t31.5 -81.5v-4v-94q5 -2 15.5 -6t15.5 -6q92 -40 141 -107q45 -58 45 -133q0 -48 -31 -82.5t-75 -34.5t-75.5 32t-33.5 77q-6 6 -12 10q-3 -86 -12 -174 q-1 -13 -2 -36t-2 -36q26 -15 43 -32q3 -3 46.5 -38.5t73.5 -68.5q44 -45 71 -113t26 -149q0 -31 -2 -49q-7 -77 -39 -129q-28 -55 -82 -90q-63 -39 -158 -47v-39v-9q0 -47 -31 -80.5t-75 -33.5q-46 0 -77.5 33.5t-31.5 80.5v9v79q-30 15 -74 46q-119 92 -139 219 q-6 46 20 85t70 46t80.5 -21.5t44.5 -75.5v-2q4 156 8 236q-110 50 -170 121q-68 82 -65 190zM246 864q2 -19 8 -30q6 -13 29 -29q8 105 10 160q-22 -11 -33 -39q-14 -41 -14 -62zM473 211q26 4 31 6q10 5 22 16q8 24 9 35v27q-1 41 -8.5 60.5t-26.5 41.5q-10 13 -23 23 q-4 -140 -4 -209z" />
<glyph unicode="%" horiz-adv-x="1118" d="M66 815q0 48 22 88q22 45 68 72q10 6 24 10q13 13 31 19q29 10 68 10q44 1 83.5 -19t65.5 -53q45 -62 45 -143q0 -112 -82 -172q-49 -37 -108 -37h-2q-86 0 -154 72q-61 68 -61 153zM206 -36q-12 35 3 67q141 295 249.5 503.5t270.5 495.5q19 33 54 43t67 -8 q33 -19 43 -54t-8 -67q-162 -287 -268.5 -492t-245.5 -497q-10 -24 -32 -37.5t-48 -13.5q-23 0 -39 8q-34 17 -46 52zM213 815q0 -28 25 -53q24 -27 43 -23q11 0 24 9q21 16 21 51q0 27 -17 53q-14 14 -30 14q-5 0 -25 -4q-1 0 -3 -1t-3 -1q-8 -8 -12 -10q-11 -6 -19 -19 q-4 -8 -4 -16zM633 287q0 47 20 88q24 44 68 71q20 10 24 11q15 12 33 18q29 10 68 10q44 1 83.5 -19t63.5 -52q47 -61 47 -144q0 -112 -82 -172q-52 -37 -110 -37q-86 0 -154 72q-61 68 -61 154zM780 287q0 -28 23 -54q26 -26 45 -22q12 0 22 8q21 13 21 51q0 33 -14 54 q-14 14 -31 14q-15 0 -25 -4q-1 0 -3 -1t-3 -1q-8 -8 -14 -10q-13 -8 -17 -19q-4 -8 -4 -16z" />
<glyph unicode="&#x26;" horiz-adv-x="1150" d="M57 254q0 84 54 190q44 79 110 154q49 55 141 143q-3 9 -10 28t-10 28q-55 163 -55 276q0 65 16 117q19 64 68 113q70 65 186 65q83 0 174 -33q92 -34 152 -88q52 -48 69 -106q9 -30 9 -64q0 -70 -39 -133q-30 -52 -80 -98q-56 -56 -180 -144q-30 -20 -35 -24 q57 -128 149 -270q61 89 66 178q3 44 36.5 73.5t79.5 26.5q44 -3 74 -37t27 -78q-11 -174 -150 -346q-1 0 -2 -1t-2 -1q77 -102 94 -123q12 -15 29 -41q38 -17 54.5 -55t2.5 -78q-12 -33 -40 -53t-62 -20q-20 0 -35 6q-49 16 -88 65q-9 11 -19.5 26t-13.5 19q-11 13 -92 121 q-2 -1 -5 -3t-5 -3q-122 -66 -215 -90q-44 -10 -109 -10q-153 0 -245 65q-45 30 -68 80q-31 64 -31 125zM274 254q0 -13 7 -27q0 -2 2 -2q6 -6 24 -12q44 -14 94 -14q22 0 58 6q71 18 149 61q-94 144 -153 264q-3 -3 -9.5 -9t-9.5 -9q-97 -101 -135 -170q-27 -56 -27 -88z M502 1073q0 -78 41 -190q8 6 24.5 18.5t24.5 18.5q93 66 133 118q20 29 20 39v2q-4 4 -10 8q-11 14 -45 31q-68 33 -133 33q-27 0 -35 -4q-7 -11 -12 -23q-8 -24 -8 -51z" />
<glyph unicode="'" horiz-adv-x="354" d="M58 1103l1 48q1 3 2 8t2 8q9 46 49.5 72t86.5 16q86 -16 90 -131v-6q-1 -1 -1.5 -28.5t0.5 -68t3 -69.5q11 -46 -13.5 -86.5t-70.5 -52.5q-21 -5 -47 -2q-33 6 -58 29.5t-34 56.5q-7 31 -9.5 94.5t-0.5 111.5z" />
<glyph unicode="(" horiz-adv-x="548" d="M61 481v4q0 57 5.5 110t11.5 83t26 124q4 22 7 34q26 121 95 263t146 236q30 36 77 40.5t83 -25.5q37 -31 41 -78t-25 -84q-50 -58 -111 -178.5t-81 -221.5q-4 -19 -12 -55.5t-10.5 -49.5t-8 -39.5t-7 -40t-4 -35t-3 -41.5t-0.5 -44v-2q0 -69 9.5 -148.5t23.5 -119.5 q23 -56 80 -167.5t92 -160.5q27 -40 18.5 -86t-47.5 -73q-30 -21 -66 -21q-60 0 -94 49q-38 56 -103 181t-93 192q-23 58 -36.5 161t-13.5 193z" />
<glyph unicode=")" horiz-adv-x="608" d="M35 1300q3 47 39.5 78t83.5 27q120 -8 202 -117q58 -79 91 -192q39 -133 57 -342q12 -135 12 -277q0 -105 -41 -405q-3 -17 -18.5 -65.5t-22.5 -76.5q-29 -115 -80 -174q-34 -37 -86 -37q-44 0 -75 31q-35 32 -38 79.5t29 82.5q1 0 6 9t11 26.5t10 36.5q4 16 19 57.5 t18 60.5q2 13 9 65.5t11 81.5t9 74.5t7.5 83.5t2.5 70q0 118 -10 258q-9 114 -31 213q-27 141 -74 201q-19 24 -35 29q-47 3 -78 39t-28 83z" />
<glyph unicode="*" horiz-adv-x="733" d="M43 979q0 31 21.5 52.5t52.5 21.5q9 0 39.5 -7.5t40.5 -7.5q-6 6 -33.5 34.5t-36.5 39.5h2q-19 25 -14 54t30 48t54.5 14t48.5 -30q3 -5 12.5 -22t18.5 -31.5t14 -20.5q0 4 -5 27t-5 27q1 31 23.5 51t53.5 18q31 0 51.5 -22.5t18.5 -53.5q0 -9 -5.5 -32t-6.5 -27 q4 4 20.5 19.5t31 28t26.5 20.5q25 18 55 12.5t47 -31.5q19 -25 14 -54t-30 -48q-2 -1 -26.5 -9.5t-27.5 -11.5q2 0 37 1.5t43 0.5q31 -5 49.5 -29t14.5 -55q-3 -28 -23.5 -45.5t-48.5 -17.5h-10q-9 1 -49.5 10t-57.5 10q8 -10 41.5 -43t44.5 -49q17 -26 11.5 -55.5 t-31.5 -46.5q-21 -14 -41 -14q-40 0 -62 32q-34 59 -38 64q0 -5 4 -25.5t4 -25.5v-17q0 -31 -21.5 -52.5t-52.5 -23.5q-31 0 -52.5 21.5t-21.5 52.5v19q0 5 5.5 26.5t5.5 26.5q-7 -7 -26.5 -30.5t-25.5 -29.5q-23 -20 -51 -20q-31 0 -53 22t-21 52.5t23 52.5q19 19 59 55 h-67q-31 0 -52.5 21.5t-21.5 52.5z" />
<glyph unicode="+" horiz-adv-x="786" d="M76 659q0 47 33.5 81t80.5 34h93v90q0 47 33.5 81t80.5 34t81 -34t34 -81v-90h90q47 0 81 -34t34 -81t-34 -80.5t-81 -33.5h-90v-90q0 -47 -34 -81t-81 -34t-80.5 34t-33.5 81v90h-93q-47 0 -80.5 33.5t-33.5 80.5z" />
<glyph unicode="," horiz-adv-x="382" d="M69 -92.5q-2 6.5 3 17t7.5 14t10 12.5t10.5 14q22 15 20 37t-17.5 44.5t-23.5 52t3 59.5v2q0 49 34.5 82.5t82.5 31.5q47 0 80.5 -34.5t33.5 -81.5q-1 -8 1.5 -42t2.5 -55q0 -60 -18 -108q-13 -33 -43 -62.5t-68 -42.5q-18 -6 -38 -6q-7 0 -24 -1t-21 0t-13 5t-12.5 13.5 t-7.5 25.5q-1 16 -3 22.5z" />
<glyph unicode="-" horiz-adv-x="765" d="M68 549q0 47 33.5 81t80.5 34h410q47 0 81 -34t34 -81t-34 -81t-81 -34h-410q-47 0 -80.5 34t-33.5 81z" />
<glyph unicode="." horiz-adv-x="374" d="M72 63q-18 51 6 95q5 31 26.5 56.5t53.5 35.5q46 13 87.5 -9.5t55.5 -68.5q8 -24 8 -47q0 -43 -22 -76q-25 -39 -68 -53q-16 -8 -39 -8q-36 0 -66 20t-42 55z" />
<glyph unicode="/" horiz-adv-x="823" d="M9 3q-16 44 5 87q180 380 319.5 648.5t348.5 639.5q23 41 69.5 53.5t86.5 -10.5q41 -23 54.5 -68.5t-9.5 -86.5q-207 -367 -344.5 -631.5t-317.5 -642.5q-15 -30 -43 -48t-61 -18q-23 0 -49 13q-43 20 -59 64z" />
<glyph unicode="0" horiz-adv-x="968" d="M53 516q0 58 5.5 101.5t11 65.5t24.5 91q54 180 156 262q27 16 29 17q101 61 210 61q77 0 133.5 -28t120.5 -87q128 -111 154 -266q14 -87 14.5 -196.5t-16.5 -190.5q-25 -123 -72 -219q-60 -133 -196 -184q-48 -20 -86 -27.5t-97 -7.5h-12q-106 0 -192 90 q-65 71 -109 184q-9 24 -27.5 69.5t-23.5 61t-14 50t-11 69t-2 84.5zM260 516q0 -49 8 -100t16 -77l7 -26q17 -64 40.5 -101t59.5 -73q17 -17 51.5 -19.5t62.5 2.5t48 13q37 15 61 45q48 57 78 207q29 138 0 311q-6 40 -29.5 82.5t-56.5 71.5q-66 55 -117 55q-56 0 -112 -43 q-58 -51 -82 -145q-3 -12 -12 -40.5t-11 -37t-6 -30.5t-5 -43t-1 -52z" />
<glyph unicode="1" horiz-adv-x="489" d="M-10 41q4 48 33 143q7 23 83 224q97 248 134 362q0 4 4 12q-31 -25 -71.5 -21.5t-68.5 32.5q-29 31 -29 73.5t31 71.5q24 23 54 44.5t49.5 33t54 30t43.5 23.5q28 14 55 16q13 1 29 -5.5t25 -13.5l10 -7q34 -27 45 -70q8 -25 8 -65q0 -65 -26 -158q-18 -70 -58 -180 q-22 -61 -81.5 -211.5t-77.5 -204.5q-39 -106 -39 -141q-3 -41 -33 -69t-70 -28h-6q-42 1 -71 33.5t-27 75.5z" />
<glyph unicode="2" horiz-adv-x="804" d="M-59 29q-1 23 15.5 52t33.5 47l16 17q125 133 225 205q218 186 271 262q53 73 53 146q0 46 -18 88q-7 21 -49.5 53.5t-88.5 28.5t-79.5 -30.5t-40.5 -45.5q-17 -40 -57.5 -56t-78.5 1q-40 17 -56 56t1 79q34 82 111 129q94 61 198 63q110 3 217 -65q77 -46 115 -135 q33 -79 33 -166q0 -111 -55 -207q-44 -81 -125 -162q-12 -12 -53 -54t-65.5 -66t-59.5 -55.5t-60 -49.5q26 1 75 0t70 0q81 3 115 10q43 6 78 -19.5t41 -66.5q6 -43 -19 -78t-67 -41q-56 -9 -137 -12q-26 -1 -84.5 0t-89.5 0q-175 -3 -203 -4l-27 -4q-6 -1 -16 -2t-35.5 1 t-46 8.5t-38 25t-19.5 47.5z" />
<glyph unicode="3" horiz-adv-x="825" d="M-32 63q-7 42 18 76q26 35 68 42.5t77 -17.5q112 -76 195 -76q77 0 139 21q51 21 94 72t39 114q0 30 -15.5 70t-41.5 71q-29 40 -62.5 58.5t-57.5 19.5t-47 8t-34 25q-17 25 -23 60.5t-3.5 60.5t8.5 34q7 9 48.5 30.5t55.5 31.5q55 42 72 74q10 18 10 32v4q-4 33 -23 48 q-22 18 -65 18q-32 0 -66 -13t-53 -32q-30 -30 -73.5 -29t-73.5 33q-29 31 -28 73.5t32 71.5q102 100 262 103q108 0 188 -60q45 -31 74 -83t33 -111v-23q0 -71 -39 -137q-19 -35 -68 -84q48 -31 88 -78q109 -128 109 -276q0 -37 -8 -68q-27 -118 -78 -188 q-57 -78 -184 -125q-92 -33 -209 -33h-2q-157 0 -314 115q-35 25 -42 67z" />
<glyph unicode="4" horiz-adv-x="956" d="M33 416q-4 35 6 66.5t23 45.5l12 15q45 47 106 106.5t99 94.5l38 36q62 51 162 145t135 124q10 8 27 20.5t54.5 30t58.5 12.5q42 -9 -19 -360l-18 -129q119 18 147 16q43 -3 71.5 -35.5t25.5 -75.5t-35.5 -71t-75.5 -25q-13 1 -162 -24q-9 -82 -32.5 -207t-32.5 -197 q-4 -38 -34.5 -64t-68.5 -26q-2 0 -6 1t-6 1q-43 6 -69 40t-21 77q7 53 28 156t29 176q-30 -5 -53 -8t-48.5 -4t-40.5 -1.5t-50.5 0t-57.5 0.5q-45 0 -65 2q-5 -1 -13 -1.5t-28.5 1t-37 6.5t-31 19.5t-17.5 36.5zM332 551q74 11 170 31q12 86 18 127q-3 -3 -36.5 -28.5 t-49.5 -39.5q-74 -62 -102 -90z" />
<glyph unicode="5" horiz-adv-x="847" d="M-77 88q-1 43 30 74q29 31 71.5 32t73.5 -28q29 -29 88 -49q72 -21 138 -21q75 0 129 23q46 22 61 53q23 53 23 90q0 77 -80 139q-93 66 -215 66q-19 0 -47 -4q-5 -1 -14 -3t-33 -5t-42.5 -4t-36.5 2t-22 12q-6 13 3.5 48t22.5 64l13 29q13 31 34 81.5t31.5 75.5 t28.5 60.5t32.5 56.5t35.5 43t45 38q67 46 140.5 60.5t160.5 14.5q24 0 69 -1t66 -1q33 0 107 4q43 4 75 -22.5t37 -69.5q5 -41 -22 -74.5t-70 -37.5q-79 -7 -127 -7q-25 0 -70 1t-65 1q-66 0 -107 -8q-36 -7 -79 -33q-18 -11 -31.5 -53t-30.5 -71q130 -22 232 -95 q75 -54 120 -133.5t45 -173.5q0 -91 -43 -178q-48 -104 -165 -154q-93 -41 -211 -41q-103 0 -201 31q-103 34 -168 96q-31 29 -32 72z" />
<glyph unicode="6" horiz-adv-x="802" d="M37 336q0 21 1 37.5t4 34.5t5 28t7.5 35.5t8.5 38.5q0 2 3 8q40 170 124 338q145 280 342 436q34 25 77 19.5t69 -39.5t20.5 -77t-39.5 -69q-73 -55 -149 -151.5t-135 -212.5q-16 -32 -19 -39q16 2 50 2q23 0 41 -2.5t27 -4.5t30.5 -9.5t32.5 -10.5q87 -27 135 -73 q62 -62 87 -121t27 -142q-3 -101 -47 -204q-48 -112 -137 -178q-44 -34 -65.5 -48t-54.5 -25t-72 -11q-114 0 -203 65q-92 67 -133 182q-37 99 -37 193zM248 332q3 -62 5.5 -76t14.5 -49q17 -47 60 -78q42 -27 82 -27q21 0 45 11t53 43.5t45 81.5q27 75 27 124 q0 47 -26.5 88t-45.5 50q-40 18 -102 18q-60 0 -97 -18q-21 -11 -42.5 -56t-18.5 -112z" />
<glyph unicode="7" horiz-adv-x="899" d="M-33 901q0 43 31 74t74 31q73 0 218.5 -4.5t215.5 -4.5q151 0 260 13q16 2 39.5 5t67.5 -1t53 -21q14 -25 -4.5 -64.5t-43.5 -66.5l-26 -26q-97 -100 -174 -202.5t-176 -258.5q-215 -337 -248 -588q-6 -38 -35 -63t-67 -25h-15q-43 6 -68.5 41t-19.5 78q40 291 279 667 q20 32 53 85.5t48.5 77.5t44 63.5t61.5 79.5h-29q-77 0 -222 4t-212 4q-43 0 -74 30.5t-31 71.5z" />
<glyph unicode="8" horiz-adv-x="919" d="M47 246q-2 93 14.5 162t71.5 129q30 34 64 61q-1 0 -25.5 20.5t-32.5 28.5q-66 70 -69 172q-1 52 8 85.5t31 72.5q36 59 102 102q106 62 250 62q61 0 145 -15q73 -17 121 -47q63 -37 99 -101t36 -136q0 -118 -84 -205q-30 -30 -76 -45q6 -2 16.5 -8t42 -33t60.5 -64 t43.5 -100.5t14.5 -108.5v-45q0 -39 -19.5 -87.5t-39.5 -77.5l-19 -29q-47 -66 -109 -104t-114.5 -49t-124.5 -15q-170 -12 -277 88q-122 114 -129 287zM236 260q-1 -51 15.5 -92t41.5 -64.5t57 -39.5t59.5 -21.5t51.5 -5.5q34 0 69 13t66.5 38t51.5 68.5t20 97.5 q0 46 -22 83.5t-71 88.5q-14 14 -30.5 26t-29.5 20t-28 15t-22.5 10t-18.5 7l-12 4q-44 -9 -72.5 -27t-64.5 -57q-7 -10 -16.5 -26.5t-26.5 -60t-18 -77.5zM279 825q1 -9 4.5 -18t6.5 -14l3 -5q80 -80 176 -88q115 18 172 80q27 31 27 62q0 39 -37 61q-19 13 -62 21 q-48 10 -102 10q-67 0 -119 -19q-42 -16 -59 -43q-10 -25 -10 -47z" />
<glyph unicode="9" horiz-adv-x="915" d="M55 662v18q6 102 54 191t124 151q73 61 127 79.5t152 18.5q192 0 328 -127q35 -32 32 -84q-3 -37 -9.5 -150t-15.5 -208.5t-24 -183.5q-3 -16 -13 -78t-13.5 -79t-14 -66t-21 -71.5t-27.5 -60t-39.5 -68t-51.5 -61.5q-150 -160 -383 -186h-12q-39 0 -69 26.5t-34 65.5 q-5 41 22.5 76t68.5 39q155 18 258 121q18 19 29.5 35t19.5 36t12 33.5t12 45t15 54.5q34 118 51 275q-37 -34 -100.5 -64t-108.5 -43.5t-57 -13.5q-122 3 -203 63q-49 34 -79.5 91.5t-29.5 124.5zM262 662q0 -20 4.5 -29t18.5 -21q29 -22 82 -22q7 0 31 10t65.5 36.5 t73.5 61.5q80 87 114 179q-62 36 -139 36q-60 0 -81.5 -6.5t-65.5 -42.5q-97 -84 -103 -196v-6z" />
<glyph unicode=":" horiz-adv-x="372" d="M62.5 861q12.5 39 52.5 65q39 27 86 21.5t73 -44.5q23 -36 31 -88q9 -46 -18 -86t-74 -49q-3 0 -10 -1t-10 -1q-41 0 -73.5 26.5t-39.5 67.5q-3 11 -8 19q-22 31 -9.5 70zM109 43q-18 50 6 94q5 31 26.5 56.5t53.5 35.5q46 14 88 -8.5t55 -68.5q8 -24 8 -48 q0 -42 -22 -75q-26 -41 -68 -54q-16 -8 -39 -8q-36 0 -66 20.5t-42 55.5z" />
<glyph unicode=";" horiz-adv-x="382" d="M67 -110.5q-2 6.5 3 17t7.5 14t10 12.5t10.5 14q22 15 20 37t-17.5 44.5t-23.5 51.5t3 59v2q0 49 34.5 83t82.5 32q47 0 80.5 -34.5t33.5 -82.5q-1 -8 1.5 -41t2.5 -55q0 -61 -18 -109q-13 -32 -43 -61.5t-68 -42.5q-18 -6 -39 -6q-8 0 -21 -0.5t-17.5 -0.5t-12.5 2 t-11.5 6.5t-7.5 13t-7 22.5q-1 16 -3 22.5zM68 821v13q0 47 33.5 80.5t80.5 33.5t81 -33.5t34 -80.5v-13q0 -47 -34 -80.5t-81 -33.5t-80.5 33.5t-33.5 80.5z" />
<glyph unicode="&#x3c;" horiz-adv-x="731" d="M86 627q2 54 35 92q18 23 43 41q38 30 94 59q27 14 99.5 56t93.5 51q18 6 26 10q2 0 6 1.5t11 2.5q46 9 86 -17t49 -73q9 -43 -13 -81t-63 -50h-2q-2 -2 -14 -6q-11 -11 -21 -19t-26 -16.5t-23 -12t-33 -15t-35 -15.5q12 -5 45 -30t43 -30q78 -44 121 -106 q26 -38 16.5 -85t-49.5 -73q-30 -18 -63 -18q-26 3 -50 12.5t-36 17t-38 27.5t-36 27q-91 68 -137 90q-60 31 -84 57q-33 33 -43 78q-2 14 -2 25z" />
<glyph unicode="=" horiz-adv-x="964" d="M84 596q0 47 34 81t81 34l573 12q47 0 81 -34t34 -81t-34 -80.5t-81 -33.5l-573 -13q-47 0 -81 34t-34 81zM84 872q0 47 34 81t81 34l573 12q47 0 81 -33.5t34 -80.5q0 -46 -34 -80.5t-81 -34.5l-573 -12q-47 0 -81 34t-34 80z" />
<glyph unicode="&#x3e;" horiz-adv-x="714" d="M86 420.5q14 45.5 57 68.5q19 10 98 60.5t109 75.5q-2 2 -4 2q-18 16 -87.5 63t-94.5 72q-94 70 -55 153q20 43 64 59.5t87 -3.5q87 -42 129 -82q25 -19 66 -43.5t61 -42.5q16 -10 26 -18t14.5 -11.5t15 -16t16.5 -18.5q29 -34 37 -80l2 -16l-2 -14q-5 -28 -25 -68 q-10 -17 -33 -43q-42 -45 -75 -74q-38 -31 -119.5 -83t-122.5 -74q-24 -15 -53 -15q-66 0 -103 62q-22 41 -8 86.5z" />
<glyph unicode="?" horiz-adv-x="886" d="M60 1298.5q0 47.5 34 81.5q106 106 189 166q69 52 129.5 81t132.5 30q48 2 97.5 -20.5t82.5 -61.5q60 -71 86 -203q6 -40 6 -76q0 -91 -31 -171.5t-88 -178.5q-10 -18 -78 -126.5t-92 -160.5q-42 -89 -45 -159q-2 -46 -34.5 -78.5t-79.5 -32.5h-2q-47 2 -80.5 37 t-32.5 82q4 92 36.5 176t88.5 182q20 34 59.5 95.5t66 105.5t44.5 82q39 82 39 147q0 23 -2 33q-12 57 -25 80l-12 18h-4q-10 2 -49 -16t-76 -47q-84 -63 -164 -147q-34 -34 -81 -34t-81 34t-34 81.5zM238 94v17q4 47 41.5 77t85.5 25q46 -6 75 -43q40 -29 43 -80 q5 -46 -26 -83t-78 -40q-4 -2 -12 -2h-2q-54 0 -91 37q-40 43 -36 92z" />
<glyph unicode="@" horiz-adv-x="1175" d="M16 512q0 300 144 508q76 109 189.5 171.5t250.5 61.5q92 0 170 -22q80 -21 148 -96q53 -61 98 -156q86 -187 86 -373q0 -104 -31 -178q-40 -98 -125 -139q-48 -19 -78 -19q-75 0 -129 62q-23 25 -39 55q-45 -60 -98 -102q-75 -64 -151 -64q-40 -3 -84 23q-38 23 -62 65 q-39 66 -45 189v20q0 184 111 322q113 140 250 143q48 0 100 -25q48 -28 78 -77q22 -34 14.5 -75.5t-39.5 -64.5l68 -8v-2q0 -31 -6 -61v-4q0 -58 12 -113q9 -48 26 -74q10 7 21 29q14 40 14 98q0 101 -39 213q-40 116 -92 174q-32 35 -53 39q-64 17 -125 17 q-176 0 -285 -150q-106 -150 -106 -387q0 -109 29 -231q13 -51 39.5 -85t70.5 -61q87 -49 217 -49q104 0 205 33q90 29 143 74q29 26 29 36q12 40 47.5 59.5t73.5 6.5q38 -12 56.5 -49.5t6.5 -77.5q-21 -71 -88 -131q-52 -46 -135 -84q-157 -72 -338 -72q-176 0 -307 74 q-75 42 -130 111.5t-77 160.5q-35 143 -35 285zM453 506q3 -52 8 -68q0 -2 1 -4.5t1 -3.5q4 4 8 4q33 24 53 49q63 66 103 162q6 13 16 49q4 40 8 58q-2 3 -6 8t-6 8l-8 8q-2 2 -10 2h-3q-15 0 -45 -18t-55 -51q-65 -82 -65 -191v-12z" />
<glyph unicode="A" horiz-adv-x="1032" d="M51 137q12 166 35 297q3 14 59 271q-30 11 -49 38t-20 62q0 46 32 78t78 32h2q9 47 21 93q56 228 141 346q91 122 217 143q12 2 39 2q69 0 129 -37q48 -33 86 -90q59 -93 88 -233q45 -214 45 -580q0 -117 -5 -273t-5 -175q0 -45 -32 -77t-78 -32q-44 0 -76.5 32.5 t-32.5 78.5q0 27 4 180.5t4 265.5v123q-48 1 -91 2.5t-82.5 3t-59.5 2.5q-82 4 -131 4q-4 -16 -4 -24q-55 -235 -62 -277q-22 -130 -33 -272q-4 -46 -38 -76q-31 -27 -70 -27h-8q-46 5 -76 39q-27 31 -27 72v8zM412 913q38 0 96 -4q109 -4 213 -8q0 4 -1 12t-1 11 q-19 183 -60 284q-22 58 -45 70q-4 2 -8 2h-4q-36 -6 -74 -57q-38 -48 -77 -164q-18 -61 -39 -146z" />
<glyph unicode="B" horiz-adv-x="1124" d="M68 221q22 23 55 29q3 146 35 393t35 371q0 24 -5 194q-1 0 -2 -1t-2 -1q-20 -8 -40 -8l-44 10q-42 19 -59 62q-8 20 -8 41q0 22 9 43q18 42 60 59q220 86 410 86q156 0 262 -61q64 -34 111.5 -94.5t72.5 -139.5q17 -60 17 -104q-1 -27 -4 -48t-12 -41.5t-15.5 -32 t-23 -37t-25.5 -40.5q-26 -45 -61 -86q42 -25 79 -59q79 -75 124.5 -174t45.5 -205q0 -35 -6.5 -63.5t-14.5 -46.5t-30 -62q-33 -67 -90.5 -111t-122.5 -63q-70 -20 -215 -25q-34 0 -93.5 -1t-86.5 -1q-23 0 -72.5 1t-77.5 1h-12h-16q-45 0 -76 6q-69 14 -107 54 q-31 32 -31 75q0 48 36 80zM344 227h80q110 0 176 2q101 0 156 17q32 9 48.5 21t29.5 36q6 14 14 27t10 21t2 26q0 122 -98 217q-44 38 -92 53q-53 12 -117 12q-19 0 -63 -2t-68 -2q-4 0 -17 1t-20 1q-5 -42 -17 -138.5t-17.5 -159t-6.5 -132.5zM408 879q82 4 96 6 q33 5 110 37q6 2 24.5 -1t36 2t30.5 27q47 74 47 150q0 21 -4 37q-24 72 -82 108q-61 33 -154 33q-44 0 -102 -10q0 -42 3 -124t3 -130q-2 -5 -2 -6q0 -19 -1 -40.5t-2.5 -48t-2.5 -40.5z" />
<glyph unicode="C" horiz-adv-x="1054" d="M45 637q0 115 22 202t76 203q108 241 320 371q33 18 53 25q25 8 62 18q94 21 145 21q43 0 96 -15q63 -19 99 -67q21 -31 21 -64q1 -9 -1 -19q-8 -44 -45 -73q-29 -22 -64 -22q-6 0 -11 1q-41 4 -70 33q-4 2 -25 2q-38 0 -86 -10q-54 -15 -59 -20q-16 -10 -49 -29 t-47.5 -28t-39 -26.5t-38.5 -33t-30.5 -39t-29.5 -51.5q-78 -176 -78 -379q0 -71 13 -154q3 -23 7 -40t10.5 -31.5t10.5 -21t14.5 -22t14.5 -22.5q21 -34 49.5 -59t75.5 -49q26 -13 63 -13q76 0 166 41q89 38 158 90q29 20 64 20q10 0 20 -2q46 -8 72 -44q20 -29 20 -63 q0 -9 -2 -19q-8 -46 -45 -74q-95 -66 -199 -113q-133 -56 -254 -59q-89 0 -162 37q-143 72 -217 192q-41 70 -58.5 112t-27.5 108q-14 83 -14 186z" />
<glyph unicode="D" horiz-adv-x="1193" d="M29 193q12 41 50 63q26 15 55 15q13 0 26 -3q1 85 28 363q28 247 31 577q-22 -10 -47 -10q-12 0 -22 2q-36 6 -60 33q-30 32 -30 75q0 48 36 81q41 36 105 57q53 20 116 33q123 24 232 24q57 0 88 -8q148 -37 254 -143q89 -86 153 -232q53 -126 74 -233.5t23 -241.5 q0 -81 -11 -186q-4 -41 -11 -72.5t-12.5 -47t-23.5 -60.5q-42 -103 -133 -166q-58 -41 -137 -72q-47 -19 -127 -29q-63 -8 -162 -8q-237 0 -420 51q-44 13 -66 53q-14 26 -13 54q0 15 4 31zM379 229q74 -6 145 -6q89 0 138 8q17 1 33 4t24.5 5.5t9.5 3.5q60 25 94 49 q26 16 43 43q2 3 7 10t7 10t6.5 10.5t6 13.5t5 16.5t5.5 21.5t4 27.5t4 35.5q9 77 9 164q0 194 -41 348q-8 27 -18 50t-18 38t-23.5 33t-23.5 26t-29.5 28t-29.5 28q-67 64 -153 86h-2h-7q-6 2 -26 2q-56 0 -111 -8q0 -384 -30 -668q-29 -268 -29 -379z" />
<glyph unicode="E" horiz-adv-x="1040" d="M39 92q-2 10 -2 20q1 33 21 62q26 37 71 43q35 8 57 10q4 133 30 368t26 372v28q0 7 -2 -16q-6 85 -7 98q0 5 -8 162h-57h-6q-43 0 -74 29q-34 31 -35 75v5q-1 43 29 75q32 34 78 35h98q38 0 111.5 -1t109.5 -1q79 0 152 6h6q1 0 6 1t10 1q10 2 49 6q75 11 134 11 q38 0 61 -4q34 -3 72 -27q40 -24 53 -68q6 -18 6 -36q0 -24 -11 -48q-20 -40 -63 -55q-19 -6 -36 -6q-36 0 -68 25h-14q-54 0 -152 -15q-28 -4 -37 -4q-85 -6 -168 -6h-35q1 -9 2.5 -28t2.5 -27q1 -34 4 -97.5t4 -80.5l2 -14q1 1 1 7h1v-30q0 -51 -2 -78q12 4 16 4 q117 31 217 31q60 0 121 -15q43 -11 65 -51q15 -26 15 -54q0 -15 -4 -30q-12 -44 -52 -66q-26 -15 -53 -14q-15 0 -30 4q-24 7 -62 7q-60 0 -162 -23q-7 -2 -86 -27q-3 -31 -18 -172t-20 -229q160 16 301 16q85 0 167 -6q46 -4 76 -38q28 -31 27 -71v-8q-3 -45 -37 -75 q-31 -27 -72 -27h-8q-51 4 -153 4q-253 0 -541 -47q-8 -2 -19 -2q-40 0 -71 25.5t-37 66.5z" />
<glyph unicode="F" horiz-adv-x="866" d="M68 1249v8q0 41 26 73q30 35 74 40q40 3 189.5 20t246.5 19h2q2 0 6 2q11 0 19 2q46 6 59 8q102 13 152 13q38 0 61 -4q42 -8 72 -27q40 -24 53 -68q7 -19 7 -37q1 -24 -11 -46q-20 -40 -63 -56q-21 -8 -40 -8q-35 0 -65 26h-14q-27 0 -180 -18q-27 -6 -50 -6 q-88 -3 -168 -12v-111v-92q2 -26 5 -59t4 -70q32 6 77 18q118 29 177 29h28q46 -3 76 -38q27 -32 27 -73v-8q-5 -44 -39 -74q-31 -27 -72 -26h-8h-12q-39 0 -119 -23q-120 -25 -131 -26q2 -90 2 -275v-10q0 -34 2 -112t2 -115q0 -46 -32.5 -78.5t-78.5 -32.5t-78 32.5 t-32 78.5q0 35 -1 112t-1 115v4v6q0 193 -15 615q0 19 -1 52.5t-1 49.5q0 59 2 86q-6 0 -19 -1t-20 -1q-1 0 -4 -1t-4 -1q-42 0 -73.5 29t-36.5 71z" />
<glyph unicode="G" horiz-adv-x="1183" d="M121 715q0 29 1 54t4.5 53t6 44.5t9.5 49.5t10.5 47t14 57.5t15.5 62.5q19 70 86 148q51 54 138 110q180 116 337 119q111 0 181 -67q33 -32 33 -79q0 -44 -31 -75q-32 -34 -78 -34t-78 32h-2q-8 4 -25 4q-69 0 -157 -49q-100 -51 -156 -113q-11 -11 -20 -23t-12 -18.5 t-3 -7.5l-16.5 -66l-14.5 -58t-10 -45t-8 -47t-4 -44t-2 -55q0 -110 29 -281q3 -19 7 -33.5t10 -27t9.5 -19t12 -21t12.5 -20.5q18 -31 36 -46.5t50 -24.5q74 -19 131 -19q74 0 113 27q63 47 71 57q10 10 13 21q3 6 10 53q3 18 8.5 30.5t5.5 26.5q0 17 -4 25l-12 2 q-11 2 -23 2q-25 0 -65 -6q-11 -2 -22 -2q-32 0 -60 19q-37 27 -45 71q-2 10 -2 20q0 33 20 62q26 38 70 45q62 10 104 10q61 0 113 -18q48 -16 90 -62q55 -67 55 -168q0 -34 -7.5 -59.5t-8.5 -30.5q-6 -46 -17 -86q-12 -41 -38 -78q-13 -17 -30.5 -34t-26 -24.5t-36.5 -28 t-34 -25.5q-98 -68 -242 -68q-88 0 -186 25q-75 19 -133 67t-91 109q-35 63 -49.5 100t-23.5 88q-33 168 -33 322z" />
<glyph unicode="H" horiz-adv-x="1017" d="M-35 694q-2 12 -2 24q-1 32 17 60q24 38 69 47q5 1 14.5 3t14.5 3v48v57q0 72 -6 210.5t-6 201.5q0 45 31.5 76.5t76.5 31.5h3q43 0 75 -30q32 -32 33 -78q0 -54 6 -193.5t6 -218.5v-57v-17q120 6 238 6h65h2q4 0 32 1t48 1q31 0 47 -2q0 45 1 101t1 100q0 145 -6 215v19 v12q-7 21 -7 40q0 40 32 75q5 7 24 20q28 14 57 14q46 0 76 -30q19 -19 27 -39q2 -5 10 -35v-33v-24v-3h-2h2q6 -78 6 -231q0 -45 -1 -103t-1 -100v-6q0 -106 4 -196t4 -170q0 -45 -2 -74q0 -57 -6 -139.5t-6 -128.5q0 -36 2 -54v-5q0 -42 -28 -74q-30 -34 -76 -35 q-2 -2 -6 -2q-43 0 -75.5 30t-35.5 74v66q0 59 6 142t6 128v72q0 108 -2 147q-2 1 -5 3t-5 3q-2 0 -4 2q-3 0 -15.5 1t-21.5 1q-12 0 -38.5 -1t-41.5 -1h-4h-63q-137 0 -238 -8q0 -76 -1 -203.5t-1 -208.5v-153q1 -46 -31 -78.5t-78 -32.5t-78 32.5t-32 78.5v153 q0 240 2 379h-4q-39 0 -69.5 24t-39.5 62z" />
<glyph unicode="I" horiz-adv-x="538" d="M-47 1292q0 44 32.5 76.5t77.5 32.5q88 0 170 10q6 1 73 10.5t118 14.5h8q41 0 73 -26q35 -30 38 -75q1 -6 1 -13q0 -36 -25 -66q-29 -35 -75 -39q-69 -8 -90 -11q2 -59 15 -622q6 -188 6 -367q20 0 74 -4q45 -3 75 -39q25 -30 26 -67q0 -6 -1 -13q-5 -46 -39 -74 q-31 -26 -71 -26h-9q-37 4 -86 4q-23 0 -156 -10q-12 -2 -41 -2q-30 0 -53 6q-44 9 -68 48q-17 27 -17 56q0 13 3 27q8 43 46 67q27 17 58 17q11 0 23 -2h8h9v10q0 151 -6 363q-10 433 -13 606q-23 -2 -74 -2q-46 0 -78 32t-32 78z" />
<glyph unicode="J" horiz-adv-x="501" d="M-270 -97q-2 11 -2 22q0 32 20 61q26 37 70 46q11 2 22 2q32 0 60 -20q22 -15 61 -45.5t57 -42.5q53 -35 76 -35h4q5 0 8 3q24 8 39 26q19 23 31 62q19 55 27 192q8 104 8 197q0 86 -4 266v57v228v35q0 74 -3 115q-5 51 -18 118v2h-65q-46 0 -78.5 32t-32.5 76 q0 46 32.5 78.5t76.5 32.5h2q179 0 358 12h6q42 0 74 -28q34 -30 37 -76v-8q0 -39 -28 -71q-30 -35 -76 -38q-26 0 -84 -4q13 -83 16.5 -128.5t3.5 -147.5q0 -43 -1 -120t-1 -108v-55q4 -176 4 -268q0 -96 -8 -211q-4 -92 -19 -176q-27 -125 -86 -199q-52 -68 -137 -98 q-41 -15 -82 -15q-93 0 -202 72q-27 19 -67.5 50t-51.5 38q-38 26 -47 71z" />
<glyph unicode="K" horiz-adv-x="849" d="M61 516v21q1 100 5 274t4 287q0 96 -2 145v62v16q0 11 2 27q10 44 48 68q28 18 59 18q12 0 24 -2q41 -10 65 -44q21 -30 22 -65q0 -6 -1 -12v-6v-56q2 -53 2 -151q0 -46 -1 -103.5t-1 -101.5q31 42 93.5 87t92.5 81q6 8 16 18l21 21l57 57q41 39 144 133q55 48 80 64 q7 7 28 16q20 8 43 8q22 0 43 -8q29 -11 47 -35q23 -30 23 -65q1 -8 -1 -16q-6 -44 -42 -72q-14 -11 -29 -17q-1 -1 -3 -2t-3 -2q-20 -17 -59 -53q-106 -97 -146 -137q-11 -11 -23 -22.5t-19.5 -18.5t-8.5 -8q-36 -43 -106 -99.5t-105 -103.5q17 -29 41 -62.5t43.5 -58 t53.5 -67t53 -66.5q66 -88 141 -167.5t147 -180.5q20 -29 20 -63q1 -10 -1 -20q-8 -46 -45 -71q-26 -20 -64 -20q-58 0 -88 47q-140 195 -287 385q-22 30 -78 78.5t-85 91.5v-10v-19q0 -50 8 -186q8 -131 10 -248v-4v-4q0 -9 -2 -15q0 -7 -8 -26q-12 -30 -35 -47 q-32 -23 -66 -23q-42 2 -69 25q-16 13 -23 24t-12 25q-4 10 -8 22q-6 30 4 60q-2 84 -10 198q-9 149 -9 199z" />
<glyph unicode="L" horiz-adv-x="712" d="M37 109q0 23 4 59q5 28 6 31q2 40 2.5 120t3.5 138q3 86 17 279t14 313q0 17 2 71t2 84q0 42 -2 58q0 6 -0.5 12t-1.5 10v4q-5 17 -5 33q0 26 13 50q22 40 66 52q17 6 33 6q25 1 50 -13q40 -22 52 -66q8 -26 12 -72q2 -25 2 -74q1 -26 -1 -84q-1 -34 -1 -54v-19 q-1 -126 -15.5 -320.5t-17.5 -280.5q-2 -49 -3 -128.5t-3 -131.5q0 -2 -1 -4.5t-1 -3.5q57 2 139 2h142q92 0 160 4h8q41 0 71 -26q34 -30 37 -76v-8q0 -40 -27 -72q-30 -34 -75 -37q-108 -6 -174 -6q-26 0 -72 1t-70 1q-86 0 -147 -4q-1 0 -15.5 -1t-25.5 -1q-33 0 -53 4 q-49 16 -70 33q-26 20 -43 53q-12 30 -12 64zM84 1288z" />
<glyph unicode="M" horiz-adv-x="1150" d="M37 193q0 36 6 81t6 54v2v6q0 96 11.5 252t11.5 239v9v266v319q0 46 32 78.5t78 32.5q9 0 25 -4q15 4 29 4q42 0 77 -35q26 -31 49 -78q1 -3 12.5 -33t16.5 -45q22 -71 35 -124q15 -45 55 -151t60 -181q34 91 111.5 270t117.5 293q14 42 56 61q23 11 47 11q19 0 38 -7 q41 -12 60 -49q32 -29 35 -73q16 -210 55.5 -615t56.5 -657v-8q0 -41 -26 -72q-30 -34 -74 -37q-4 -2 -8 -2q-43 0 -75.5 29.5t-35.5 72.5q-9 144 -22 293t-30 327t-26 288q-117 -320 -194 -512q-6 -28 -40.5 -47t-68.5 -21h-10q-80 0 -94 62q-14 55 -38.5 150t-45 175 t-39.5 150v-131v-9q0 -96 -11.5 -252t-11.5 -239v-4v-4v-2q-1 -35 -6.5 -79t-5.5 -54v-9q1 -7 1 -13q-1 -39 -25 -69q-28 -36 -74 -39h-11q-42 0 -73.5 28.5t-34.5 70.5q-2 10 -2 31z" />
<glyph unicode="N" horiz-adv-x="968" d="M51 1270q-2 12 -2 23q-1 31 17 59q24 39 69 49q12 2 24 2q31 1 59 -17q38 -24 48 -69v-6q16 -16 25 -37q51 -138 112 -268.5t147 -296.5t130 -258q14 294 14 491q0 165 -20 391v8q0 41 26 73q30 35 74 38h11q39 0 70 -25q35 -29 38 -73q20 -237 20 -412q0 -161 -11 -440 t-13 -348q-3 -31 -19 -60q2 -9 2 -18q0 -25 -13 -49q-17 -33 -50 -50q-23 -10 -47 -10q-31 0 -58 16.5t-42 45.5q-55 116 -186 365t-197 397q2 -66 9 -330.5t9 -409.5q0 -46 -31.5 -78t-77.5 -34h-2q-44 0 -76 32t-32 76q-3 125 -10.5 390t-10.5 411q-2 14 -2 41 q0 67 6.5 129.5t6.5 97.5q0 70 -17 154z" />
<glyph unicode="O" horiz-adv-x="1196" d="M61 641v27q0 115 25 266q34 197 160 326q115 118 280 165q16 6 31 6l37 -8q17 7 31 7q8 2 24 2q164 0 289 -144q72 -85 143 -252q14 -35 23.5 -69.5t15 -54.5t8.5 -58t3.5 -47.5t1 -57.5t0.5 -55q2 -35 2 -112q0 -114 -14 -194t-62 -171q-68 -133 -180 -201 q-103 -67 -236 -67q-107 0 -209 46t-182 130q-117 120 -160 270q-19 65 -24 113t-7 133zM283 643q0 -157 20 -233q8 -28 19 -44t40.5 -43t47.5 -47q105 -108 233 -108q66 0 121 35q59 37 100 114q29 53 40 113t11 152q0 18 -1 54t-1 54q0 10 -0.5 39.5t-0.5 36.5t-1 29.5 t-2 29.5t-2.5 24.5t-4 26.5t-6 23.5t-8.5 27l-11 27.5q-51 127 -107 191t-121 67q-6 0 -8 -2q-26 0 -47 9q-1 -1 -3 -2.5t-3 -2.5q-115 -32 -185 -108q-13 -13 -33.5 -30.5t-30.5 -27.5t-21 -32t-17 -55q-18 -113 -18 -293v-25z" />
<glyph unicode="P" horiz-adv-x="786" d="M-90 1223q-1 7 -1 13q1 36 25 67q28 36 72 40q129 19 260 19q108 -2 187.5 -13t146.5 -44q4 -2 23.5 -12t26.5 -14t25 -14.5t27.5 -18t24 -19t26.5 -24t23 -27.5q78 -100 78 -277q0 -97 -68 -182q-50 -64 -137 -113q-154 -86 -323 -86h-33q8 -312 8 -483 q0 -46 -32.5 -78.5t-78.5 -32.5q-44 0 -76 32.5t-32 78.5q0 208 -10.5 569t-12.5 526q-4 -1 -13 -2t-13 -2q-8 -1 -15 -1q-36 -1 -66 23q-36 28 -42 75zM279 1141q1 -71 4 -205t4 -195q16 -4 39 -4q84 0 163 33q93 37 125 84q19 24 19 45q0 99 -31 143q-21 27 -100 66 q-27 14 -90 23.5t-133 9.5z" />
<glyph unicode="Q" horiz-adv-x="1140" d="M61 580q0 124 13 260q16 147 73 266q67 138 191 217q100 56 143 70q34 14 76 16h8q3 0 9.5 1t9.5 1h14q55 0 127 -31q51 -25 104 -65q101 -85 146 -170q88 -190 102 -381q6 -147 6 -160q0 -110 -16 -194q-12 -57 -70 -195q-28 -63 -77 -109q10 -15 30.5 -41.5t30.5 -41.5 q20 -29 20 -62q0 -10 -2 -21q-8 -45 -45 -71q-27 -21 -63 -21q-54 0 -90 48q-15 23 -66 92q-106 -49 -213 -49h-2q-127 0 -223 75q-81 60 -147 156q-76 112 -84 221q-5 153 -5 189zM281 580q0 -61 4 -179q4 -48 45 -106q43 -64 100 -107q38 -30 92 -30q41 0 82 14 q-5 7 -15.5 21.5t-15.5 21.5q-20 28 -20 62q0 10 2 21q8 45 45 71q29 20 62 20q10 0 20 -1q44 -8 70 -46q6 -8 18 -25.5t18 -25.5q7 7 7 10q47 104 57 152q12 64 12 151q0 5 -6 146q-12 153 -82 299q-10 25 -55 67q-44 47 -90 66q-20 10 -33 10h-2q-20 -7 -39 -4q-2 0 -2 -2 q-4 -1 -37 -15q-45 -23 -61 -34q-67 -43 -113 -129q-42 -85 -51 -191q-12 -114 -12 -237z" />
<glyph unicode="R" horiz-adv-x="796" d="M-59 1223q-2 11 -2 21q0 34 21 62q27 36 73 42q107 16 213 16q13 0 243 -10h11l10 -4q142 -34 215 -113q42 -45 72 -133q37 -102 37 -186q0 -77 -29 -148q-56 -123 -207 -195q-64 -30 -119 -43q33 -45 41 -57q50 -71 135 -200.5t121 -180.5q20 -29 20 -62q0 -9 -2 -19 q-8 -44 -44 -70q-27 -21 -64 -21q-55 0 -90 47q-37 54 -122 183.5t-132 193.5q-45 63 -63 90q-7 -222 -7 -379v-2v-5q0 -40 -29 -72q-31 -34 -77 -35h-4q-43 0 -75.5 31t-33.5 75v8q0 114 3.5 320.5t4.5 269.5v21q0 18 1 51t1 51q0 178 -12 360h-3q-40 0 -70 26 q-32 26 -37 67zM270 1145q13 -206 13 -375v-37q10 -2 39 -2q94 0 182 43q38 17 65.5 42t34.5 42q10 27 10 60q0 52 -22 110q-14 45 -29 62q-28 28 -96 45q-191 10 -197 10z" />
<glyph unicode="S" horiz-adv-x="849" d="M-74 322v30q6 46 40 76q31 28 71 27h8q45 -5 75 -39q26 -30 25 -69v-11v-14q3 -99 88 -166q35 -26 54.5 -38.5t51.5 -22t71 -9.5q126 0 206 68q29 24 39.5 46t12.5 56q1 48 -27 110.5t-68 108.5q-74 89 -141 137q-14 9 -31 25.5t-41 33t-65 34.5q-79 37 -150 108 q-85 89 -106 178q-8 33 -8 76q0 70 31 133t83 105q104 81 242 81h3q108 0 192 -62q85 -63 153 -194q14 -25 14 -51q1 -15 -5 -31q-14 -42 -54 -65q-25 -14 -51 -14q-15 -1 -31 5q-42 14 -65 54q-46 83 -75.5 110.5t-80.5 28.5q-61 0 -102 -32q-32 -28 -35 -68q0 -7 4 -27 q5 -32 49 -73q41 -44 82 -62q40 -18 66 -35t53.5 -38.5t50.5 -36.5q81 -55 186 -179q143 -174 146 -360v-8q1 -70 -31 -140q-34 -74 -100 -126q-144 -115 -346 -115q-90 0 -158 27t-150 88q-79 58 -127.5 147.5t-48.5 192.5z" />
<glyph unicode="T" horiz-adv-x="694" d="M-160 1178q0 32 23 67q6 6 12.5 13t7.5 8q13 10 21 10q9 6 12 6q9 3 10 4q7 0 19 4q4 1 22.5 4.5t32.5 5.5q7 1 131 25q29 5 94.5 17t100.5 18q33 33 75 33q9 0 19 -2q11 -2 33 -11q15 2 80 12t98 13q53 8 87 16t70 11q12 1 3 4h4q27 -3 63 -17q42 -20 56 -60 q7 -18 6 -37q0 -22 -9 -46q-8 -20 -21.5 -33t-33.5 -20t-36.5 -10t-44.5 -6t-42 -5q-92 -16 -213 -35q0 -1 1 -3t1 -3v-4v-74q0 -133 2.5 -283t5 -228.5t9 -282.5t8.5 -258l-4 -58q1 -44 -26.5 -65t-76.5 -23q0 -2 -4 -2q-43 0 -75 31.5t-33 75.5q-27 731 -27 1093v50 q-75 -14 -159.5 -29.5t-112.5 -20.5q-4 -2 -11 -2q-15 -7 -28 -10q-3 0 -9 -1t-8 -1t-8 -1t-14 -1t-12 2q-15 0 -29 6q-28 11 -47 37q-23 27 -23 66z" />
<glyph unicode="U" horiz-adv-x="1136" d="M59 852q0 158 15 465q2 47 36 77q31 28 70 27h8q45 -1 76 -35q29 -32 29 -74v-5q-14 -284 -14 -455q0 -253 26 -451q18 -107 51 -178q39 -82 84 -110q32 -19 62 -19h4q66 3 127 43q59 43 108 117q46 72 76 164t35 170q10 146 10 217q0 43 -6 215q-6 215 -20 295 q-1 8 -1 16q0 36 22 66q27 37 71 43q10 2 20 2q34 0 62 -21q38 -27 43 -71q16 -110 22 -322q2 -42 4 -91.5t3 -78.5t1 -53q0 -59 -12 -234q-13 -167 -88 -331q-87 -185 -225 -283q-118 -79 -244 -82h-12h-2q-99 0 -181 53q-66 45 -120 127q-83 131 -111 316q-29 220 -29 481 z" />
<glyph unicode="V" horiz-adv-x="915" d="M8 1274q0 34 4 74q4 46 40 74q30 24 68 25q7 0 13 -1q45 -6 73 -42q24 -30 24 -66q0 -8 -1 -15v-49v-20q0 -146 26 -402q28 -274 77 -477q38 -151 76 -223q11 16 20.5 33t19.5 39t17 36t17 42t14.5 39.5t15 45.5t13 42t14.5 48t14 45q50 163 149 469t142 445q14 44 54 64 q26 13 52 13q16 0 31 -4q43 -15 64 -55q13 -25 13 -51q0 -16 -5 -33q-43 -141 -141.5 -446t-147.5 -465q-4 -13 -22.5 -74t-26.5 -83t-27.5 -76t-35.5 -84.5t-40 -74.5t-53 -80.5t-63 -70.5l-39 -37l-51 6q-46 5 -89 35q-23 15 -61 57q-37 48 -78 150q-54 139 -98 391 q-34 203 -53 415.5t-19 340.5z" />
<glyph unicode="W" horiz-adv-x="1400" d="M61 625v26q8 209 91 701q7 44 45 70q29 20 62 20q10 0 20 -2q44 -7 71 -45q21 -29 21 -62q0 -10 -2 -20q-81 -465 -88 -670v-18q0 -112 26 -228q25 -124 74 -204q9 -17 31 -35q13 -8 24 -8q12 0 29 10q70 48 100 172q25 89 33 268q2 18 2 74v84q0 63 2 90q1 3 2.5 15 t3.5 22q12 30 33 51q34 29 76 29q52 0 86 -39q7 -9 22 -39q9 -27 9 -43q4 -23 4 -74q0 -57 -6 -199t-7 -196v-15q0 -54 23 -112q18 -52 45 -70q10 -6 22 -6q19 0 37 10q38 20 74 74q36 57 57 135q39 137 39 307q0 91 -17.5 298t-31.5 307q-1 9 -1 18q0 33 20 62q26 36 71 44 q10 1 19 1q36 0 64 -20q36 -26 44 -73q18 -110 34.5 -317.5t16.5 -319.5q-5 -358 -129 -559q-68 -102 -157 -151q-72 -37 -140 -37q-83 0 -149 49q-45 34 -76 78q-44 -60 -102 -101q-68 -47 -150 -47h-2q-81 0 -145 45q-62 41 -101 105q-56 96 -98 270q-31 149 -31 275z" />
<glyph unicode="X" horiz-adv-x="776" d="M-87 1306q11 44 50 68q27 16 56 16q13 0 27 -4q44 -11 69 -51q92 -158 276 -458q149 240 264 446q23 40 67 52q15 4 30 4q28 0 55 -15q39 -22 51 -66q5 -16 4 -32q0 -27 -14 -52q-122 -213 -330 -550q191 -315 344 -572q16 -27 16 -57q0 -13 -3 -27q-11 -44 -50 -67 q-31 -17 -57 -17q-28 0 -53.5 15t-40.5 41q-72 122 -285 475q-151 -245 -268 -451q-31 -57 -96 -57q-26 0 -54 14q-40 23 -52 67q-4 15 -4 30q0 28 15 55q147 256 330 553q-110 180 -334 557q-16 27 -16 57q0 12 3 26z" />
<glyph unicode="Y" horiz-adv-x="663" d="M-70 1303v8q0 39 27 71q30 34 76 37h10q38 0 69 -26q35 -30 38 -74q6 -89 38 -230.5t78 -228.5q26 -51 53 -74q5 0 21 -4q1 1 4.5 4t5.5 5q38 33 84 94q104 135 166 282q19 41 29 78t8 49v4v8q0 40 26 72q29 35 74 39q6 1 13 1q36 0 66 -26q36 -29 40 -75q0 -3 1 -11 t1 -12q-2 -56 -27 -139q-27 -75 -61 -145q-83 -166 -180 -283q-79 -96 -141 -135q-5 -3 -15.5 -9.5t-15.5 -9.5v-583q0 -46 -32.5 -78.5t-78.5 -32.5q-44 0 -76 32.5t-32 78.5v612q-45 34 -82 84q-54 73 -103 211q-66 195 -84 406z" />
<glyph unicode="Z" horiz-adv-x="892" d="M-101 47q0 40 21 68q110 149 330.5 412.5t361.5 436.5q132 162 132 188q0 2 -1 3q-9 17 -85 17q-4 0 -8 1q-76 1 -210 -9q-140 -10 -200 -11q-18 0 -55.5 -1t-57.5 -1h-2q-24 0 -43 8q-2 2 -4 2q-1 0 -2 1t-2 1q-1 1 -4 2t-4 2q-1 2 -3 2q-46 28 -49 88q0 46 31.5 79 t77.5 34q17 0 53 1t55 1q423 11 639 14h11q8 0 10 -2h2q23 -3 39 -14q1 -1 4 -3t4 -3l2 -2q26 0 55 -16q38 -24 49 -68q4 -14 4 -28q0 -29 -16 -54q-66 -110 -178 -260t-222.5 -285t-211.5 -255q-101 -122 -162 -196q-57 -70 -57 -78v-1q10 -13 114 -13q166 0 572 33 q6 1 13 1q36 0 66 -26q36 -30 40 -75v-8q0 -40 -26 -72q-30 -35 -75 -39q-145 -12 -435 -13t-435 -13h-10q-37 0 -66 21t-39 56q-23 29 -23 74z" />
<glyph unicode="[" horiz-adv-x="421" d="M55 1364l129 -10h17q8 -1 13.5 -0.5t11.5 1.5l5 1q44 17 87.5 -2.5t60.5 -63.5t-2.5 -87t-63.5 -60l-2 -2q19 -109 19 -240q0 -73 -7.5 -230t-7.5 -218v-2v-2v-23q0 -50 -1 -149t-1 -148q0 -19 1 -100t1 -99q40 -9 64.5 -41.5t23.5 -74.5q-1 -46 -34.5 -77.5t-79.5 -31.5 h-4q-26 0 -55.5 9t-45.5 20q-18 11 -28 16l-66 29l-2 74q-4 126 -4 276q0 50 1 149t1 148v20v7q0 73 7 230t7 218q0 120 -16 201q-1 4 -11.5 50.5t-11.5 82.5z" />
<glyph unicode="\" horiz-adv-x="907" d="M-46.5 1322q13.5 46 54.5 71q41 23 87 9.5t69 -54.5q431 -772 735 -1227q28 -40 18.5 -87t-49.5 -73q-29 -20 -63 -20q-60 0 -96 51q-189 283 -352 558.5t-394 684.5q-23 41 -9.5 87z" />
<glyph unicode="]" horiz-adv-x="505" d="M34.5 1210.5q-9.5 45.5 16.5 85.5q25 39 70.5 50t85.5 -13q3 0 12 1t24.5 2.5t30.5 2.5q13 0 37 -4l97 -12l4 -96q2 -72 2 -217q0 -86 -2 -282t-2 -279q0 -230 10 -371q1 -11 10 -69.5t10 -102.5q0 -17 -4 -53l-6 -48l-39 -28q-65 -51 -143 -51h-4q-46 0 -80 32t-35 78 q-1 38 20.5 69.5t57.5 43.5q-1 9 -8 47.5t-9 64.5q-10 149 -10 388q0 86 2 282.5t2 278.5v94q-58 4 -100 35q-40 26 -49.5 71.5z" />
<glyph unicode="^" horiz-adv-x="772" d="M61 888.5q0 40.5 31 72.5q14 13 56 65t65 84q17 24 43.5 53.5t34.5 38.5q15 19 33 31q2 1 9.5 5.5t13 7t17 5t25.5 2.5h2q13 0 19 -2q15 -3 41 -16q17 -14 20 -18q17 -17 21 -25q4 -5 12.5 -15.5t15 -19t10.5 -16.5q13 -20 64.5 -82.5t60.5 -75.5q8 -14 19 -28.5 t12 -16.5q13 -17 17.5 -60.5t-15.5 -74.5q-30 -37 -72 -37q-40 0 -67 27q-16 14 -57.5 69.5t-75.5 104.5l-33 49q-3 -4 -38.5 -56t-62.5 -89t-44 -54q-31 -31 -72.5 -31t-73.5 31q-31 31 -31 71.5z" />
<glyph unicode="_" horiz-adv-x="1001" d="M57 -39q-1 47 32 81t81 36q112 1 333.5 10.5t325.5 11.5q47 2 82 -31.5t35 -80.5q1 -47 -31 -81t-79 -36q-107 -2 -329 -12.5t-335 -12.5q-47 0 -81 34t-34 81z" />
<glyph unicode="`" horiz-adv-x="473" d="M61 1270q-15 46 5.5 89t64.5 58t87.5 -5t60.5 -64q0 -2 1 -5t1 -4q18 -49 98 -125q34 -34 34 -81.5t-34 -81.5q-13 -16 -39 -27q-30 -12 -63.5 -5.5t-59.5 30.5q-33 33 -54.5 56.5t-49.5 65t-45 84.5q-1 2 -3.5 7.5t-3.5 7.5z" />
<glyph unicode="a" d="M44 816v10q0 43 26 77q37 50 96.5 88.5t114.5 42.5h14q88 0 166 -69q101 -91 161 -263q50 -145 50 -259q0 -21 -2 -42q-21 -238 -123 -335q-57 -54 -162 -63q-20 -2 -38 -2q-79 0 -132 32q-81 44 -121.5 126.5t-40.5 186.5q0 83 27 146q23 58 72.5 96.5t105.5 44.5 q11 1 22 1q30 0 52 -8q32 -11 73 -38t62 -37q0 57 -55 156q-20 35 -56 57q-29 20 -61 20q-37 0 -64 -34q-27 -37 -71 -42q-6 -1 -12 -1q-37 0 -66 28q-34 32 -38 81zM264 346q0 -37 17 -76q10 -33 26 -43q12 -4 15 -4q33 0 84 49q21 21 28 50q3 18 6 24v6v5q-2 3 -11 8 t-17 12q-22 19 -46 31q-25 10 -48 12q-2 0 -3 1q-21 1 -35 -17q-15 -18 -16 -58z" />
<glyph unicode="b" horiz-adv-x="790" d="M35 225q0 69 14 123q43 307 47 561q23 260 23 402q0 39 -2 57v7q0 41 33 73q36 36 83 41h8q43 1 73 -27q34 -30 36 -78q4 -50 4 -73q0 -112 -22 -387l-1 -16v2q1 7 0 -1q0 -5 -1 -14q8 2 24 2q113 0 240 -74q162 -92 162 -388v-21v-2q0 -79 -64 -187q-36 -59 -100 -119 q-32 -30 -123 -67q-33 -16 -94 -26.5t-109 -10.5h-2q-76 0 -137 39q-53 37 -74 90q-18 42 -18 94zM260 225h6q12 -1 23 -1q25 0 47 4q32 4 57 14.5t43 21t32.5 26t22 24.5t15.5 22l8 14q18 34 18 60v2q0 1 1 16.5t1 31t-1 38.5t-6.5 44t-14.5 42t-25 37.5t-38 25.5 q-48 21 -83.5 21t-47.5 -10l-11 -11q-6 -34 -17 -169.5t-24 -176.5q-6 -23 -6 -76z" />
<glyph unicode="c" horiz-adv-x="776" d="M39 473q0 201 88 336q56 83 115 127q68 53 155 53h9q84 0 188 -51q42 -20 57 -64q6 -19 6 -37q0 -25 -12 -49q-20 -42 -64 -57q-18 -6 -36 -6q-25 0 -49 12q-59 29 -90 29q-20 -3 -31 -12q-24 -14 -60 -70q-51 -76 -51 -197v-14q0 -60 10 -125q12 -59 25 -86 q11 -15 20 -22q23 -8 35 -9q55 -6 95 -6q43 0 74 8t73 31q27 17 56 17q15 -1 30 -5q45 -12 68 -53q15 -26 15 -54q0 -15 -4 -30q-12 -44 -52 -69q-120 -70 -254 -70h-6q-35 0 -117 8q-63 6 -115 33q-50 25 -88 74q-52 70 -74 192q-16 85 -16 166z" />
<glyph unicode="d" horiz-adv-x="858" d="M20 336q0 129 58 254q65 133 137 196q48 44 112 68q61 24 129 23h5h10q35 0 104 -21q35 -10 41 -12q15 129 43 301q4 26 13.5 81t13.5 81q8 39 8 67q0 13 -4 25q-6 18 -6 37q0 24 11 48q20 42 63 58q20 8 40 8q23 0 46 -11q42 -20 57 -64q19 -47 19 -101q0 -41 -13 -104 q-4 -29 -13 -83.5t-13 -78.5q-43 -261 -72 -567q-2 -30 -7 -92.5t-7 -92.5q-13 -136 -13 -180q0 -47 11 -104q2 -12 2 -23q0 -33 -19 -61q-26 -38 -71 -47q-8 -2 -23 -2q-60 0 -92 47q-128 -47 -236 -47q-92 0 -159 34q-87 48 -127 138q-48 105 -48 225zM246 336 q0 -74 26 -133q8 -19 25 -29t57 -10h9q81 0 192 49q4 0 4 2q1 29 5 83t5 75q3 31 8.5 94.5t8.5 95.5q1 6 2 19t2 20q-4 3 -10.5 8t-11 8.5t-5.5 4.5q-17 8 -49 18q-40 12 -49 12v2v-2h-4q-58 -2 -96 -35q-40 -34 -84 -124q-35 -75 -35 -158z" />
<glyph unicode="e" horiz-adv-x="851" d="M23 344q0 172 116 336q114 153 262 221q71 33 146 33q45 0 104 -19q60 -24 97 -69q57 -69 57 -156q-3 -125 -94 -213q-71 -63 -163.5 -100t-191.5 -37q-59 0 -108 14v-10v-20q3 -34 31 -62q29 -29 67 -35q12 -2 39 -2h5q91 0 247 72q22 10 45 10q20 1 40 -7 q44 -16 62 -58q11 -24 11 -48q0 -19 -7 -39q-16 -44 -59 -63q-62 -28 -104.5 -44.5t-110 -32t-129.5 -15.5q-37 0 -74 6q-109 15 -190 96q-84 84 -96 201q-2 12 -2 41zM336 565q6 -2 20 -2h4q46 0 104 23q60 24 93 57q10 7 16.5 22t6.5 25q0 2 -5 12q-2 3 -6 5q-1 0 -8.5 1 t-13.5 1q-25 0 -51 -11q-90 -41 -160 -133z" />
<glyph unicode="f" horiz-adv-x="735" d="M80 737q32 31 75 31h5q12 -2 35 -2q20 0 30 2q6 155 35 295q18 86 51 143q47 85 123 129q59 35 133 35q6 0 8 -2q56 0 101 -16q27 -10 54 -34t38 -46q7 -17 10.5 -78.5t5.5 -71.5q0 -2 -0.5 -6.5t-3.5 -15.5t-8 -20.5t-15 -18.5t-24 -12l-4 -2q-16 -5 -31 -5 q-25 0 -48 13q-37 21 -52 65q-7 21 -8 23q-1 0 -8 1t-13 1h-2q-15 0 -24 -6q-13 -9 -23 -21q-28 -34 -41 -100q-18 -91 -28 -225q55 6 129 6h16q47 0 80 -33q31 -32 31 -75v-5q0 -47 -33 -80q-32 -31 -75 -31h-5h-14q-73 0 -138 -10v-6q-4 -103 -8 -309q-2 -72 -6 -139 q-1 -13 -5.5 -29.5t-4.5 -48.5q0 -13 2 -21q0 -46 -33.5 -79t-79.5 -33t-79 32t-33 78v23q0 35 4.5 56t5.5 34q0 7 4 133q4 194 8 287h-22h-41q-46 2 -78 35q-31 32 -31 76q0 49 35 83z" />
<glyph unicode="g" horiz-adv-x="829" d="M-66 -477q-8 20 -8 40q0 22 10 45q19 43 62 60q20 7 40 7q21 0 42 -8q40 -16 59 -56q1 0 13 -4q30 -10 92 -10q77 0 151 16q65 14 76 25h2q0 1 0.5 2t1.5 4l2 6q6 14 12 63q21 185 31 322q-66 -37 -143 -37h-27q-80 7 -132.5 47.5t-100.5 112.5q-42 62 -60 121.5 t-20 134.5v43q1 69 17.5 113.5t60.5 103.5q17 22 38.5 58.5t42.5 63t50 46.5q104 71 237 71q37 0 78 -6q44 -7 84 -35q34 -21 60 -53q67 -78 67 -164v-6q0 -16 -2 -22q0 -477 -57 -940q-14 -102 -43 -156q-18 -35 -52 -63.5t-71 -42.5q-30 -11 -98 -31q-105 -23 -205 -23 q-70 0 -123 13q-71 14 -123 53q-48 35 -64 86zM266 418q6 -92 35 -131q7 -10 16.5 -25.5t13.5 -21t13.5 -11t24.5 -6.5q2 0 4.5 -1t3.5 -1q26 3 37 12q22 11 39 37q38 52 61 150q25 117 31 231v6q0 20 -25 29q-5 2 -37 2q-63 0 -110 -33q-15 -10 -23.5 -21t-22.5 -32.5 t-30 -42.5q-31 -90 -31 -141z" />
<glyph unicode="h" horiz-adv-x="776" d="M59 1438q0 46 33 79t80 33q44 0 78.5 -44.5t36.5 -94.5v-463q52 19 102 19q96 0 161 -55t112 -160q86 -183 86 -426v-37q0 -5 -2 -35.5t-4.5 -76.5t-2.5 -89v-39v-5q-1 -43 -31 -75q-32 -34 -79 -35h-2q-46 0 -78.5 32.5t-34.5 78.5v43q0 54 5 104t5 97q0 224 -65 368 q-31 66 -41 75t-29 9q-60 -4 -100 -73q0 -95 -1 -248.5t-1 -269.5q0 -2 1 -11t1 -14q-6 -60 -17 -88q-13 -31 -41.5 -49.5t-60.5 -18.5q-19 0 -45 11q-40 18 -58 58q-10 23 -10 45q0 18 6 36v6v22q-1 255 -2 645.5t-2 645.5z" />
<glyph unicode="i" horiz-adv-x="344" d="M43 96q18 134 18 371v43v2v59q0 53 -2 76q0 10 -1 21t-2 18t-1 8q-7 19 -7 38q0 24 11 47q19 42 62 59q20 8 40 8q22 0 45 -10q43 -19 60 -62q10 -27 13 -55q4 -28 4 -49q2 -33 2 -99v-55v-4v-45q0 -254 -19 -399q-4 -42 -36 -70.5t-74 -28.5q-11 0 -15 2q-46 3 -75 41 q-24 31 -24 68q0 8 1 16zM55 692zM82 1108q2 34 24 61q28 37 74 43q8 1 17 2q36 0 67 -24q21 -14 37 -43q12 -27 12 -57q0 -46 -32.5 -79.5t-79.5 -33.5q-34 0 -62.5 19t-40.5 48q-16 27 -16 58v6z" />
<glyph unicode="j" horiz-adv-x="366" d="M-258 -510q9 46 48 72q29 18 61 18q12 0 24 -2q30 -6 55 -6q38 1 59 10.5t42 32.5q41 47 63 154q14 61 18 117q1 29 1 50q0 18 -1 30l-3 26q2 36 2 72v24q-1 48 -3 84l-2 35q0 177 -30 422q0 4 -2 8v10q-1 4 -2 14t-2 15q0 6 -2 20t-2 19q-15 24 -15 52q0 6 1 13 q4 35 28 62q8 11 31 24q26 15 55 15q28 0 65 -21q3 -2 27 -26q8 -11 14 -29q8 -18 11 -31q1 -8 4 -24.5t4 -24.5q2 -12 3.5 -28t2.5 -26.5t2 -13.5q27 -216 27 -479q0 -35 -1 -104.5t-1 -104.5q0 -14 -0.5 -71t-3 -102t-7.5 -105q-5 -18 -14 -47t-38 -88.5t-58 -83.5 q-45 -57 -115.5 -91t-150.5 -34h-7q-42 0 -100 10q-45 9 -71 49q-19 29 -19 61q0 11 2 23zM8 1182q6 42 35 71q32 32 76 35h8q41 0 73 -28q35 -30 38 -76v-8q1 -5 1 -11q0 -39 -34 -73q-35 -33 -82 -33h-2h-12q-46 5 -75 41q-26 32 -26 71v11z" />
<glyph unicode="k" d="M41 1274v90v6q-1 47 31 92q34 48 78 49h7q43 1 73 -23q32 -26 32 -71q3 -133 12.5 -384t12.5 -365q29 29 91.5 90t106.5 106l54 51q30 27 63 27h8q37 -4 72 -37q32 -34 32 -80t-32 -80q-45 -45 -141.5 -139t-141.5 -139q43 -82 134 -205t135 -209q13 -25 13 -51 q0 -17 -5 -34q-14 -44 -55 -66q-26 -13 -52 -13q-31 0 -58 16t-42 44q-31 60 -91.5 139.5t-90.5 138.5q-1 -25 -2 -73t-2 -72v-2v-1v1v1v1v1v2v2v2v2v3v8v-104q0 -47 -32.5 -80t-78.5 -33q-47 0 -80 33t-33 80q0 16 -1 50.5t-1 53.5v4v1v-1v-1v-2v-2v-2v-9q6 172 6 332 q0 187 -10 473t-12 379z" />
<glyph unicode="l" horiz-adv-x="372" d="M61 37q0 70 1.5 126.5t5.5 139t6 127.5q0 6 9 245.5t9 321.5q0 16 -2 64t-2 88.5t1.5 96.5t9 99t20.5 82t37 60.5t57 21.5q48 0 81.5 -39t33.5 -96q0 -166 -21 -632q-20 -444 -20 -627v-17v-20q0 -29 -2 -51q-3 -30 -14 -61.5t-34.5 -48.5t-60.5 -17q-47 0 -81 40t-34 97 z" />
<glyph unicode="m" horiz-adv-x="1118" d="M56 239q0 103 1 136q0 28 6 110q-2 4 -2 15v14q0 80 6.5 232.5t6.5 216.5q0 46 32 78t78 32q37 0 66.5 -34t30.5 -81q2 1 8.5 14.5t20.5 32t36 31.5q3 2 7 5t5 3.5t5 1.5t8.5 1h13.5q51 0 115 -33q46 -24 75 -84q2 2 15.5 26t21.5 31q19 13 36 32t31 25.5t46 6.5 q73 0 131 -31q108 -57 160 -195q31 -82 39 -198q12 -181 12 -404q0 -102 -2 -145q1 -46 -33 -78q-32 -31 -75 -31h-5q-46 1 -77 34t-31 79q2 41 2 141q0 217 -12 389q-3 74 -25 138q-22 57 -57 75q-8 4 -27 4q-35 0 -47 -63q-4 -18 -4 -52q0 -8 -1 -18q-1 -31 1 -80 q2 -65 2 -104q6 -156 6 -293v-145q0 -9 -4 -21q-1 -44 -33.5 -74t-75.5 -30h-6q-45 1 -76 35q-28 31 -28 71v8v101v28q-1 50 -3 106q-4 74 -3 120q0 61 2 96q-2 41 -6 94q-4 90 -9 115q-5 47 -22 76q-16 16 -47 6q-26 -13 -45 -41q-29 -35 -33 -125q-14 -178 -13 -266 q-1 -29 -2.5 -135t-3.5 -185q-1 -45 -33 -75.5t-77 -30.5h-4q-46 2 -77 35q-30 32 -30 76z" />
<glyph unicode="n" horiz-adv-x="745" d="M39 940q0 21 2 31q4 26 12 45q13 29 41 49q29 20 62 20q11 -1 22 -3q46 -8 72 -46q15 -24 18 -53q22 22 42 32.5t55 14.5q8 1 16 1q27 -1 51 -9q30 -10 43 -20t42 -38q6 -5 9 -8q13 -12 23.5 -24t20.5 -27.5t15.5 -24t15.5 -27.5t13 -24q31 -57 49.5 -120.5t24 -106 t10.5 -110.5q7 -115 7 -193q0 -89 -7 -215q-2 -46 -35 -76q-30 -28 -71 -28h-8q-46 2 -78 36q-29 31 -29 72v8q6 102 6 203q0 90 -6 176q-11 189 -57 273q-20 36 -33 49q-27 27 -43 4q-17 -22 -31 -60q-32 -86 -32 -288v-2v-19q0 -28 1 -100.5t1 -108.5q4 -126 4 -137v-11 q1 -29 -13 -55q-16 -30 -49 -45q-27 -12 -49 -12q-38 0 -63 21q-21 15 -27 24q-2 2 -14 27q-4 10 -4 18q-2 6 -2 10v7q-3 6 -3 10v29q0 11 -1 42.5t-1 51.5q-4 144 -4 227v12q0 33 1 90.5t1 88.5q0 95 -6 180q-1 3 -2 10t-2.5 21t-3.5 24q-6 81 -6 84z" />
<glyph unicode="o" horiz-adv-x="757" d="M33 334q0 73 20 223q34 214 117 336q2 3 10 13.5t13 16t14.5 16t18.5 18t22 17t28 17.5q38 19 78 19q23 0 35 -4q8 20 14 30q27 40 73 50q12 3 24 2q33 0 63 -19q86 -57 117 -174q22 -77 22 -184q0 -60 -12 -183q-11 -117 -49 -227q-54 -156 -143 -238q-80 -77 -195 -77 h-2q-47 0 -78 10q-64 16 -106 61q-34 37 -56 93q-28 68 -28 184zM262 334q0 -44 8 -84q3 -13 13 -33q8 -2 18 -2q19 0 43 21q27 24 55 81q25 52 42 118.5t20 113.5q10 80 10 142v20q1 11 1 22q0 41 -9 82q-35 -41 -92 -41q-2 -2 -6.5 -7t-6.5 -7q-54 -75 -77 -238 q-19 -143 -19 -188z" />
<glyph unicode="p" horiz-adv-x="796" d="M56 542q1 87 12 158.5t37 139t65.5 114.5t102 77t143.5 34h13q59 0 115 -25q61 -29 107 -86q105 -119 105 -291v-22q-3 -155 -90 -293q-44 -64 -104 -105.5t-130 -45.5q-36 -2 -57 8.5t-28.5 25.5t-22.5 39.5t-35 42.5q4 -168 6 -178q5 -48 19.5 -146t19.5 -149 q1 -8 1 -15q0 -37 -21 -69q-25 -39 -66 -49q-2 0 -7.5 -1t-7.5 -1h-5q-33 0 -58 23q-27 26 -31 67q-5 41 -16 114t-22.5 141.5t-22.5 157.5t-18 168q-5 64 -5 134q0 16 1 32zM266 518q3 0 9 1t8 1h6q46 0 71 -41q42 -59 78 -59q39 4 74 57q44 63 47 154v10q0 88 -53 152 q-42 47 -96 47q-74 -7 -107 -95q-34 -90 -37 -225v-2z" />
<glyph unicode="q" horiz-adv-x="804" d="M55 590q0 135 80 239q73 91 176.5 142.5t220.5 62.5q32 4 54 4q43 0 78 -16q51 -22 73 -74q12 -22 19 -53q4 -16 4 -47q0 -38 -8 -88q-7 -44 -7 -51q-9 -435 -30 -865q-1 -46 -35 -78t-80 -32q-1 0 -2 1t-2 1q-47 1 -80 36q-31 34 -31 78v5q9 186 15 358q-46 -24 -92 -29 q-24 -4 -37 -4q-109 0 -193 84q-58 58 -90 148q-33 101 -33 178zM287 590q0 -50 18 -103q13 -40 37 -61q16 -14 29 -14h6q23 3 45 28q28 31 37 76q12 47 53 70q2 43 2 127q2 36 10 80v8q-62 -9 -119 -40t-90 -75q-28 -35 -28 -96z" />
<glyph unicode="r" horiz-adv-x="663" d="M41 12q1 108 4 204.5t8.5 224.5t7.5 198q9 254 9 281q0 47 34.5 80.5t81.5 33.5q42 0 73.5 -27t39.5 -67q103 64 205 64q18 0 45 -3q49 -10 69 -18q45 -25 68 -55q21 -35 21 -74v-8q-3 -48 -39 -80q-33 -30 -76 -29h-8q-42 3 -76 37h-4q-39 0 -109 -47q-31 -19 -61 -59 q-39 -49 -44 -113v-10q-18 -426 -20 -533q0 -47 -33.5 -80.5t-80.5 -33.5t-81 33.5t-34 80.5z" />
<glyph unicode="s" horiz-adv-x="675" d="M-6 251q0 49 30 84q30 36 74 38h7q41 1 71 -31q32 -34 35 -86q3 -59 28 -105t70 -67q24 -12 46 -12q18 0 35 8q37 20 40 76v9q0 39 -16 75q-18 40 -51.5 73t-65.5 57.5t-75 53.5t-62 45q-77 65 -109 137q-24 56 -24 121q0 77 30 147q34 79 117 148q62 49 158 49 q126 -2 220 -102q78 -83 78 -191q0 -22 -3 -45q-22 -140 -74 -158q-11 -4 -22 -4q-33 -1 -62 31q-39 42 -39 92q-1 56 -43 118q-39 59 -79 59l-15 -2q-25 -8 -45 -42q-15 -25 -15 -50.5t11 -48t31 -46t44 -42.5t52 -38.5t51.5 -34t45.5 -28.5t32 -23q94 -86 127 -174 q35 -93 35 -180q0 -166 -150 -250q-71 -38 -146 -42q-10 -1 -21 -1q-63 0 -119 24q-64 28 -116 77q-54 50 -84 123q-32 78 -32 158z" />
<glyph unicode="t" horiz-adv-x="657" d="M-37 893q1 47 37 80q33 31 77 31h5q12 -3 24 -3q5 0 31 -0.5t49 -0.5t33 1q1 15 4 76.5t6 106t7 61.5q10 38 16 53q1 2 5.5 10t8.5 13.5t12 13.5t19 15q32 20 65 20l17 -2q47 -6 75 -44q24 -32 24 -69q0 -8 -1 -16q-3 -24 -16 -47q-2 0 -2 -2q-1 -9 -3 -81t-3 -87 q65 6 129 6h14q47 0 81 -35q32 -33 32 -77v-5q-2 -47 -37 -80q-34 -32 -79 -32h-3h-8q-36 0 -138 -8q-2 -57 -2 -179q0 -332 11 -546q1 -17 2.5 -34.5t2.5 -28t1 -11.5q1 -9 1 -18q0 -36 -22 -67q-28 -38 -76 -46q-6 -2 -18 -2q-42 0 -74.5 28t-38.5 70q-5 31 -8 96 q-3 52 -6 154q-6 175 -6 405q0 27 1 80t1 78q-11 -1 -57.5 0.5t-49.5 1.5h-32q-50 2 -82 38q-30 32 -29 75v8z" />
<glyph unicode="u" horiz-adv-x="815" d="M59 670v96q0 69 7 117l14 49q14 28 33 45q32 31 77 31h4q48 -2 80 -37q25 -25 30 -62q1 -9 1 -17q0 -27 -12 -50v-11q-4 -32 -4 -65q0 -8 1 -20t1 -15v-10v-45q0 -122 6 -211q11 -166 37 -208q12 -18 26 -19h10q34 0 60 17q30 20 45 50t24 60.5t11 52.5l2 22 q5 22 8.5 41.5t4.5 41.5l1.5 33t0 36.5t-0.5 32.5q0 124 -41 223q-10 22 -10 45q-1 22 9 43q18 44 63 63q22 9 44 9l44 -9q44 -18 63 -61q28 -67 43 -154t15 -159q0 -157 -35 -263q-4 -15 -18.5 -49.5t-26.5 -62.5l-12 -27q-48 -98 -115 -160q-8 -8 -24 -19q-15 -12 -67 -30 q-46 -17 -97 -16h-11h-8q-70 3 -123 49q-43 37 -65 90q-43 80 -64 201q-29 157 -29 330z" />
<glyph unicode="v" horiz-adv-x="753" d="M47 231q0 78 6 223.5t6 213.5q0 63 -2 96q-16 28 -15.5 56t15.5 57q18 24 25 30q33 33 82 33q54 0 90 -41q11 -14 22 -37l7 -16v-19q6 -53 6 -159q0 -77 -6 -213t-7 -189q44 34 70 60h2q59 62 103 149q43 88 43 152v8v6q0 66 -15 139q-5 34 -17 64.5t-18 34.5 q-37 29 -41 77v11q0 41 25 73q31 38 79 42q6 1 13 0q40 0 72 -25q48 -43 76 -107q20 -47 34 -110q19 -86 23 -191v-14q0 -117 -68 -260q-58 -119 -145 -209q-17 -17 -29 -27q-3 -2 -18.5 -16t-24.5 -21q-53 -46 -110 -86q-56 -38 -80 -49q-43 -16 -70 -16t-41 6 q-29 11 -49 31t-29 43q-6 15 -6 24q-2 8 -3.5 19t-2.5 14v41q-2 33 -2 102z" />
<glyph unicode="w" horiz-adv-x="909" d="M2 895q0 50 33 83.5t82 33.5h3q46 0 78 -32q34 -34 33 -81q1 -49 5.5 -77.5t16.5 -74t21 -94.5l31 -125q0 -4 5.5 -33t8.5 -30q4 -3 8 13q4 14 13 64q9 58 14 72l2.5 15t8.5 32.5t16 41t26 32t37 13.5t37 -12.5t27.5 -28t18.5 -33t11 -28.5l3 -11q7 -13 20 -55 t24.5 -74.5t18.5 -30.5l2 53q2 6 2 19q28 233 37 291v12q0 4 2 6v16q3 16 6 46q3 17 5.5 36.5t5.5 36.5q9 50 12 60q7 20 10 26l4 7q3 8 9.5 15.5t17.5 16.5q35 25 71 25h4q22 0 44 -10q24 -11 36 -25q19 -19 23 -35q1 -2 10 -29q1 -5 1 -11q0 -7 -2 -17q-2 -18 -7 -40.5 t-6 -27.5q-2 -15 -6.5 -49t-5.5 -47q-29 -217 -41 -330q-25 -224 -35 -379q0 -6 -1 -16t-4.5 -35.5t-9 -45t-16 -36.5t-24.5 -18q-22 -3 -54.5 14t-53.5 35l-22 18q-42 31 -90 107q-9 15 -19.5 43.5t-18.5 47.5t-15 19t-18.5 -29t-27.5 -73.5t-26 -65.5q-2 -5 -5 -13.5 t-13.5 -30t-22 -37.5t-29.5 -29.5t-36 -13.5q-28 1 -55 31.5t-40 60.5l-12 30q-42 80 -69 195q-29 110 -41 186q-7 38 -28.5 118.5t-35 153t-14.5 140.5v-2z" />
<glyph unicode="x" horiz-adv-x="806" d="M10 850q-7 19 -7 38q0 22 9 44q12 33 41 53q29 23 70 23q12 -1 22.5 -3t16 -4.5t12 -5.5t8.5 -4q14 -7 23 -16q6 -5 13.5 -13.5t8.5 -9.5q18 -18 21 -24q11 -13 69.5 -98.5t65.5 -94.5q5 8 35 53q79 122 182 252q29 38 77 42q6 1 12 0q41 0 73 -27q37 -29 41 -77v-11 q0 -41 -27 -74q-79 -96 -166 -229q-70 -111 -92 -144q80 -123 127 -203l31 -47q32 -48 49 -85t27 -83q2 -12 2 -23q0 -33 -20 -63q-26 -40 -72 -49q-8 -2 -23 -2q-41 0 -73.5 26t-39.5 66q-1 9 -5 19.5t-13 26t-15 26t-21.5 34.5t-22.5 36q-9 16 -29 47.5t-29 46.5 q-16 -31 -45.5 -105t-48.5 -114q-13 -30 -42 -48t-62 -18q-26 0 -50 12q-43 20 -59 66q-7 19 -7 37q0 26 13 51q15 31 44.5 105t49.5 116q24 52 64 123q-127 204 -176 262q-4 4 -4 6q-2 0 -2 2h-3q-37 22 -53 62z" />
<glyph unicode="y" horiz-adv-x="747" d="M61 723q0 39 1.5 81.5t2.5 70.5t1 34q0 47 33.5 81t80.5 34t81 -34t34 -81q0 -10 -1 -73t-1 -113q0 -6 -1.5 -56t-1.5 -79.5t0.5 -81.5t5.5 -84.5t13 -66t23 -47.5t35 -9l43 6q14 36 18 64q8 40 15.5 140.5t7.5 152.5q0 8 -1.5 56.5t-2 80t1.5 55.5q8 53 58 76 q31 15 63 15q19 0 39 -5q52 -15 67 -57q10 -25 10 -365q0 -63 -10.5 -164t-11.5 -123q-10 -177 -18.5 -521.5t-16.5 -508.5q-3 -46 -36 -77t-79 -31h-6q-52 3 -103.5 41t-50.5 82q6 123 35.5 396.5t34.5 418.5q-10 -2 -135 -2q-57 0 -107 37q-31 23 -57 69q-34 63 -47 152 q-17 90 -17 436z" />
<glyph unicode="z" horiz-adv-x="692" d="M4 135q0 104 72 236q23 44 99 169t108 175q11 18 15.5 23t11.5 10.5t18 17.5l18 18q-36 -4 -51 -4q-7 -1 -20 -1q-25 0 -73 3q-70 4 -71 4h-5q-44 0 -78 31q-36 33 -36 80v5q0 44 31 78q33 36 80 36l33 -2q34 -3 64 -4.5t56 0.5q58 6 134 6q48 0 75 -4q43 -3 82 -21 q47 -23 68 -63q16 -32 16 -62v-10q0 -11 -1.5 -21.5t-3 -18t-5 -17.5t-5.5 -14.5t-7 -15t-6 -13.5q-15 -28 -50 -66q-15 -17 -84.5 -120t-85.5 -119l-30 -37q-68 -104 -94 -154h-3q185 42 345 53h8q42 0 75 -28q36 -31 39 -78v-8q0 -41 -28 -75q-31 -36 -78 -40 q-76 -6 -169.5 -22t-151 -28.5t-169.5 -39.5q-28 -9 -51 -9q-30 0 -51 15q-17 12 -26.5 33.5t-10.5 36.5v16q-4 16 -4 49z" />
<glyph unicode="{" horiz-adv-x="520" d="M45 496l39 65q32 58 45 105q10 48 10 102q0 27 -7 109t-7 129q0 119 41 208l6 15l10 12q30 36 82 53q32 11 68 11q26 0 49 -5q2 -1 12 -4.5t15.5 -5.5t15 -7.5t18.5 -12.5q37 -29 42 -76t-25 -84q-38 -50 -99 -43q-6 -27 -6 -61q0 -29 7 -110.5t8 -127.5q0 -90 -19 -162 q-13 -48 -41 -106q6 -15 6 -27q9 -46 9 -92q0 -41 -5.5 -153.5t-5.5 -149.5q0 -82 15 -125q12 -36 32 -47q17 -12 56 -15q47 -1 79.5 -36t30.5 -82q-3 -46 -36 -78.5t-78 -32.5q-4 0 -6 2q-93 3 -162 43q-68 42 -107 111q-53 97 -53 260q0 50 5 163t5 140q0 17 -2 37l-2 20z " />
<glyph unicode="|" horiz-adv-x="370" d="M61 -178q0 256 7.5 704.5t7.5 647.5q0 102 -6 204q-2 47 29.5 82.5t78.5 38.5t83.5 -29t37.5 -79q6 -108 6 -217q0 -213 -7 -662t-7 -690v-29q1 -47 -32 -81t-81 -36h-2q-47 0 -81 34t-34 81v31z" />
<glyph unicode="}" horiz-adv-x="808" d="M106 -260q5 47 41.5 77.5t83.5 26.5h5q21 0 34 13q4 6 13 37q4 24 4 59v94v6q0 172 8 244q7 74 22 127q4 17 17 51q-2 4 -5 14.5t-5 14.5q-16 58 -19 92q-6 52 -6 100q0 53 7 166t7 154v8q0 75 -12 96l-2 6q-37 -26 -80 -20q-47 6 -76.5 43.5t-23.5 83.5q3 42 37 80 q29 27 75 41q20 4 50 4q27 0 51 -4q64 -9 119 -54q60 -55 79 -145q13 -61 13 -129v-10q0 -58 -7.5 -171.5t-7.5 -148.5q0 -21 4 -75q6 -30 11 -50q2 -5 4.5 -12t3.5 -8q0 -1 1 -2t1 -2l61 -72l-61 -76q-9 -9 -18 -51q-19 -90 -19 -299v-4v-92q0 -71 -10 -125 q-18 -74 -68 -129q-81 -81 -202 -84q-15 0 -23 2q-47 3 -78.5 39.5t-28.5 83.5zM553 547z" />
<glyph unicode="~" horiz-adv-x="915" d="M64 584q-5 47 24 84q33 42 82 67q47 23 96 23q45 0 125 -29q12 -4 29 -11t27.5 -10.5t17.5 -5.5q49 -14 84 -14q26 0 53 10q29 14 57 45q31 35 79 38t83 -29q35 -31 37.5 -79t-29.5 -83q-62 -69 -131 -101q-61 -30 -147 -30h-2q-65 0 -143 20q-24 7 -99 37q-27 10 -37 10 q-2 0 -2 -2q-31 -37 -78 -42t-84 24q-37 31 -42 78z" />
<glyph unicode="&#xa1;" horiz-adv-x="423" d="M4 -463q12 210 65.5 595.5t59.5 436.5q4 43 37 72t76 29h14q46 -6 75 -43t25 -84q-14 -120 -44 -326t-50.5 -375.5t-28.5 -316.5q-3 -47 -38 -79t-82 -30q-47 3 -79.5 39t-29.5 82zM127 977q4 43 37 71.5t76 28.5h14q51 -8 86 -43q39 -42 35 -92q0 -23 -8 -51 q-15 -44 -57.5 -65.5t-88.5 -6.5q-58 19 -74 76q-26 37 -20 82z" />
<glyph unicode="&#xa3;" horiz-adv-x="921" d="M-2 98q0 32 18 74q5 12 11 18q5 15 30.5 60.5t45 96.5t22.5 99q-40 5 -68 37.5t-28 75.5q0 47 32 82t76 35h29q6 39 65 377q16 98 62 166q58 92 151 100q14 2 39 2q85 0 140 -39q31 -20 52 -53t27 -70q8 -46 -17.5 -86t-68.5 -49q-38 -7 -70.5 11.5t-47.5 54.5q-2 0 -7 1 t-8 1q-2 0 -5 -1t-5 -1q-1 0 -2 -2q-1 -1 -1 -1.5t-1 -1.5q-17 -25 -25 -73q-6 -34 -20 -116t-25 -145.5t-12 -70.5q30 0 93 1t95 1q44 0 76.5 -34t32.5 -81t-32.5 -80.5t-76.5 -33.5q-75 0 -227 -4q-1 -65 -29 -132t-59 -110q147 6 236 6q44 0 118 -4q72 -4 95 -10 q43 -12 65.5 -53t11.5 -87q-10 -46 -48.5 -70.5t-82.5 -13.5h-2q-2 2 -12 2q-12 3 -37 3q-31 2 -108 2q-59 0 -150.5 -2.5t-101.5 -2.5q-14 0 -41 -6q-2 0 -27.5 -4t-42.5 -4q-21 0 -45 8q-42 9 -68 49q-22 34 -22 78z" />
<glyph unicode="&#xa5;" horiz-adv-x="784" d="M-59 1231q0 27 10 47q7 17 21.5 33.5t31.5 23.5q22 11 45 11q21 0 49 -11q3 -3 9 -6.5t8 -5.5q33 -23 43 -66q1 -3 20 -36q9 -13 39.5 -63.5t50.5 -80.5q31 -48 99 -151q127 165 196 280q42 65 58 105q19 44 60.5 61.5t82.5 -2.5q40 -19 56.5 -62.5t-1.5 -88.5 q-26 -62 -74 -138q-44 -72 -104 -155q-54 -80 -164 -219q16 0 48.5 -1t49.5 -1q45 -3 75.5 -38.5t27.5 -82.5q-1 -47 -35 -79.5t-78 -29.5q-15 0 -43 1t-41 1v-16v-25h103q44 0 76 -33.5t32 -80.5t-31 -81t-75 -34h-105q0 -15 1 -57.5t1 -79.5q0 -47 -32 -81t-76 -34 t-76.5 34t-32.5 81q0 100 -2 137h-78q-44 0 -75.5 34t-30.5 81q0 47 31 80.5t77 33.5h76v25v12q-24 0 -74 -4h-6q-42 0 -73.5 32t-32.5 77q-3 47 26.5 83t73.5 37q46 4 70 4q-198 305 -230 357q-35 56 -59 102q-2 3 -5.5 11.5t-6.5 15.5q-6 24 -6 43z" />
<glyph unicode="&#xa7;" horiz-adv-x="944" d="M61 584q0 63 31 123q40 72 111 120q15 12 33 21q-37 73 -37 153q0 135 90 228q45 48 109 77t137 33q10 2 26 2q88 0 176 -43q94 -50 140 -127q38 -59 38 -135q0 -43 -16 -96q-17 -43 -59.5 -63t-85.5 -5q-44 17 -64.5 59.5t-5.5 86.5q4 8 4 18q0 9 -6 21q-9 13 -27 26 q-43 31 -94 31h-8q-64 -5 -100 -41q-27 -30 -27 -72q0 -60 51 -108q7 -9 31 -25q72 -25 121 -61q12 -8 18 -14q114 -60 168 -125q69 -86 66 -191v-26q-7 -84 -41 -140q-30 -54 -88 -94q-3 -2 -10.5 -6t-10.5 -6q47 -44 76 -80q76 -101 76 -215q0 -43 -13 -90 q-17 -65 -56 -117t-91 -82q-95 -57 -217 -57q-109 0 -205 41q-109 47 -168 116q-52 59 -63 129q-7 47 19.5 86t72.5 48q46 8 85 -19.5t46 -73.5q0 -7 14 -24q17 -21 45 -35q67 -41 154 -41q60 0 98 23q19 12 29.5 25.5t19.5 39.5q4 24 4 31q0 25 -18 55q-15 34 -57 70 q-64 59 -197 137q-96 62 -123 86q-82 73 -121 123q-80 105 -80 203zM289 584q-2 -6 5.5 -24.5t24.5 -39.5q28 -35 93 -92q18 -18 61 -43q3 -2 43 -27q57 20 84 33q31 15 43 35q10 15 10 41q2 4 2 10q-2 28 -16 47q-22 26 -68 51q-22 14 -75 40t-80 42q-8 2 -23 2 q-36 0 -63 -18q-25 -19 -37 -43q-4 -6 -4 -14z" />
<glyph unicode="&#xa8;" horiz-adv-x="626" d="M66 1208q0 9 6 33l6 12q19 37 58.5 50.5t76.5 -5.5q33 -14 47 -49q31 -61 -6 -110q-30 -41 -82 -41q-35 0 -61 20q-22 18 -33 39q-12 24 -12 51zM358 1200v17q0 41 30 70.5t71 29.5t71.5 -29.5t30.5 -70.5v-17q0 -42 -30 -72t-72 -30q-41 0 -71 30t-30 72z" />
<glyph unicode="&#xa9;" horiz-adv-x="1323" d="M59 707q0 134 52.5 264.5t150.5 240.5q70 76 164 129q116 61 225 64q55 0 111 -21l12 -6q10 2 29 2q132 -13 223 -69q87 -53 145 -144q80 -138 84 -370q-2 -74 -10 -187q-21 -216 -182 -377q-76 -77 -176 -121t-213 -44h-2q-153 0 -293 86q-155 92 -238.5 240t-81.5 313z M289 707q3 -232 209 -357q86 -53 176 -53q127 0 227 100q102 99 115 234q8 114 8 166q0 123 -27 202q-28 76 -90 115q-54 30 -127 37q-24 3 -41 12q-35 -4 -59 6q-20 5 -29 5h-2q-50 0 -112 -35q-67 -37 -103 -80q-145 -161 -145 -352zM379 594q0 93 47 203q46 105 102 178 q48 58 97 88q44 27 90 27q35 3 71 -19q35 -18 54 -47q27 -39 18.5 -85.5t-47.5 -74.5q-43 -27 -90 -18q-7 -7 -19 -23q-50 -67 -75 -147q-7 -17 -17 -58q40 13 72 31q41 21 86.5 6t67.5 -57q22 -43 6.5 -88.5t-58.5 -67.5q-121 -59 -204 -59q-47 0 -86 16q-43 19 -70 54 q-45 57 -45 141z" />
<glyph unicode="&#xab;" horiz-adv-x="1136" d="M63 457q2 54 35 92q18 23 43 41q36 29 95 59q35 19 95 69.5t77 57.5q18 6 26 10q2 0 6 2t11 3q46 9 86 -17.5t49 -73.5q9 -43 -13 -81t-63 -50h-2q-2 -2 -14 -6q-3 -2 -20.5 -18t-27.5 -21v-4q-11 -5 -33.5 -27.5t-35.5 -27.5q12 -5 34 -27t33 -28q64 -37 115 -109 q26 -38 16.5 -85t-49.5 -73q-30 -18 -63 -18q-60 0 -94 49q-3 0 -7 4l-20 19q-21 19 -31 24q-17 8 -57 37t-61 39q-60 31 -84 57q-33 33 -43 78q-3 21 -3 25zM547 446q2 55 35 93q18 23 43 41q38 30 94 59q35 19 95 69.5t77 57.5q21 7 27 10q2 0 5.5 1.5t10.5 2.5 q46 9 86 -17t49 -73q9 -43 -13 -81t-63 -50h-2q-2 -2 -14 -6q-3 -2 -20 -18t-27 -21v-4q-11 -5 -34 -27.5t-36 -27.5q12 -5 34.5 -27.5t33.5 -28.5q64 -36 114 -108q26 -38 17 -85t-49 -73q-30 -18 -64 -18q-60 0 -94 49q-2 0 -6 4l-20 19q-21 19 -31 24q-17 8 -57.5 37 t-61.5 39q-60 31 -84 57q-33 33 -43 78q-2 14 -2 24z" />
<glyph unicode="&#xad;" horiz-adv-x="747" d="M55 549q0 47 34 81t81 34h410q47 0 80.5 -34t33.5 -81t-33.5 -81t-80.5 -34h-410q-47 0 -81 34t-34 81z" />
<glyph unicode="&#xae;" horiz-adv-x="1312" d="M59 713q0 134 52.5 265t150.5 241q70 76 164 129q114 60 225 63q58 0 111 -20q2 -1 6 -3.5t6 -3.5q10 2 29 2q133 -13 221 -69q89 -53 147 -143q82 -141 82 -371q0 -69 -8 -187q-21 -215 -182 -376q-76 -77 -176.5 -121.5t-212.5 -44.5h-2q-153 0 -293 86 q-155 92 -238.5 240t-81.5 313zM289 713q3 -232 209 -357q86 -53 176 -53q127 0 227 100q102 99 115 234q8 114 8 166q0 126 -29 203q-24 74 -88 114q-54 30 -127 37q-24 3 -41 12q-35 -4 -59 7q-16 4 -29 4h-2q-50 0 -112 -35q-64 -36 -105 -80q-143 -162 -143 -352z M426 682q4 138 16 207q1 7 4 25.5t4 22t4 16.5t6 17.5t8.5 15.5t12.5 20t17 22q22 31 73.5 56t98.5 26h12q154 -4 219 -61q46 -42 64.5 -74.5t19.5 -91.5q0 -3 -1 -14t-1 -17q-9 -58 -43 -100q-36 -45 -78 -64q-5 -2 -15.5 -6t-15.5 -6q5 -10 17 -31.5t16 -30.5 q16 -29 23 -36q35 -29 40 -75.5t-24 -84.5q-29 -37 -76 -42.5t-84 23.5q-17 14 -33 43t-30 63t-18 42q-3 3 -3 4v-4q9 -52 -15.5 -118t-68.5 -73q-6 -2 -20 -2q-40 0 -73 27t-40 68q-13 76 -16 233zM627 778q20 -10 85 15t68 53q4 48 -49.5 70t-75.5 12q-13 -8 -27.5 -74 t-0.5 -76z" />
<glyph unicode="&#xaf;" horiz-adv-x="643" d="M45 1217q0 40 29 68t69 28h355q40 0 69 -28t29 -68t-29 -68.5t-69 -28.5h-355q-40 0 -69 28.5t-29 68.5z" />
<glyph unicode="&#xb0;" horiz-adv-x="536" d="M33 1180q0 58 24 102q28 52 78 82q14 8 29 12q18 18 39 23q37 12 78 12q52 0 97.5 -24t74.5 -62q53 -70 53 -164q0 -130 -96 -200q-62 -43 -127 -43q-106 3 -179 83q-71 78 -71 179zM205 1180q-2 -13 5.5 -31t20.5 -31q22 -28 52 -28q18 4 26 10q25 17 25 61q0 37 -19 60 q-15 18 -34 18q-5 0 -29 -4q-2 -2 -8 -2q-5 -7 -15 -14q-11 -6 -20 -19q-4 -12 -4 -20z" />
<glyph unicode="&#xb1;" horiz-adv-x="778" d="M68 254q0 47 33.5 81t80.5 34h90v61h-90q-47 0 -80.5 34t-33.5 81t33.5 80.5t80.5 33.5h90v91q0 47 34 80.5t81 33.5t81 -33.5t34 -80.5v-91h90q47 0 81 -33.5t34 -80.5t-34 -81t-81 -34h-90v-61h90q47 0 81 -34t34 -81t-34 -81t-81 -34h-410q-47 0 -80.5 34t-33.5 81z " />
<glyph unicode="&#xb4;" horiz-adv-x="446" d="M49 1151q-15 38 2.5 77t57.5 54q40 13 114 94q29 29 72 30t72 -28q31 -29 31 -71.5t-29 -71.5q-68 -71 -107 -99q-39 -27 -82 -44q-21 -7 -37 -7q-30 0 -56 18t-38 48z" />
<glyph unicode="&#xb6;" horiz-adv-x="1234" d="M166 952q0 69 25 126.5t62.5 94t87 63t94.5 38.5t89 16q7 1 24 2t25 2q6 -2 23 -2q246 6 250 6q31 0 57 -16q34 -9 55 -37t21 -63v-6q0 -129 3 -348t3 -353v-4q0 -61 -3 -292t-3 -281v-60q1 -43 -28 -73.5t-72 -32.5h-2q-43 0 -73 29.5t-32 72.5v64q0 55 3 285.5t3 285.5 v6q0 138 -3 358.5t-3 256.5q-8 0 -33.5 -1.5t-33.5 -1.5v-47q-7 -35 -7 -47q-2 -98 -1.5 -569t-6.5 -569q-3 -41 -33 -70t-71 -29h-4q-43 2 -72.5 34t-26.5 75q2 53 6.5 353t6.5 353q-5 -2 -18 -2.5t-33.5 3t-45 10t-51.5 20.5t-53 33.5t-49 49.5t-41 67t-28.5 88.5 t-10.5 111.5z" />
<glyph unicode="&#xb7;" horiz-adv-x="391" d="M86 582q-18 50 6 94q5 31 26.5 56.5t53.5 35.5q46 13 87.5 -9.5t55.5 -68.5q9 -27 9 -47q0 -41 -23 -76q-25 -39 -68 -53q-16 -8 -38 -8q-36 0 -66.5 20.5t-42.5 55.5z" />
<glyph unicode="&#xb8;" horiz-adv-x="1705" d="M412.5 -299q12.5 41 50.5 61q39 21 88 33q34 7 45 12q-3 1 -5.5 2.5t-5.5 4.5t-5 4q-45 35 -60 73q-18 41 2 84q8 13 15 31q-10 3 2 3q29 0 215 -15q-9 -22 -11 -33q21 -14 41 -37q35 -47 35 -104q0 -5 -1 -14.5t-1 -14.5q-9 -70 -57 -121q-39 -39 -92 -57 q-22 -7 -49 -14.5t-42 -11.5t-18 -7q-21 -12 -47 -12q-64 0 -92 55q-20 37 -7.5 78z" />
<glyph unicode="&#xbb;" horiz-adv-x="1122" d="M66 234q14 46 57 69q9 4 42.5 31t86.5 71.5t59 49.5q-2 2 -4 2q-24 21 -82.5 83t-72.5 76q-43 32 -58.5 71t2.5 83q20 43 64.5 59t87.5 -4q8 -4 17.5 -10.5t23.5 -19t21.5 -19t26 -24.5t23.5 -23q73 -56 117 -96q16 -10 26 -18t14.5 -11.5t15 -16t16.5 -18.5 q29 -34 37 -80l2 -16l-2 -14q-5 -28 -25 -68q-10 -17 -33 -43q-42 -45 -75 -74q-9 -7 -39 -32t-51.5 -42.5t-49 -39.5t-49.5 -37.5t-35 -22.5q-22 -14 -53 -14q-66 0 -102 61q-22 41 -8 87zM543 240.5q14 45.5 57 68.5q9 4 42.5 31t86.5 71.5t59 49.5q-2 2 -4 2 q-23 21 -81.5 83t-73.5 77q-95 71 -56 153q20 43 64.5 59t87.5 -4q25 -12 113 -96q65 -51 116 -96q16 -10 26 -18t14.5 -11.5t15 -16t16.5 -18.5q30 -34 37 -79l2 -17l-2 -14q-5 -28 -25 -68q-13 -21 -32 -43q-33 -36 -76 -73q-11 -9 -50 -41.5t-66 -54.5t-59 -46t-48 -33 q-22 -14 -54 -14q-65 0 -102 62q-22 41 -8 86.5z" />
<glyph unicode="&#xbf;" horiz-adv-x="501" d="M-145 -240q0 91 31 172.5t87 180.5q21 35 59 94t65.5 105t45.5 85q42 85 45 160q1 46 35 78.5t80 32.5h2q47 -2 80.5 -37t32.5 -82q-7 -158 -125 -359q-21 -35 -59.5 -95.5t-65.5 -105t-45 -81.5q-39 -89 -39 -148q0 -22 2 -32q12 -57 25 -80q3 -6 6.5 -10.5t4.5 -6 t1 -2.5h4q11 -2 49 16.5t76 47.5q63 46 164 147q34 34 81 34t81 -34t34 -82t-34 -80q-94 -98 -187 -167q-72 -52 -131 -80t-133 -31q-48 -2 -97.5 20.5t-82.5 61.5q-61 75 -86 205q-6 38 -6 73zM188 967q-4 47 27 83.5t78 41.5h14q53 0 90 -37q39 -39 39 -92q0 -3 -1 -9 t-1 -8q-4 -47 -42 -76.5t-85 -23.5q-46 3 -76 41q-40 29 -43 80z" />
<glyph unicode="&#xc0;" horiz-adv-x="1030" d="M47 137q12 166 35 297q4 21 59 268q-30 12 -49 40t-20 63q0 45 32.5 77.5t77.5 32.5h2q12 59 21 93q57 231 141 344q86 124 215 143q28 4 41 4q71 0 129 -39q44 -27 86 -88q54 -85 88 -235q45 -212 45 -578q0 -117 -5 -273t-5 -173q0 -46 -32.5 -78.5t-78.5 -32.5 t-78 32.5t-32 78.5q0 16 3 99.5t5 171.5t2 175q0 80 -2 121q-55 2 -128.5 5.5t-102.5 4.5q-22 1 -64.5 2t-66.5 2q-5 -20 -5 -24q-51 -219 -61 -277q-22 -130 -33 -272q-3 -46 -37.5 -76t-78.5 -27q-46 4 -76 39.5t-27 79.5zM408 913q17 -1 49 -2t47 -2q123 -4 213 -8 q-2 8 -2 23q-19 183 -60 284q-27 63 -45 68l-8 4q-2 -2 -6 -2q-34 -3 -72 -55q-40 -51 -78 -164q-13 -42 -38 -146zM441 1794q1 43 30 72q31 29 72.5 28t72.5 -30q70 -81 115 -95q39 -15 55.5 -53.5t1.5 -77.5q-10 -30 -36 -47.5t-58 -17.5q-19 0 -37 6q-21 8 -42.5 20.5 t-34.5 21t-34 27t-27 24t-27.5 27.5t-22.5 23q-29 29 -28 72z" />
<glyph unicode="&#xc1;" horiz-adv-x="1026" d="M47 137q12 166 35 297q4 21 59 268q-31 12 -50 40t-19 63q0 44 32 77t76 33h4q12 59 21 93q57 231 141 344q86 124 215 143q28 4 41 4q71 0 129 -39q44 -27 86 -88q56 -89 86 -235q45 -212 45 -578q0 -117 -4 -273t-4 -173q0 -46 -32.5 -78.5t-78.5 -32.5t-78 32.5 t-32 78.5q0 27 5 180.5t5 265.5q0 80 -2 121q-55 2 -128.5 5.5t-102.5 4.5q-22 1 -64.5 2t-66.5 2q-1 -4 -3.5 -12t-3.5 -12q-54 -247 -59 -277q-20 -101 -33 -272q-3 -46 -38 -76t-81 -27q-44 4 -73.5 39.5t-26.5 79.5zM408 913q17 -1 48.5 -2t47.5 -2q123 -4 213 -8 q-2 8 -2 23q-19 183 -60 284q-27 63 -45 68l-8 4q-2 -2 -6 -2q-33 -3 -74 -55q-38 -52 -76 -164q-13 -42 -38 -146zM463 1638q-15 38 2 77t57 54q40 13 115 95q29 29 71.5 30t71.5 -28q31 -29 31 -72t-29 -72q-1 -1 -14.5 -15.5t-16.5 -17.5t-16.5 -16t-19.5 -18t-19 -16.5 t-23 -17.5t-23.5 -14.5t-27 -15t-28.5 -12.5q-18 -6 -37 -6q-30 0 -56 17.5t-38 47.5z" />
<glyph unicode="&#xc2;" horiz-adv-x="1030" d="M49 137q12 166 35 297q4 21 59 268q-30 12 -49 40t-20 63q0 45 32.5 77.5t77.5 32.5h2q12 59 21 93q57 231 141 344q86 124 215 143q28 4 41 4q71 0 129 -39q44 -27 86 -88q54 -85 88 -235q41 -204 45 -578q0 -117 -5 -273t-5 -173q0 -46 -32.5 -78.5t-78.5 -32.5 t-78 32.5t-32 78.5q0 16 3 99.5t5 171.5t2 175q0 80 -2 121q-55 2 -128.5 5.5t-102.5 4.5q-22 1 -64.5 2t-66.5 2q-5 -20 -5 -24q-51 -219 -61 -277q-22 -130 -33 -272q-3 -46 -37.5 -76t-80.5 -27q-44 5 -74 40t-27 79zM352 1632.5q0 38.5 31 67.5q12 12 70 96q19 27 73 90 q21 21 33 29q30 18 62 20h2q3 0 8.5 -1t7.5 -1q15 -3 41 -16q16 -13 20 -19q14 -14 19 -24q7 -8 17.5 -24.5t15.5 -22.5q11 -19 34 -49.5t31 -42.5q22 -32 29 -43q13 -17 17.5 -58.5t-15.5 -72.5q-27 -35 -68 -35q-39 0 -65 26q-16 13 -41 51.5t-42 70.5l-18 32 q-3 -4 -38 -62t-56 -79q-29 -31 -68.5 -31t-68.5 31q-31 29 -31 67.5zM410 913q17 -1 48.5 -2t47.5 -2q123 -4 213 -8q-2 8 -2 23q-19 183 -60 284q-27 63 -45 68l-8 4q-2 -2 -6 -2q-34 -3 -72 -55q-38 -48 -77 -164q-18 -61 -39 -146z" />
<glyph unicode="&#xc3;" horiz-adv-x="1030" d="M47 137q12 166 35 297q4 21 59 268q-30 12 -49 40t-20 63q0 45 32.5 77.5t77.5 32.5h2q12 59 21 93q57 231 141 344q86 124 215 143q28 4 41 4q71 0 129 -39q44 -27 86 -88q54 -85 88 -235q41 -204 45 -578q0 -117 -5 -273t-5 -173q0 -46 -32.5 -78.5t-78.5 -32.5 t-78 32.5t-32 78.5q0 16 3 99.5t5 171.5t2 175q0 80 -2 121q-55 2 -128.5 5.5t-102.5 4.5q-22 1 -64.5 2t-66.5 2q-5 -20 -5 -24q-51 -219 -61 -277q-22 -130 -33 -272q-3 -46 -38 -76t-81 -27q-44 4 -73.5 39.5t-26.5 79.5zM342 1647q0 25 8 49q11 22 17 30q27 40 49 56 q49 36 102 33q63 0 111 -39q13 -10 25 -30t20 -33t14 -11q6 1 7.5 10t5 24.5t14.5 26.5q25 34 66 40t75 -19t41 -66.5t-18 -75.5q-5 -6 -16.5 -22.5t-20.5 -26.5q-31 -40 -74 -57q-32 -14 -72 -14q-27 0 -39 2q-33 4 -64.5 21t-47.5 36q-2 2 -4.5 5.5t-3.5 4.5q-10 8 -22 -3 t-25 -27.5t-37.5 -21.5t-59.5 15q-26 15 -43 50q-8 24 -8 43zM408 913q17 -1 48.5 -2t47.5 -2q123 -4 213 -8q-2 8 -2 23q-19 183 -60 284q-27 63 -45 68l-8 4q-2 -2 -6 -2q-34 -3 -72 -55q-40 -51 -78 -164q-13 -42 -38 -146z" />
<glyph unicode="&#xc4;" horiz-adv-x="1030" d="M47 137q12 166 35 297q4 21 59 268q-30 12 -49 40t-20 63q0 45 32.5 77.5t77.5 32.5h2q12 59 21 93q57 231 141 344q86 124 215 143q28 4 41 4q71 0 129 -39q44 -27 86 -88q54 -85 88 -235q41 -204 45 -578q0 -117 -5 -273t-5 -173q0 -46 -32.5 -78.5t-78.5 -32.5 t-78 32.5t-32 78.5q0 16 3 99.5t5 171.5t2 175q0 80 -2 121q-55 2 -128.5 5.5t-102.5 4.5q-22 1 -64.5 2t-66.5 2q-5 -20 -5 -24q-51 -219 -61 -277q-22 -130 -33 -272q-3 -46 -38 -76t-81 -27q-44 4 -73.5 39.5t-26.5 79.5zM385 1669q0 21 6 33l4 12q19 37 59 50.5t78 -5.5 q31 -16 48 -49q30 -59 -9 -111q-30 -40 -82 -40q-33 0 -59 20q-20 13 -33 39q-12 24 -12 51zM408 913q17 -1 48.5 -2t47.5 -2q123 -4 213 -8q-2 8 -2 23q-19 183 -60 284q-27 63 -45 68l-8 4q-2 -2 -6 -2q-34 -3 -72 -55q-40 -51 -78 -164q-13 -42 -38 -146zM676 1659v18 q0 41 30.5 71t71.5 30t72 -30t31 -71v-18q0 -41 -30.5 -70.5t-72.5 -29.5q-41 0 -71.5 29.5t-30.5 70.5z" />
<glyph unicode="&#xc5;" horiz-adv-x="1030" d="M47 137q12 166 35 297q4 21 59 268q-30 12 -49 40t-20 63q0 45 32.5 77.5t77.5 32.5h2q12 59 21 93q57 231 141 344q86 124 215 143q28 4 41 4q71 0 129 -39q44 -27 86 -88q54 -85 88 -235q41 -204 45 -578q0 -117 -5 -273t-5 -173q0 -46 -32.5 -78.5t-78.5 -32.5 t-78 32.5t-32 78.5q0 16 3 99.5t5 171.5t2 175q0 80 -2 121q-55 2 -128.5 5.5t-102.5 4.5q-22 1 -64.5 2t-66.5 2q-5 -20 -5 -24q-51 -219 -61 -277q-22 -130 -33 -272q-3 -46 -38 -76t-81 -27q-44 4 -73.5 39.5t-26.5 79.5zM408 913q17 -1 48.5 -2t47.5 -2q123 -4 213 -8 q-2 8 -2 23q-19 183 -60 284q-27 63 -45 68l-8 4q-2 -2 -6 -2q-34 -3 -72 -55q-40 -51 -78 -164q-13 -42 -38 -146zM471 1726q0 39 16 70q22 37 54 55q9 6 18 9q11 11 25 14q24 8 53 8q72 0 115 -57q34 -45 34 -111q0 -89 -63 -133q-40 -29 -84 -29h-2q-67 0 -119 56 q-47 53 -47 118zM586 1726q0 -22 18 -40q16 -19 33 -19q7 0 18 8q17 9 17 39q0 28 -13 41q-9 12 -22 12q-7 0 -19 -4h-6l-10 -10q-11 -5 -14 -12q-2 -4 -2 -15z" />
<glyph unicode="&#xc7;" horiz-adv-x="1062" d="M49 627q0 116 22 203t76 206q112 248 324 375q19 13 55 27q25 8 62 18q86 19 147 19q53 0 96 -13q64 -19 101 -69q27 -37 19.5 -83.5t-44.5 -72.5q-35 -25 -76.5 -21t-70.5 33q-1 0 -10 1t-15 1q-28 0 -86 -12q-43 -9 -61 -18q-17 -11 -57.5 -35t-57 -35.5t-43.5 -34 t-45 -48t-33 -58.5q-78 -172 -78 -383q0 -73 13 -156q3 -24 7 -41t11 -31.5t10.5 -21.5t14 -22.5t14.5 -22.5q43 -68 125 -109q28 -14 66 -14q73 0 167 43q85 36 160 90q38 28 84 19.5t74 -46.5q26 -38 18 -83.5t-45 -71.5q-103 -73 -202 -115q-81 -37 -166 -51 q-9 -22 -11 -33q21 -14 41 -37q35 -47 35 -104q0 -5 -1 -14.5t-1 -14.5q-9 -70 -57 -121q-39 -39 -92 -57q-22 -7 -49 -14.5t-42 -11.5t-18 -7q-21 -12 -47 -12q-64 0 -92 55q-20 37 -7.5 78t50.5 61q39 21 88 33q34 7 45 12q-3 1 -5.5 2.5t-5.5 4.5t-5 4q-45 35 -60 73 q-18 41 2 84q8 13 15 31q-27 9 -37 14q-147 72 -219 195q-42 70 -60 112t-29 109q-14 88 -14 191z" />
<glyph unicode="&#xc8;" horiz-adv-x="1042" d="M37 94q-8 45 18.5 82.5t71.5 44.5q8 1 27 4t30 4q4 134 30 369t26 373v26l-3 -24q0 1 -1 8q0 5 -5 98q-2 26 -3.5 57t-2.5 61.5t-2 43.5h-57q-46 -1 -79.5 30t-35.5 75q-1 46 30 79t77 35h98q38 0 112 -1t109 -1q79 0 152 6h4q2 0 7.5 1t8.5 1q42 6 51 7q65 10 134 10 q39 0 59 -4q35 -3 74 -27q37 -25 53 -68q14 -43 -6.5 -83.5t-63.5 -55.5q-58 -19 -102 19h-14q-54 0 -152 -15q-28 -4 -37 -4q-85 -6 -168 -6h-35q0 -8 1 -26.5t1 -28.5q9 -138 11 -178l2 -14q1 1 1 7h1v-28q0 -14 -1 -40t-1 -38q4 0 16 4q123 29 217 29q70 0 119 -15 q44 -12 67 -51.5t11 -83.5q-12 -43 -52 -65.5t-83 -10.5q-24 7 -62 7q-75 0 -162 -23q-7 -2 -86 -27q-3 -37 -19 -174t-20 -225q175 14 302 14q53 0 167 -4q44 -3 75 -37.5t28 -78.5q-3 -45 -37.5 -75.5t-79.5 -27.5q-102 4 -153 4q-258 0 -543 -49q-3 0 -9.5 -1t-9.5 -1 q-39 0 -69.5 26.5t-36.5 65.5zM361 1794q1 43 32 72q29 29 72 28t72 -32q73 -80 114 -93q38 -15 55.5 -54t2.5 -77q-10 -30 -36.5 -47.5t-58.5 -17.5q-18 0 -36 6q-18 7 -35 16t-33.5 20.5t-28 19.5t-28 23.5t-22 21l-23 23l-19.5 19.5q-29 29 -28 72zM385 1192q2 2 6 5t6 5 q-2 -2 -6 -5t-6 -5z" />
<glyph unicode="&#xc9;" horiz-adv-x="1046" d="M39 94q-8 45 18.5 82.5t71.5 44.5q8 1 27 4t30 4q4 134 30 369t26 373v26l-3 -24q0 1 -1 8q0 5 -5 98q-2 26 -3.5 57t-2.5 61.5t-2 43.5h-57q-46 -1 -79.5 30t-35.5 75q-1 46 30 79t77 35h98q38 0 111.5 -1t109.5 -1q79 0 152 6h4q2 0 7.5 1t8.5 1q42 6 51 7 q65 10 134 10q39 0 59 -4q35 -3 74 -27q37 -25 53 -68q14 -43 -6.5 -83.5t-63.5 -55.5q-58 -19 -102 19h-14q-54 0 -152 -15q-28 -4 -37 -4q-85 -6 -168 -6h-35q0 -8 1 -26.5t1 -28.5q9 -138 11 -178l2 -14q1 1 1 7h1v-28q0 -14 -1 -40t-1 -38q4 0 16 4q123 29 217 29 q70 0 119 -15q44 -12 67 -51.5t11 -83.5q-12 -43 -52 -65.5t-83 -10.5q-24 7 -62 7q-75 0 -162 -23q-7 -2 -86 -27q-5 -55 -14 -131t-15 -139t-9 -129q175 14 301 14q53 0 167 -4q44 -3 75 -37.5t28 -78.5q-3 -45 -37.5 -75.5t-79.5 -27.5q-102 4 -153 4q-258 0 -543 -49 q-3 0 -9.5 -1t-9.5 -1q-39 0 -69.5 26.5t-36.5 65.5zM420 1638q-14 39 3 77.5t56 53.5q38 12 115 93q29 31 70.5 32t72.5 -28t31 -72t-29 -72q-1 -1 -14.5 -15.5t-16.5 -17.5t-16.5 -16t-19.5 -18t-19 -16.5t-23 -17.5t-23.5 -14.5t-27 -15t-28.5 -12.5q-18 -6 -35 -6 q-31 0 -57.5 17.5t-38.5 47.5z" />
<glyph unicode="&#xca;" horiz-adv-x="1034" d="M37 94q-8 44 18 82t70 45q10 1 29.5 4t29.5 4q4 131 29.5 366.5t24.5 375.5v26l-1 -22q-1 2 -1 6q0 5 -5 98q-7 102 -10 162h-57q-44 -2 -78 29.5t-35 75.5q-1 46 30 79t77 35h96q38 0 112 -1t109 -1q81 0 154 6h4q2 0 7.5 1t8.5 1q44 6 51 7q65 10 134 10q39 0 59 -4 q36 -4 74 -27q37 -25 53 -68q14 -43 -6.5 -83.5t-63.5 -55.5q-58 -19 -102 19h-14q-52 0 -154 -15q-28 -4 -37 -4q-85 -6 -168 -6h-33q0 -8 1 -26.5t1 -28.5q9 -138 11 -178l2 -14v4q1 5 1.5 5t0.5 -2v-28q0 -14 -1 -40t-1 -38q4 0 16 4q123 29 217 29q70 0 119 -15 q44 -12 66 -51.5t10 -83.5q-10 -43 -50 -65.5t-83 -10.5q-24 7 -62 7q-74 0 -164 -23q-25 -6 -84 -27q-3 -37 -19 -174t-20 -225q175 14 302 14q55 0 165 -4q45 -3 76 -37t29 -79q-3 -45 -37.5 -75.5t-79.5 -27.5q-102 4 -153 4q-262 0 -543 -49q-3 0 -9.5 -1t-9.5 -1 q-39 0 -69.5 26.5t-36.5 65.5zM290.5 1632.5q-0.5 38.5 28.5 67.5q7 6 16 17.5t16 22l19 28.5t19 28q13 17 25.5 32t27.5 30.5t23 25.5q15 19 31 31l9 5q9 5 13.5 6.5t15.5 4t23 2.5h2h19q10 -2 38 -16q18 -14 21 -19q5 -4 20 -24q13 -18 31 -47q11 -19 34.5 -49t31.5 -43 q15 -22 28 -43q12 -14 17 -57t-13 -72q-28 -35 -69 -35q-39 0 -66 24q-16 14 -40.5 52.5t-40.5 69.5l-17 32q-9 -12 -41.5 -66.5t-52.5 -74.5q-29 -31 -68.5 -31t-68.5 31q-31 29 -31.5 67.5z" />
<glyph unicode="&#xcb;" horiz-adv-x="1044" d="M39 94q-8 45 18.5 82.5t71.5 44.5q8 1 27 4t30 4q4 134 30 369t26 373v26l-3 -24q0 1 -1 8q0 5 -5 98q-2 26 -3.5 57t-2.5 61.5t-2 43.5h-57q-46 -1 -79.5 30t-35.5 75q-1 46 30 79t77 35h98q38 0 111.5 -1t109.5 -1q79 0 152 6h4q2 0 7.5 1t8.5 1q42 6 51 7 q65 10 134 10q39 0 59 -4q35 -3 74 -27q37 -25 53 -68q14 -43 -6.5 -83.5t-63.5 -55.5q-58 -19 -102 19h-14q-54 0 -152 -15q-28 -4 -37 -4q-85 -6 -168 -6h-35q0 -8 1 -26.5t1 -28.5q9 -138 11 -178l2 -14q1 1 1 7h1v-28q0 -14 -1 -40t-1 -38q4 0 16 4q123 29 217 29 q70 0 119 -15q44 -12 67 -51.5t11 -83.5q-12 -43 -52 -65.5t-83 -10.5q-24 7 -62 7q-75 0 -162 -23q-7 -2 -86 -27q-5 -55 -14 -131t-15 -139t-9 -129q175 14 301 14q53 0 167 -4q44 -3 75 -37.5t28 -78.5q-3 -45 -37.5 -75.5t-79.5 -27.5q-102 4 -153 4q-258 0 -543 -49 q-3 0 -9.5 -1t-9.5 -1q-39 0 -69.5 26.5t-36.5 65.5zM324 1669q0 9 6 33l6 12q19 37 58.5 50.5t76.5 -5.5q33 -14 47 -49q32 -61 -6 -111q-30 -40 -82 -40q-35 0 -61 20q-23 18 -33 39q-12 24 -12 51zM616 1661v16q0 41 30 71t71 30t71.5 -30t30.5 -71v-16q0 -42 -30 -72 t-72 -30q-41 0 -71 29.5t-30 72.5z" />
<glyph unicode="&#xcc;" horiz-adv-x="538" d="M-47 1296q0 46 32.5 79.5t77.5 33.5q91 0 173 10q175 21 192 23q46 4 81 -25.5t40 -75.5q4 -46 -25 -80.5t-75 -39.5q-27 -2 -91 -11q2 -68 15 -628q6 -191 6 -369q20 0 74 -4q46 -4 75.5 -39.5t26.5 -81.5q-5 -46 -40 -75t-81 -25q-74 4 -86 4q-38 0 -158 -12h-40 q-31 0 -56 4q-44 11 -68 50t-14 83q9 44 47.5 68.5t81.5 15.5h9h8v10q0 153 -6 364q-5 152 -9 352.5t-6 260.5q-9 0 -33 -1t-38 -1h-3q-45 0 -77.5 32.5t-32.5 77.5zM33.5 1739.5q1.5 41.5 32.5 70.5q29 31 71.5 30t71.5 -32q78 -81 117 -94q40 -15 57 -54t2 -79 q-12 -30 -38.5 -47.5t-57.5 -17.5q-19 0 -37 6q-14 6 -27.5 13t-27 15.5t-23.5 15t-23 17.5t-20 16.5t-20 18.5t-17.5 16.5t-17.5 17t-15 15.5q-29 31 -27.5 72.5z" />
<glyph unicode="&#xcd;" horiz-adv-x="538" d="M-47 1294q0 46 32 78.5t78 32.5q91 0 173 10q176 22 192 23q44 4 80 -25.5t41 -73.5q3 -46 -25.5 -81t-74.5 -39q-73 -8 -91 -11q2 -88 4.5 -204t4.5 -211.5t6 -210.5q1 -44 2.5 -114t2.5 -131t1 -124q3 0 30 -2t44 -4q46 -3 75.5 -38t24.5 -81q-3 -45 -38.5 -75 t-80.5 -25q-78 4 -86 4q-38 0 -158 -12h-40q-31 0 -56 4q-44 11 -68 50t-14 83q9 44 47.5 68.5t81.5 15.5h9h8v10q0 149 -6 364q-5 151 -9.5 352t-5.5 259q-23 -2 -71 -2h-3q-46 0 -78 32t-32 78zM125 1579q-15 38 2 77t57 54q36 12 115 94q31 31 72.5 32t72.5 -30 q31 -29 31 -70.5t-29 -72.5q-4 -4 -19.5 -20t-22.5 -22.5t-22.5 -21t-27.5 -23t-28.5 -20t-33.5 -20.5t-36 -16q-21 -7 -37 -7q-31 0 -56.5 17.5t-37.5 48.5z" />
<glyph unicode="&#xce;" horiz-adv-x="538" d="M-49 1294q0 46 32 78.5t78 32.5q90 0 172 10q173 21 193 23q44 4 80 -25.5t41 -73.5q3 -46 -26 -81t-75 -39q-69 -8 -90 -11q2 -88 4.5 -204t4.5 -211.5t6 -210.5q1 -44 2.5 -114t2.5 -131t1 -124q3 0 30 -2t44 -4q46 -3 75.5 -38t24.5 -81q-3 -45 -38.5 -75t-80.5 -25 q-78 4 -86 4q-38 0 -158 -12h-41q-30 0 -55 4q-44 11 -68 50t-14 83q9 44 47.5 68.5t81.5 15.5h8h9v10q0 149 -6 364q-5 151 -9.5 352t-5.5 259q-23 -2 -72 -2h-2q-46 0 -78 32t-32 78zM-6 1572.5q0 38.5 31 67.5q8 8 18.5 23t26 39t24.5 37q13 17 25.5 32t27.5 30.5 t23 25.5q15 19 33 31q30 18 61 18h2h17q15 -3 41 -16q5 -4 20 -19q4 -5 11 -12.5t10 -11.5q5 -7 14.5 -24t15.5 -26q11 -19 34.5 -49t31.5 -43q24 -34 31 -43q11 -16 15.5 -58t-13.5 -73q-30 -35 -70 -35q-38 0 -66 25q-16 14 -41 53t-42 71l-17 32q-5 -8 -39 -65t-55 -79 q-31 -29 -70.5 -29t-68.5 29q-31 31 -31 69.5z" />
<glyph unicode="&#xcf;" horiz-adv-x="538" d="M-47 1294q0 46 32 78.5t78 32.5q91 0 173 10q176 22 192 23q44 4 80 -25.5t41 -73.5q3 -46 -25.5 -81t-74.5 -39q-73 -8 -91 -11q2 -88 4.5 -204t4.5 -211.5t6 -210.5q1 -44 2.5 -114t2.5 -131t1 -124q3 0 30 -2t44 -4q46 -3 75.5 -38t24.5 -81q-3 -45 -38.5 -75 t-80.5 -25q-78 4 -86 4q-38 0 -158 -12h-40q-31 0 -56 4q-44 11 -68 50t-14 83q9 44 47.5 68.5t81.5 15.5h9h8v10q0 149 -6 364q-5 151 -9.5 352t-5.5 259q-23 -2 -71 -2h-3q-46 0 -78 32t-32 78zM-6 1610q0 20 6 32l4 13q20 38 60 51.5t77 -6.5q33 -14 47 -49 q15 -26 13.5 -56.5t-19.5 -54.5q-30 -41 -82 -41q-34 0 -61 21q-20 14 -33 39q-12 24 -12 51zM287 1599v19q0 41 30.5 71.5t71.5 30.5q43 0 73 -30t30 -72v-19q0 -41 -30 -70.5t-73 -29.5q-41 0 -71.5 29.5t-30.5 70.5z" />
<glyph unicode="&#xd0;" horiz-adv-x="1193" d="M27 842q0 46 32 78t78 32h78q4 144 4 232q-32 -16 -67.5 -9.5t-61.5 33.5q-31 32 -29.5 78.5t35.5 77.5q36 32 107 59q35 13 116 33q128 25 234 25q47 0 88 -8q151 -41 256 -146q92 -90 154 -233q53 -127 74.5 -236t21.5 -242q0 -90 -10 -188q-6 -61 -14.5 -92.5 t-32.5 -87.5q-41 -104 -136 -168q-49 -34 -137 -72q-43 -18 -127 -28q-70 -9 -164 -9q-235 0 -422 54q-44 12 -65.5 52t-9.5 83q12 42 50 64.5t81 13.5q1 48 4.5 103t6.5 89t9 93.5t8 78.5q10 80 15 129h-66q-46 0 -78 32.5t-32 78.5zM381 199q74 -6 145 -6q82 0 140 6 q16 2 32.5 5t25.5 5l9 2q63 27 94 51q29 18 45 43q1 2 10 15t11.5 19t8.5 22t9.5 38t6.5 52q8 102 8 165q0 200 -43 351q-9 32 -19 56t-28 47t-25 32t-35.5 35t-34.5 32q-65 65 -153 88h-2h-6q-12 3 -27 3q-49 0 -113 -9q0 -205 -4 -299h96q46 0 78.5 -32t32.5 -78 t-32.5 -78.5t-78.5 -32.5h-108q-10 -112 -14 -153q-29 -263 -29 -379z" />
<glyph unicode="&#xd1;" horiz-adv-x="968" d="M47 1327q-9 45 15.5 83.5t68.5 47.5q44 10 83 -15t50 -69v-4q17 -20 25 -39q52 -140 112.5 -269.5t149.5 -300.5t131 -257q12 336 12 493q0 156 -18 396q-4 44 25 78.5t75 39.5q45 5 80.5 -25t38.5 -75q20 -237 20 -414q0 -163 -11 -444t-13 -350q-3 -31 -19 -60 q5 -36 -11.5 -68.5t-49.5 -47.5q-26 -13 -49 -13q-31 0 -58 17.5t-40 46.5q-56 115 -189 366t-201 402q3 -110 11 -359.5t10 -386.5q0 -46 -32 -79t-77 -33h-2q-46 0 -78 31t-32 77q-3 126 -10.5 393t-10.5 414q-2 12 -2 39q0 66 6.5 129t5.5 100q0 77 -16 156zM176 1642 q0 18 10 48q5 16 15 32q24 36 49 54q42 34 104 34q60 0 111 -41q13 -10 25 -29t20 -32t14 -12t7.5 10t5 24.5t14.5 26.5q26 34 67.5 41t75.5 -18q34 -27 40.5 -68.5t-19.5 -75.5q-3 -4 -9.5 -14t-13 -18.5t-12.5 -16.5q-38 -42 -74 -59q-43 -15 -74 -15q-3 0 -38 5 q-32 3 -64.5 20t-48.5 37l-10 10q-9 8 -21 -3t-25 -27.5t-38 -21.5t-60 15q-26 16 -43 49q-8 24 -8 45z" />
<glyph unicode="&#xd2;" horiz-adv-x="1196" d="M66 639v27q0 134 22 264q33 192 160 325q112 115 280 166q38 10 68 -2q30 6 31 6h22q164 3 289 -141q72 -85 143 -252q16 -42 26.5 -77t15.5 -73.5t6.5 -57.5t2 -68t1.5 -64q0 -17 1 -54.5t1 -57.5q-2 -116 -16 -195t-60 -168q-68 -133 -180 -201q-107 -67 -234 -67h-2 q-107 0 -208 46t-181 130q-118 121 -158 270q-19 65 -23.5 111t-6.5 133zM285 641q0 -159 22 -231q6 -22 16 -39t18.5 -26.5t31.5 -31t39 -37.5q105 -108 231 -108q69 0 121 35q59 37 100 114q29 53 40 113t11 150q0 19 -1 55t-1 53q0 10 -0.5 39.5t-0.5 36.5t-1 29.5 t-2 29.5t-2.5 24.5t-4 26t-6 23t-8.5 27t-11 26.5q-53 131 -105 191q-32 35 -60 50t-63 15h-8q-26 0 -45 8q-1 -1 -3 -2t-3 -2q-112 -31 -184 -106q-13 -14 -33.5 -32t-31 -28t-21 -32t-15.5 -54q-20 -112 -20 -292v-25zM472 1735.5q1 41.5 30 70.5q31 29 72.5 29t70.5 -31 q79 -82 115 -94q39 -13 56 -51.5t3 -77.5q-12 -30 -38 -47.5t-56 -17.5q-19 0 -37 6q-21 8 -42.5 20.5t-34.5 21t-34 27t-27 24t-27.5 27.5t-22.5 23q-29 29 -28 70.5z" />
<glyph unicode="&#xd3;" horiz-adv-x="1196" d="M66 639q0 -81 5.5 -129t24.5 -115q40 -149 158 -270q80 -84 181 -130t208 -46q129 0 236 67q112 68 180 201q47 90 60.5 169.5t13.5 193.5v112q0 15 -1 55t-2 55t-4 49t-8.5 56.5t-15 56t-23.5 68.5q-66 163 -143 252q-52 63 -126.5 102.5t-160.5 38.5h-22q-1 0 -31 -6 q-32 11 -70 2q-166 -52 -278 -166q-126 -129 -160 -325q-22 -130 -22 -264v-27zM285 641v25q0 176 18 292q7 41 19.5 62.5t42 46t41.5 37.5q72 74 182 106l8 4q19 -8 45 -8h8q64 0 123 -65q55 -66 105 -191q6 -14 11 -26.5t8.5 -27t6 -23t4 -26t2.5 -24.5t2 -29.5t1 -29.5 t0.5 -36.5t0.5 -39.5q0 -17 1 -53t1 -55q0 -90 -11 -150t-40 -113q-41 -77 -100 -114q-52 -35 -121 -35q-129 0 -231 108q-16 17 -39 38t-32 30.5t-19.5 26.5t-16.5 39q-20 74 -20 231zM483 1581q-15 38 2.5 76.5t55.5 52.5q40 13 114 94q29 31 72 31t72 -29 q31 -29 31 -70.5t-29 -70.5q-68 -72 -108 -100q-38 -27 -79 -43q-18 -6 -36 -6q-31 0 -57 17.5t-38 47.5z" />
<glyph unicode="&#xd4;" horiz-adv-x="1196" d="M66 666q0 123 24 264q34 194 158 325q112 115 280 166q38 10 68 -2q30 6 31 6h24q162 3 287 -141q72 -85 143 -252q16 -42 26.5 -77t15.5 -73.5t6.5 -57.5t2 -68t1.5 -64q0 -17 1 -54.5t1 -57.5q0 -111 -14.5 -192t-61.5 -171q-67 -132 -178 -201q-110 -67 -236 -67 q-106 0 -207 46t-184 130q-118 121 -158 270q-19 65 -23.5 112t-4.5 132q-2 10 -2 27zM285 641q3 -162 22 -231q6 -22 16 -39t19.5 -26.5t31.5 -30.5t38 -38q105 -108 233 -108q67 0 119 35q58 36 102 114q52 96 49 263q0 73 -2 108q0 12 -0.5 39.5t-0.5 36t-1 30t-1.5 29 t-2.5 24.5t-4 26t-5.5 23.5t-8 27t-10.5 26.5q-51 127 -107 191q-59 65 -121 65h-10q-26 0 -45 8q-1 -1 -3 -2t-3 -2q-109 -31 -184 -106q-13 -14 -33.5 -32t-30.5 -28t-20.5 -32t-16.5 -54q-20 -129 -20 -292v-25zM366 1574.5q0 38.5 29 67.5q9 9 70 97q16 22 41.5 50.5 t32.5 37.5q27 28 32 31q27 16 62 18q12 0 18 -2q24 -5 39 -16q10 -6 21 -17q8 -8 20 -24q14 -20 31 -50q11 -19 34 -48t31 -42q22 -32 29 -43q12 -17 17 -58.5t-13 -70.5q-30 -35 -69 -35q-38 0 -66 25q-15 14 -39.5 52.5t-41.5 70.5l-17 31q-3 -4 -38.5 -62.5t-56.5 -79.5 q-29 -29 -68.5 -29t-68.5 29t-29 67.5z" />
<glyph unicode="&#xd5;" horiz-adv-x="1196" d="M66 639v27q0 134 22 264q33 192 160 325q112 115 280 166q38 10 68 -2q30 6 31 6h22q164 3 289 -141q75 -89 141 -252q14 -35 23.5 -68.5t15 -56t8.5 -56.5t4 -49t2 -55t1 -55q0 -17 1 -54.5t1 -57.5q-2 -116 -16 -195t-60 -168q-68 -133 -180 -201q-107 -67 -234 -67h-2 q-107 0 -208 46t-181 130q-118 121 -158 270q-19 65 -23.5 111t-6.5 133zM285 641q0 -159 22 -231q6 -22 16 -39t18.5 -26.5t31.5 -31t39 -37.5q51 -53 112 -80.5t119 -27.5q69 0 121 35q59 37 100 114q29 53 40 113t11 150q0 19 -1 55t-1 53q0 10 -0.5 39.5t-0.5 36.5 t-1 29.5t-2 29.5t-2.5 24.5t-4 26t-6 23t-8.5 27t-11 26.5q-50 125 -105 191q-59 65 -123 65h-8q-26 0 -45 8q-1 -1 -3 -2t-3 -2q-112 -31 -184 -106q-13 -14 -33.5 -32t-31 -28t-21 -32t-15.5 -54q-20 -112 -20 -292v-25zM324 1640q0 26 8 50q4 10 16 30q19 34 47 54 q46 34 105 34q60 -3 108 -41q13 -10 25.5 -29t20.5 -32t14 -12q6 2 7 11t4.5 24t14.5 26q25 34 66.5 40.5t75.5 -19.5q32 -25 38.5 -66.5t-18.5 -75.5q-3 -4 -15.5 -20.5t-21.5 -26.5q-32 -42 -71 -57q-32 -14 -72 -14h-2q-25 0 -37 2q-33 4 -65.5 21t-47.5 36 q-2 2 -4.5 5.5t-3.5 4.5q-10 8 -22 -3t-24.5 -27.5t-37 -21.5t-59.5 15q-32 21 -41 49q-8 16 -8 43z" />
<glyph unicode="&#xd6;" horiz-adv-x="1196" d="M63 639v27q0 117 25 264q28 189 158 325q112 115 280 166q38 10 68 -2q30 6 31 6h22q164 3 289 -141q72 -85 143 -252q16 -42 26.5 -77.5t15 -73t6 -58t2 -67t1.5 -64.5q0 -17 1.5 -54.5t1.5 -57.5q-2 -116 -16 -195t-60 -168q-67 -132 -178 -201q-110 -67 -236 -67 q-106 0 -207 46t-184 130q-118 121 -158 270q-19 65 -24 112t-7 132zM283 641q0 -150 22 -231q6 -22 16 -39t19.5 -26.5t31.5 -30.5t38 -38q105 -108 233 -108q67 0 119 35q58 36 102 114q49 95 49 263q0 73 -2 108q0 12 -0.5 39.5t-0.5 36t-1 30t-1.5 29t-2.5 24.5t-4 26 t-5.5 23.5t-8 27t-10.5 26.5q-51 127 -107 191q-32 35 -60 50t-63 15h-8q-26 0 -45 8q-1 -1 -3 -2t-3 -2q-113 -32 -185 -106q-13 -14 -33 -32t-30 -28t-20.5 -32t-16.5 -54q-20 -112 -20 -292v-25zM346 1612q0 9 6 33l6 12q19 37 58.5 50.5t77.5 -5.5q32 -19 47 -49 q30 -59 -9 -111q-27 -41 -79 -41q-35 0 -62 21q-22 18 -33 39q-12 24 -12 51zM637 1604v16q0 41 29.5 70.5t70.5 29.5q43 0 73 -29.5t30 -70.5v-16q0 -43 -30 -73t-73 -30q-41 0 -70.5 30t-29.5 73z" />
<glyph unicode="&#xd7;" horiz-adv-x="925" d="M92 433.5q16 44.5 58 64.5q36 14 149 127q-8 12 -10 14q-19 25 -65 75.5t-60 63.5l-8 8q-43 19 -60 62t0 84q19 43 62 60.5t86 -1.5q62 -29 164 -139q19 -25 38 -51q37 41 60 61q10 9 32 32.5t36.5 37t38 30t46.5 25.5q43 15 85 -4.5t59 -62.5q24 -70 -68 -146 q-4 -3 -17 -15.5t-31 -30t-30 -28.5q-25 -25 -71 -82q9 -11 82 -92.5t92 -117.5q21 -40 7 -84t-54 -66q-22 -14 -54 -14q-30 0 -56.5 16t-41.5 43q-10 19 -64 73t-63 68q-126 -118 -188 -149q-18 -10 -47 -10q-72 0 -103 63q-20 41 -4 85.5z" />
<glyph unicode="&#xd8;" horiz-adv-x="1196" d="M63 639v27q0 129 23 264q34 196 160 325q109 115 278 166q37 10 70 -2q24 6 29 6h24q136 3 244 -98q8 14 16 33q19 41 62 57t84 -4q41 -19 56.5 -61t-3.5 -82q-34 -74 -72 -144q33 -68 43 -94q16 -42 26.5 -77.5t15 -73t6 -58t2 -67t1.5 -64.5q2 -35 2 -112 q0 -112 -14 -192.5t-59 -170.5q-67 -130 -180 -201q-107 -67 -236 -67q-126 0 -246 65q-2 -4 -5 -12t-5 -12q-12 -32 -40 -51t-62 -19q-15 0 -39 8q-43 17 -61 59t-1 85q6 14 18.5 44t18.5 44q-91 107 -127 235q-18 68 -23.5 116.5t-5.5 127.5zM281 641q3 -162 22 -231 q8 -25 19 -43q79 145 239 394.5t223 358.5q-15 20 -16 21q-57 65 -121 65h-8q-29 0 -45 8l-8 -4q-112 -32 -183 -106q-13 -14 -33.5 -32t-30.5 -28t-21 -32t-17 -54q-20 -129 -20 -292v-25zM487 213q74 -45 154 -45q67 0 119 35q58 36 102 114q52 96 49 263q0 73 -2 108 q0 144 -12 195q-45 -73 -134.5 -211.5t-156 -248t-119.5 -210.5z" />
<glyph unicode="&#xd9;" horiz-adv-x="1136" d="M57 854q0 156 15 463q2 44 35 74.5t79 29.5q44 -3 75 -36.5t30 -77.5q-15 -304 -15 -453q0 -266 27 -451q13 -95 49 -178q38 -77 84 -108q32 -19 62 -19h4q66 3 127 43q55 38 108 117q46 69 75.5 160.5t35.5 171.5q10 146 10 215q0 46 -6 215q-13 241 -21 295 q-7 44 20 80.5t71 44.5q46 6 82.5 -21t44.5 -71q14 -92 20 -320q2 -42 4 -91t3 -78t1 -54q0 -57 -12 -232q-9 -158 -86 -329q-86 -183 -227 -283q-110 -76 -242 -82h-12h-2q-102 0 -179 55q-63 41 -122 125q-80 126 -109 314q-29 220 -29 481zM368 1735.5q0 41.5 31 70.5 q29 29 72 28t72 -32q71 -78 114 -92q38 -15 55.5 -54t2.5 -77q-10 -30 -36.5 -48t-57.5 -18q-19 0 -37 9q-41 16 -80.5 44.5t-56.5 45.5t-50 51q-29 31 -29 72.5z" />
<glyph unicode="&#xda;" horiz-adv-x="1136" d="M57 854q0 -261 29 -481q29 -188 109 -314q59 -84 122 -125q77 -55 179 -55h2h12q132 6 242 82q141 100 227 283q77 171 86 329q12 176 12 232q0 25 -1 54t-3 78t-4 91q-6 228 -20 320q-8 44 -44.5 71t-82.5 21q-44 -8 -71 -44.5t-20 -80.5q8 -54 21 -295q6 -169 6 -215 q0 -69 -10 -215q-6 -80 -35.5 -171.5t-75.5 -160.5q-53 -79 -108 -117q-61 -40 -127 -43h-4q-30 0 -62 19q-46 31 -84 108q-36 83 -49 178q-27 185 -27 451q0 149 15 453q1 44 -30 77.5t-75 36.5q-46 1 -79 -29.5t-35 -74.5q-15 -307 -15 -463zM408 1579q-14 39 3 77.5 t56 53.5q39 13 115 92q29 31 70.5 32t72.5 -28q29 -29 30 -70.5t-28 -72.5l-17 -17l-19.5 -19.5t-19 -18t-22.5 -20t-23 -18t-27 -18.5t-28 -15.5t-32 -14.5q-18 -9 -37 -9q-30 0 -56 18t-38 48z" />
<glyph unicode="&#xdb;" horiz-adv-x="1136" d="M57 854q0 156 15 463q2 44 35 74.5t79 29.5q44 -3 75 -36.5t30 -77.5q-15 -304 -15 -453q0 -266 27 -451q13 -95 49 -178q38 -77 84 -108q32 -19 62 -19h4q66 3 127 43q55 38 108 117q46 69 75.5 160.5t35.5 171.5q10 146 10 215q0 46 -6 215q-13 241 -21 295 q-7 44 20 80.5t71 44.5q46 6 82.5 -21t44.5 -71q14 -92 20 -320q2 -42 4 -91t3 -78t1 -54q0 -57 -12 -232q-9 -158 -86 -329q-86 -183 -227 -283q-110 -76 -242 -82h-12h-2q-102 0 -179 55q-63 41 -122 125q-80 126 -109 314q-29 220 -29 481zM299 1572.5q0 38.5 29 69.5 q8 7 18.5 22t25.5 37.5t25 35.5q16 22 41.5 50.5t32.5 37.5q14 17 33 30q32 19 61 19h2q11 0 17 -2q19 -2 39 -17q10 -6 20 -16q7 -6 21 -24q4 -6 9 -14t11.5 -18.5t9.5 -15.5q11 -19 34.5 -49t31.5 -43q7 -10 16 -23.5t12 -17.5q12 -17 17.5 -59.5t-12.5 -71.5 q-30 -35 -70 -35q-35 0 -66 25q-15 14 -39.5 52.5t-41.5 70.5l-17 31q-4 -5 -38.5 -63t-55.5 -79q-29 -29 -68.5 -29t-68.5 29t-29 67.5z" />
<glyph unicode="&#xdc;" horiz-adv-x="1136" d="M55 854q0 156 15 463q2 44 35 74.5t79 29.5q44 -3 75 -36.5t30 -77.5q-15 -304 -15 -453q0 -266 27 -451q13 -95 49 -178q38 -77 84 -108q32 -19 62 -19h4q66 3 127 43q55 38 108 117q46 69 75.5 160.5t35.5 171.5q10 146 10 215q0 46 -6 215q-13 241 -21 295 q-7 44 20 80.5t71 44.5q46 6 82.5 -21t44.5 -71q14 -92 20 -320q2 -42 4 -91t3 -78t1 -54q0 -57 -12 -232q-9 -158 -86 -329q-86 -183 -227 -283q-110 -76 -242 -82h-12h-2q-102 0 -179 55q-63 41 -122 125q-80 126 -109 314q-29 220 -29 481zM313 1610q0 14 6 32l5 13 q20 37 59.5 50t77.5 -5q30 -15 47 -49q31 -60 -8 -111q-29 -39 -82 -39q-32 0 -60 19q-21 18 -32 39q-13 26 -13 51zM604 1602v16q0 41 30 70.5t71 29.5t71.5 -29.5t30.5 -70.5v-16q0 -41 -30.5 -71t-71.5 -30t-71 30t-30 71z" />
<glyph unicode="&#xdd;" horiz-adv-x="663" d="M-74 1300q-3 45 27.5 79.5t75.5 37.5q44 4 78.5 -26t37.5 -74q6 -90 39 -230.5t80 -228.5q26 -51 51 -76q9 0 21 -4q2 1 5 4t5 4q139 116 252 377q41 98 37 129v4q-5 44 24.5 79.5t75.5 39.5q44 5 79.5 -24.5t39.5 -75.5v-23q0 -55 -25 -139q-26 -76 -61 -145 q-78 -159 -180 -285q-75 -92 -142 -135q-30 -18 -32 -19v-583q0 -46 -32.5 -78.5t-76.5 -32.5q-46 0 -78 32.5t-32 78.5v612q-113 86 -185 295q-67 199 -84 407zM186 1544q-15 40 2.5 79t57.5 52q38 15 114 94q29 31 72 32.5t72 -27.5q31 -29 31 -72t-29 -72 q-68 -71 -107 -99q-39 -27 -82 -44q-18 -6 -36 -6q-31 0 -57 17t-38 46z" />
<glyph unicode="&#xde;" horiz-adv-x="907" d="M78 -223q9 115 9.5 300.5t-3 396.5t-2.5 290v10v98q0 26 2 156.5t2 159.5q0 40 28 68t68 28t68.5 -28t28.5 -68q0 -24 -2.5 -151t-2.5 -152q4 1 26 6t54 10t52 6q5 0 33.5 -0.5t35 -1t31 -1.5t33.5 -2.5t29.5 -4.5t32 -7t28.5 -10t31 -14t28 -18q151 -113 174 -260 q6 -30 6 -127q0 -231 -37 -281q-23 -33 -63.5 -62t-79.5 -46q-66 -28 -179.5 -36.5t-197.5 3.5l-30 4q-3 -24 -6.5 -149.5t-6.5 -149.5q-6 -35 -33.5 -57.5t-62.5 -22.5q-10 0 -16 2q-37 6 -59 38t-19 73zM274 692q-1 -65 4 -236t5 -223q6 -4 13.5 -6t17 -3.5t14.5 -2.5 q91 -21 182 -6q3 0 14.5 2t16 2.5t15 3t16.5 4.5t16 6t17.5 8.5t17 11.5t18.5 15q14 13 23 34t12 45.5t3.5 42.5t-0.5 41.5t-1 25.5q0 5 -2 38.5t-2 39.5q-4 54 -39.5 103t-83.5 85q-26 19 -68.5 25t-80.5 1t-64 -16q-14 -6 -26 -12.5t-18 -11.5t-12.5 -10.5t-7.5 -6.5z" />
<glyph unicode="&#xdf;" horiz-adv-x="1058" d="M-76 1376q-12 46 12 87t68 53q201 57 393 57q134 0 234 -33q136 -48 205 -145q53 -74 71 -174q4 -36 4 -52q0 -125 -102 -223q-38 -33 -94 -72q153 -61 235 -155q92 -105 92 -260v-4q0 -180 -112 -324q-60 -78 -149 -127t-195 -49h-2q-77 0 -183 45q-43 17 -67 64t-12 81 q11 28 57.5 44.5t87.5 0.5q21 -8 41.5 -9.5t44.5 1t31 2.5q99 0 166 86q31 38 48 89.5t17 95.5v2q-1 49 -14.5 77.5t-42.5 55.5q-41 39 -148 82q-79 30 -110 45q-48 25 -72 57q-24 31 -27 74v8q0 42 25 84q15 21 41 43q38 32 78 53q99 60 121 90q18 23 18 43q0 7 -2 13 q-8 47 -31 80q-23 30 -55 45q-70 42 -199 39q-17 0 -100 -5q0 -1 -0.5 -40t0.5 -39q-5 -1046 -12 -1395q-1 -46 -35 -78.5t-80 -32.5h-2q-47 0 -80 35t-31 82q11 507 11 1389v36l-5 -2q-45 -12 -86 11.5t-53 68.5z" />
<glyph unicode="&#xe0;" d="M45.5 817q-3.5 49 24.5 86q39 52 98 90t115 41q92 6 178 -67q101 -91 160.5 -262.5t48.5 -301.5q-21 -240 -123 -337q-56 -53 -161.5 -62.5t-170.5 29.5q-80 46 -121 128.5t-41 186.5q0 83 27 146q23 56 72.5 94.5t105.5 44.5q42 5 73 -5t74 -38.5t62 -38.5q0 26 -10 58 t-18.5 48.5t-26.5 51.5q-22 36 -56 57q-29 20 -61 20q-40 -3 -64 -34q-28 -38 -71.5 -42.5t-77.5 27.5q-33 31 -36.5 80zM191 1358q1 43 32 72q31 30 73.5 29t72.5 -32q80 -84 118 -96q40 -15 57.5 -54t2.5 -79q-12 -31 -38.5 -49.5t-57.5 -18.5q-19 0 -37 9 q-19 7 -36.5 15.5t-35 21t-28 19.5t-28.5 24t-23 21t-24 23.5t-20 20.5q-29 31 -28 74zM264 348q0 -39 17 -78q11 -33 28 -41q4 -4 13 -4q33 0 84 49q21 21 28 50q2 7 3.5 14.5t2.5 9.5q1 8 -0.5 11t-10.5 8t-17 12q-22 19 -46.5 30t-47.5 12t-38 -17t-16 -56z" />
<glyph unicode="&#xe1;" d="M46 817q-4 49 24 86q39 52 98 90t115 41q96 6 178 -67q102 -91 161 -262t48 -302q-21 -240 -123 -337q-56 -53 -160.5 -62.5t-171.5 29.5q-79 46 -119.5 128t-42.5 187q0 76 27 146q23 56 72.5 94.5t105.5 44.5q43 5 74 -5t73.5 -38.5t61.5 -38.5q0 62 -55 158 q-22 36 -56 57q-29 20 -59 20q-22 -2 -35 -8t-29 -26q-29 -38 -73 -42.5t-76 27.5q-34 31 -38 80zM170 1198q-15 40 2 79t57 54q39 13 119 96q30 31 72.5 32t73.5 -29q31 -29 32 -72t-30 -74q-34 -36 -52 -53.5t-59 -46.5t-82 -45q-18 -9 -37 -9q-31 0 -57.5 18.5 t-38.5 49.5zM266 348q0 -44 15 -78t28 -41q4 -4 15 -4q31 0 82 49q25 25 28 50q6 18 6 24t1 8t-2 4.5t-5.5 4t-9 5.5t-12.5 9q-21 18 -45.5 29.5t-47.5 12.5t-38 -17t-15 -56z" />
<glyph unicode="&#xe2;" d="M43.5 817q-3.5 49 24.5 86q39 52 98 90t115 41q96 6 178 -67q102 -91 161 -262t48 -302q-21 -240 -123 -337q-56 -53 -160.5 -62.5t-171.5 29.5q-80 46 -121 128.5t-41 186.5q0 76 27 146q23 56 72.5 94.5t105.5 44.5q42 5 73 -5t74 -38.5t62 -38.5q0 26 -10 58 t-18.5 48.5t-26.5 51.5q-22 36 -56 57q-29 20 -61 20q-40 -3 -64 -34q-28 -38 -71.5 -42.5t-77.5 27.5q-33 31 -36.5 80zM86 1192q0 39 31 70q8 8 18.5 22.5t26 38.5t24.5 37q16 22 41.5 50.5t34.5 39.5q15 19 35 31q31 18 61 20h2q3 0 9.5 -1t9.5 -1q15 -3 41 -16 q5 -4 20 -19q4 -5 11 -12.5t10 -11.5q2 -3 13.5 -20.5t17.5 -28.5q12 -20 35 -50.5t32 -44.5q24 -34 31 -43q12 -16 16.5 -60t-14.5 -73q-30 -37 -70 -37t-67 27q-16 14 -41.5 53.5t-43.5 72.5l-18 32q-1 -1 -37 -63t-57 -83q-31 -31 -71.5 -31t-69.5 31q-31 31 -31 70z M264 348q0 -44 15 -78q11 -33 28 -41q4 -4 15 -4q30 0 81 49q22 22 29 50q6 18 6 24q1 8 -0.5 11t-10.5 8t-17 12q-22 19 -46.5 30t-47 12t-37.5 -17t-15 -56z" />
<glyph unicode="&#xe3;" d="M27 1184q0 29 10 49q7 22 14 33q25 38 49 55q46 35 107 35t112 -41q14 -10 27 -30t21 -33.5t14 -12.5q6 2 7 12t4.5 25t15.5 27q25 34 67.5 40t77.5 -20q34 -25 40 -67.5t-20 -77.5q-5 -6 -16.5 -22.5t-19.5 -27.5q-30 -39 -74 -59q-35 -14 -74 -14h-2q-13 0 -37 4 q-34 3 -67.5 20t-49.5 37q-2 2 -4.5 5.5t-3.5 4.5q-10 8 -22 -3t-25.5 -27t-38.5 -21t-61 15q-26 16 -43 49q-8 24 -8 45zM44.5 817q-3.5 49 25.5 86q37 52 96.5 90t114.5 41q96 6 178 -67q103 -91 162.5 -262.5t46.5 -301.5q-7 -99 -36.5 -191t-84.5 -146 q-58 -53 -162.5 -62.5t-169.5 29.5q-81 46 -121.5 128t-42.5 187q3 85 27 146q23 57 73 95t107 44q42 5 72.5 -5t74 -39t60.5 -38q0 62 -55 158q-16 30 -54 57q-33 20 -61 20q-22 -2 -35 -8t-29 -26q-29 -38 -72 -42.5t-77 27.5q-34 31 -37.5 80zM264 348q0 -35 15 -78 q14 -31 28 -41q6 -4 15 -4q30 0 84 49q21 21 28 50q1 4 2 9.5t1.5 8.5t0.5 6q0 6 1 8t-2 4.5t-5.5 4t-9 5.5t-12.5 9q-21 18 -45.5 29.5t-47.5 12.5t-38 -17t-15 -56z" />
<glyph unicode="&#xe4;" d="M45.5 817q-3.5 49 24.5 86q39 52 98 90t115 41q96 6 178 -67q102 -91 161 -262t48 -302q-21 -240 -123 -337q-56 -53 -160.5 -62.5t-171.5 29.5q-80 46 -121 128.5t-41 186.5q0 76 27 146q23 56 72.5 94.5t105.5 44.5q42 5 73 -5t74 -38.5t62 -38.5q0 26 -10 58 t-18.5 48.5t-26.5 51.5q-22 36 -56 57q-29 20 -61 20q-40 -3 -64 -34q-28 -38 -71.5 -42.5t-77.5 27.5q-33 31 -36.5 80zM76 1229q0 11 6 35l4 12q20 39 60.5 52t78.5 -7q33 -14 49 -51q14 -24 12.5 -56t-20.5 -57q-30 -41 -82 -41q-33 0 -63 21q-27 27 -33 41 q-12 24 -12 51zM266 348q0 -44 15 -78q11 -33 28 -41q4 -4 15 -4q31 0 82 49q21 21 28 50q6 18 6 24q1 8 -0.5 11t-10.5 8t-17 12q-22 19 -46.5 30t-47 12t-37.5 -17t-15 -56zM375 1221v16q0 43 29.5 73.5t72.5 30.5t74 -30.5t31 -73.5v-16q0 -43 -31 -74t-74 -31 q-42 0 -72 31t-30 74z" />
<glyph unicode="&#xe5;" d="M45.5 817q-3.5 49 24.5 86q39 52 98 90t115 41q96 6 178 -67q102 -91 161 -262t48 -302q-21 -240 -123 -337q-56 -53 -160.5 -62.5t-171.5 29.5q-80 46 -121 128.5t-41 186.5q0 76 27 146q23 56 72.5 94.5t105.5 44.5q42 5 73 -5t74 -38.5t62 -38.5q0 26 -10 58 t-18.5 48.5t-26.5 51.5q-22 36 -56 57q-29 20 -61 20q-40 -3 -64 -34q-28 -38 -71.5 -42.5t-77.5 27.5q-33 31 -36.5 80zM166 1288q0 39 16 70q17 32 56 57q6 4 18 8q12 12 27 15q21 8 53 8q74 0 117 -57q36 -50 36 -113q0 -89 -65 -137q-39 -29 -86 -29h-2q-71 0 -121 57 q-49 52 -49 121zM266 348q0 -44 15 -78q11 -33 28 -41q4 -4 15 -4q31 0 82 49q21 21 28 50q6 18 6 24q1 8 -0.5 11t-10.5 8t-17 12q-22 19 -46.5 30t-47 12t-37.5 -17t-15 -56zM283 1288q0 -18 18 -43q18 -18 35 -18q5 0 20 6q15 15 15 43q3 25 -13 41q-7 10 -22 12 q-5 0 -21 -4h-4l-10 -10q-4 -2 -14 -12q-4 -8 -4 -15z" />
<glyph unicode="&#xe7;" horiz-adv-x="794" d="M39 473q0 204 88 336q52 80 115 129q75 53 164 53q86 0 190 -51q42 -20 57 -64.5t-6 -87.5q-20 -41 -64 -56t-85 5q-59 29 -92 29q-14 0 -31 -10q-29 -24 -60 -70q-51 -76 -51 -213q0 -67 12 -125q7 -51 25 -86q8 -15 21 -22q13 -9 34 -11q13 -1 46.5 -3.5t48.5 -2.5 q46 2 76 9.5t71 31.5q41 23 86 11t68 -52q25 -40 12.5 -85t-53.5 -68q-78 -47 -156 -62q0 -110 -39 -182q-28 -49 -57 -80q-45 -45 -103 -45q-52 0 -90 33q-9 6 -18 14t-12 10q-40 -3 -73 21.5t-40 64.5q-8 42 17 78t67 43q24 4 35 4q49 0 92 -26q1 0 3 -1t3 -1q8 19 8 63 q-3 0 -7.5 1t-6.5 1q-62 6 -117 33q-50 25 -88 74q-52 70 -74 192q-16 85 -16 168z" />
<glyph unicode="&#xe8;" horiz-adv-x="851" d="M23 346q0 176 118 338q111 155 262 225q74 33 148 33q51 0 104 -18q60 -23 101 -72q55 -63 55 -158q0 -122 -94 -213q-72 -64 -165 -101t-194 -38q-56 0 -108 14v-10v-20q3 -34 31 -62t67 -35q14 -2 41 -2q94 -3 254 72q41 20 85.5 3t64.5 -60q20 -42 3 -85.5t-59 -64.5 q-64 -28 -107 -44.5t-111 -32t-130 -15.5q-35 0 -76 6q-108 15 -192 96q-84 84 -96 203q-2 14 -2 41zM338 569h20q50 -1 110 23t93 57q10 7 17.5 22t5.5 23q0 11 -2 15q-1 0 -2 0.5t-2 1.5t-3 2q-3 0 -11 1t-13 1q-28 0 -51 -10q-88 -43 -162 -136zM389 1263.5 q1 43.5 33 73.5q31 29 73.5 29t73.5 -31q77 -85 119 -98q40 -15 58.5 -55t3.5 -80q-12 -30 -40 -49t-59 -19q-21 0 -37 8q-26 10 -49.5 23t-47 32t-35 29t-36 34t-28.5 28q-30 32 -29 75.5z" />
<glyph unicode="&#xe9;" horiz-adv-x="851" d="M23 346q0 -27 2 -41q8 -115 96 -203q85 -81 192 -96q41 -6 76 -6q89 0 170 24.5t176 67.5q43 20 60 64.5t-2 85.5q-20 43 -64.5 60t-87.5 -3q-160 -74 -252 -72q-27 0 -41 2q-38 6 -67 35q-28 28 -31 62q0 14 -2 20q0 2 1 5.5t1 4.5q49 -14 108 -14q101 1 194 38t165 101 q91 88 94 213q0 95 -57 158q-38 49 -99 72q-52 18 -104 18q-74 0 -148 -33q-151 -70 -262 -225q-118 -162 -118 -338zM338 569q69 90 162 136q23 10 51 10q6 0 13.5 -1t8.5 -1l7 -4q4 -4 4 -15q2 -8 -5.5 -23t-17.5 -22q-33 -33 -93 -57t-110 -23h-20zM367 1102 q-15 40 2.5 80t58.5 55q36 12 119 98q29 31 72.5 31t74.5 -29q31 -31 32 -74t-30 -75l-23 -23l-28 -28t-27.5 -25t-35 -27.5t-36.5 -22t-44 -20.5q-16 -8 -37 -8q-32 0 -59 18.5t-39 49.5z" />
<glyph unicode="&#xea;" horiz-adv-x="851" d="M25 346q0 176 118 338q111 155 263 225q74 33 147 33q51 0 104 -18q60 -23 101 -72q55 -63 55 -158q0 -122 -94 -213q-72 -64 -165 -101t-194 -38q-56 0 -108 14v-10v-20q3 -34 31 -62t67 -35q14 -2 41 -2q94 -3 254 72q41 20 85.5 3t64.5 -60q20 -42 3 -85.5t-59 -64.5 q-64 -28 -107 -44.5t-111 -32t-130 -15.5q-35 0 -76 6q-108 15 -192 96q-84 84 -96 203q-2 14 -2 41zM286 1096.5q0 39.5 31 70.5q11 11 72 99q17 24 43.5 53.5t34.5 38.5q24 24 33 31q30 18 63 20h2q3 0 9 -1t8 -1q18 -3 43 -18q6 -3 12 -9l8 -8q12 -15 21 -24 q10 -16 30 -52q10 -16 22 -31.5t26 -33.5t22 -29q8 -13 17.5 -26t11.5 -17q7 -9 13 -33.5t5 -55t-14 -46.5q-14 -17 -30.5 -22t-43.5 -5q-46 -1 -66 17q-16 14 -41.5 54t-43.5 73l-17 33q-8 -12 -42 -69.5t-54 -78.5q-31 -31 -72 -31t-72 31t-31 70.5zM340 569h20 q50 -1 110 23t93 57q10 7 17.5 22t5.5 23q0 11 -2 15q-1 0 -2.5 1.5t-3.5 2.5q-2 0 -11 1t-14 1q-28 0 -51 -10q-88 -43 -162 -136z" />
<glyph unicode="&#xeb;" horiz-adv-x="851" d="M29 346q0 176 118 338q111 155 263 225q74 33 147 33q53 0 105 -18q60 -23 98 -72q57 -63 57 -158q-3 -125 -94 -213q-152 -136 -358 -139q-60 0 -109 14q0 -1 -1 -4.5t-1 -5.5q2 -6 2 -20q3 -34 31 -62q29 -29 67 -35q14 -2 41 -2q92 -2 252 72q43 20 87.5 3t64.5 -60 q19 -41 2 -85.5t-60 -64.5q-61 -27 -105 -44t-111.5 -32.5t-129.5 -15.5q-35 0 -76 6q-107 15 -192 96q-88 88 -96 203q-2 14 -2 41zM293 1135q0 10 6 34l6 11q20 40 60.5 53.5t78.5 -6.5q38 -17 50 -51q15 -26 13.5 -57t-20.5 -56q-30 -43 -84 -43q-33 0 -63 20 q-21 18 -33 41q-14 22 -14 54zM344 569h21q50 -1 109.5 23t92.5 57q10 7 17.5 22t5.5 23q0 11 -4 15q0 2 -6 4q-1 0 -9 1t-14 1q-28 0 -51 -10q-93 -46 -162 -136zM594 1124v19q0 43 30.5 73.5t73.5 30.5q44 0 75.5 -30.5t31.5 -73.5v-19q0 -43 -31.5 -73.5t-75.5 -30.5 q-43 0 -73.5 30.5t-30.5 73.5z" />
<glyph unicode="&#xec;" horiz-adv-x="348" d="M-35 1235q-1 -44 29 -76q2 -2 28 -27.5t36.5 -34.5t34.5 -28.5t47.5 -32.5t49.5 -24q18 -6 37 -6q33 0 61 18t38 49q17 39 -1.5 79.5t-58.5 55.5q-37 11 -121 99q-29 31 -72.5 32t-74.5 -30q-32 -30 -33 -74zM43 88q18 136 18 377v41v4v59q0 55 -2 78q0 14 -2 31t-2 18 q-15 43 4 85t62 59q44 17 87 -2.5t60 -63.5q5 -12 15 -53q1 -8 2 -25t2 -26q2 -33 2 -101v-55v-6v-43q0 -259 -19 -408q-6 -42 -38 -70t-74 -28h-17q-46 6 -75 44t-23 85z" />
<glyph unicode="&#xed;" horiz-adv-x="352" d="M4 1073q-17 39 1 79.5t58 55.5q37 11 121 99q29 31 73 32t75 -30q32 -30 33 -74t-29 -76q-5 -5 -24 -23.5t-28 -27t-29 -25.5t-35 -27t-37 -22.5t-44 -21.5q-18 -6 -37 -6q-33 0 -60.5 18t-37.5 49zM45 88q-6 -47 22.5 -85t75.5 -44h15q43 0 75.5 28t36.5 70 q21 164 21 408v43v6v55q0 68 -2 101q-3 27 -6 51q-4 30 -13 53q-17 44 -60 63.5t-87 2.5q-43 -17 -62 -59t-4 -85q0 -3 4 -49v-78v-59v-4v-41q0 -256 -16 -377zM57 692z" />
<glyph unicode="&#xee;" horiz-adv-x="352" d="M-72 1066q0 -40 31 -71t71.5 -31t71.5 31q22 22 58 81t41 67q67 -129 102 -160q9 -7 26 -11t29 -4l13 -1q26 0 41.5 4.5t29.5 21.5q20 31 15.5 74.5t-17.5 60.5q-8 10 -30 46q-6 9 -21.5 28.5t-26.5 34.5t-20 31q-18 27 -33 51q-12 16 -20 24q-11 11 -21 19 q-26 13 -43 16q-4 2 -16 2h-2q-34 -2 -64 -20q-9 -5 -15 -10.5t-11.5 -12t-7.5 -8.5q-8 -9 -34.5 -38.5t-43.5 -53.5q-63 -91 -72 -100q-31 -31 -31 -71zM47 88q16 138 16 377v41v4v59q0 55 -2 78q0 37 -4 49q-15 43 4.5 85t63.5 59q43 17 85.5 -2.5t61.5 -63.5 q9 -23 13 -53q4 -32 4 -51q2 -33 2 -101v-55v-6v-43q0 -259 -19 -408q-6 -42 -38 -70t-74 -28h-15q-47 6 -75.5 44t-22.5 85z" />
<glyph unicode="&#xef;" horiz-adv-x="352" d="M-68 1104q0 21 7 35l4 12q20 40 61.5 53.5t79.5 -6.5q37 -16 49 -51q15 -26 13.5 -57.5t-19.5 -57.5q-37 -43 -86 -43q-31 0 -61 23q-23 16 -35 39q-13 29 -13 53zM45 88q18 136 18 377v41q-2 2 -2 4q2 16 2 59q0 14 -1 40.5t-1 37.5q-4 46 -4 49q-15 43 4 85t62 59 q44 17 87 -2.5t60 -63.5q5 -12 15 -53q1 -8 2 -25t2 -26q2 -33 2 -101v-55v-6v-43q0 -241 -19 -408q-6 -43 -38.5 -70.5t-75.5 -27.5h-15q-46 6 -75 44t-23 85zM57 692zM236 1096q0 -44 30.5 -75.5t73.5 -31.5t73.5 31.5t30.5 75.5v16q0 44 -30.5 75.5t-73.5 31.5 t-73.5 -31.5t-30.5 -75.5v-16z" />
<glyph unicode="&#xf1;" horiz-adv-x="776" d="M39 940q0 21 2 31q4 26 12 45q13 29 41 49q38 26 84 17.5t72 -46.5q15 -24 18 -53q22 22 42 32.5t55 14.5q36 3 66.5 -7.5t43.5 -20.5t42 -38q6 -5 9 -8q13 -12 23.5 -24t20.5 -27.5t15.5 -24t15.5 -27.5t13 -24q31 -57 49.5 -120.5t24 -106t10.5 -110.5q7 -115 7 -193 q0 -89 -7 -215q-2 -46 -35 -76.5t-79 -27.5q-46 2 -78 36t-29 80q6 102 6 203q0 90 -6 176q-11 189 -57 273q-20 36 -33 49q-27 27 -43 4q-17 -22 -31 -60q-32 -86 -32 -288v-2v-19q0 -28 1 -100.5t1 -108.5q4 -126 4 -137q3 -35 -13.5 -65.5t-48.5 -45.5q-27 -12 -49 -12 q-38 0 -63 21q-21 15 -27 24q-2 2 -14 27q-4 10 -4 18q-2 6 -2 10v7q-3 6 -3 10v29q0 11 -1 42.5t-1 51.5q-4 144 -4 227v12q0 33 1 90.5t1 88.5q0 95 -6 180q-1 3 -2 10t-2.5 21t-3.5 24q-6 81 -6 84zM74 1247q0 19 10 49q3 9 14 31q20 33 52 57q47 35 106 35 q62 -3 113 -41q13 -10 25 -30.5t20 -33.5t14 -11q6 1 7.5 10t6 24.5t15.5 26.5q25 35 67.5 41.5t77.5 -19.5q34 -26 40.5 -68.5t-19.5 -76.5q-27 -38 -37 -49q-29 -41 -74 -59q-53 -21 -70 -21h-2q-11 0 -39 4q-33 3 -67 23t-51 41q-1 1 -5.5 4.5t-5.5 5.5q-10 8 -22 -3.5 t-25 -28t-38.5 -22t-61.5 14.5q-28 17 -43 51q-8 24 -8 45z" />
<glyph unicode="&#xf2;" horiz-adv-x="761" d="M33 334q0 99 22 223q34 220 117 338q1 2 12 16t17 20.5t18 19t26 23t31 19.5q42 21 80 21q11 0 35 -4q4 9 15 28q26 40 72.5 50.5t86.5 -15.5q88 -59 119 -176q23 -81 23 -184q0 -45 -13 -185q-12 -119 -49 -227q-58 -158 -145 -240q-84 -77 -195 -77h-2q-35 0 -80 10 q-57 14 -104 61q-38 41 -58 92q-28 77 -28 187zM264 334q0 -40 8 -86q2 -10 13 -31q8 -2 18 -2q17 0 43 18q30 30 55 84q50 100 64 234q10 107 10 162q0 56 -10 104q-35 -41 -92 -41q-2 -2 -6.5 -7t-6.5 -7q-54 -78 -77 -240q-19 -143 -19 -188zM282.5 1473q0.5 44 32.5 75 t76.5 29.5t75.5 -33.5q78 -85 121 -98q41 -15 58.5 -56t2.5 -81q-12 -32 -39.5 -51t-60.5 -19q-21 0 -37 8q-43 17 -85.5 47.5t-60 48t-53.5 54.5q-31 32 -30.5 76z" />
<glyph unicode="&#xf3;" horiz-adv-x="757" d="M33 334q0 -116 28 -187q21 -55 58 -92q47 -47 104 -61q45 -10 80 -10h2q107 0 195 77q89 84 143 240q40 116 51 227q11 118 11 185q0 101 -21 184q-35 118 -119 176q-41 26 -88.5 15.5t-73.5 -50.5q-10 -16 -12 -28q-24 4 -37 4q-36 0 -78 -21q-56 -31 -104 -98 q-85 -122 -119 -338q-20 -150 -20 -223zM264 334q0 81 19 188q23 167 77 240q2 2 6.5 7t6.5 7q57 0 92 41q8 -39 8 -104q0 -55 -10 -162q-3 -47 -20 -114.5t-42 -119.5q-26 -57 -57 -84q-23 -18 -41 -18q-12 0 -18 2q-11 21 -13 31q-8 31 -8 86zM301 1309q-17 40 1.5 81 t59.5 56q39 13 121 98q31 32 75.5 33.5t76.5 -29.5t32.5 -75t-30.5 -76q-3 -3 -20 -20.5t-24 -24t-24 -22t-29 -24.5t-29 -21t-35.5 -21t-37.5 -17q-16 -8 -39 -8q-31 0 -58.5 19t-39.5 51z" />
<glyph unicode="&#xf4;" horiz-adv-x="757" d="M31 334q0 73 20 223q34 216 119 338q48 67 104 98q42 21 78 21q13 0 37 -4q2 12 12 28q26 40 73.5 50.5t88.5 -15.5q84 -58 119 -176q20 -79 20 -184q0 -77 -10 -185q-11 -111 -51 -227q-54 -156 -143 -240q-88 -77 -195 -77h-2q-35 0 -80 10q-57 14 -104 61 q-37 37 -58 92q-28 71 -28 187zM238 1302q0 40 32 72q16 16 72 101q13 18 26 33.5t29.5 33.5t24.5 27q24 24 33 30q1 1 9 5.5t13.5 7t17 5t25.5 3.5h2q13 0 19 -2q15 -3 41 -16q5 -4 12 -10.5t10 -8.5q12 -15 21 -27q6 -8 17 -25t15 -24q12 -22 39 -57t31 -41q24 -34 31 -43 q13 -19 17.5 -62.5t-15.5 -76.5q-30 -35 -72 -35q-39 0 -70 25q-16 15 -42 55.5t-44 73.5l-18 34q-7 -9 -41.5 -68t-56.5 -81q-32 -32 -73.5 -32t-72.5 32q-32 31 -32 71zM262 334q0 -55 8 -86q2 -10 13 -31q6 -2 18 -2q18 0 41 18q31 27 57 84q25 52 42 119.5t20 114.5 q10 107 10 162q0 65 -8 104q-35 -41 -92 -41q-2 -2 -6.5 -7t-6.5 -7q-54 -73 -77 -240q-19 -143 -19 -188z" />
<glyph unicode="&#xf5;" horiz-adv-x="757" d="M31 334q0 73 20 223q34 216 119 338q48 67 104 98q42 21 78 21q13 0 37 -4q2 12 12 28q26 40 73.5 50.5t88.5 -15.5q84 -58 119 -176q20 -79 20 -184q0 -77 -10 -185q-11 -111 -51 -227q-54 -156 -143 -240q-88 -77 -195 -77h-2q-35 0 -80 10q-57 14 -104 61 q-37 37 -58 92q-28 71 -28 187zM182 1294q0 28 8 52q11 22 17 32q22 36 51 58q45 34 111 34q61 0 114 -40q14 -11 27 -32t21.5 -34.5t15.5 -11.5q6 1 6.5 10.5t4.5 25.5t15 27q26 35 70.5 42t79.5 -19t41.5 -70.5t-19.5 -79.5q-2 -2 -36 -51q-39 -44 -78 -61 q-38 -15 -76 -15h-2q-27 0 -39 2q-35 4 -69 23t-50 39l-10 10q-10 9 -22 -3t-25.5 -28.5t-39.5 -22.5t-62 15q-29 15 -46 53q-8 18 -8 45zM262 334q0 -55 8 -86q2 -10 13 -31q6 -2 18 -2q18 0 41 18q31 27 57 84q25 52 42 119.5t20 114.5q10 107 10 162q0 65 -8 104 q-35 -41 -92 -41q-2 -2 -6.5 -7t-6.5 -7q-54 -73 -77 -240q-19 -107 -19 -188z" />
<glyph unicode="&#xf6;" horiz-adv-x="757" d="M33 334q0 110 20 223q34 215 117 338q2 3 10 13.5t13 16t14.5 16t18.5 18t22 17t28 17.5q42 21 78 21q15 0 35 -4q6 14 14 28q26 40 73 50.5t87 -15.5q88 -59 119 -176q23 -81 23 -184q0 -45 -13 -185q-12 -119 -49 -227q-58 -157 -143 -240q-88 -77 -197 -77h-2 q-36 0 -78 10q-59 14 -106 61q-40 43 -56 92q-28 71 -28 187zM178 1339q0 13 6 37l6 13q20 39 62 53t82 -6q37 -19 49 -54q34 -60 -8 -114q-30 -43 -84 -43q-37 0 -66 20q-20 16 -32 41q-15 27 -15 53zM264 334q-2 -38 6 -86q2 -10 13 -31q8 -2 18 -2q20 0 43 18 q35 35 55 84q50 100 64 234q10 107 10 162q0 65 -8 104q-38 -41 -94 -41q-8 -8 -11 -14q-51 -70 -79 -240q-18 -138 -17 -188zM485 1331v19q0 43 32.5 74.5t76.5 31.5q43 0 74.5 -31.5t31.5 -74.5v-19q0 -44 -31.5 -75t-74.5 -31q-45 0 -77 31t-32 75z" />
<glyph unicode="&#xf7;" horiz-adv-x="909" d="M70 592q-15 43 5 84.5t64 56.5q52 17 117 17q30 0 76 -3.5t57 -3.5h2h8q232 0 377 -49q43 -15 63 -57t5 -86q-12 -33 -41.5 -53.5t-65.5 -20.5q-19 0 -37 6q-101 37 -301 37h-8h-2h-2q-25 0 -69.5 3t-61.5 3q-11 0 -21.5 -1t-16.5 -2l-7 -1q-43 -15 -84.5 5.5t-56.5 64.5 zM335 374q0 47 32 79q32 34 78.5 34t78.5 -34q5 -2 8 -9q34 -32 34 -78.5t-34 -78.5q-29 -33 -77 -33q-47 0 -80 33l-8 8q-32 32 -32 79zM340 958q20 42 64 58t85 -4q14 -7 23 -13q26 -15 39 -49q0 -1 1 -4t1 -4q15 -34 5.5 -71t-40.5 -62q-33 -23 -67 -23q-55 0 -91 45 q-1 2 -4 6.5t-4 6.5q-40 53 -12 114z" />
<glyph unicode="&#xf8;" horiz-adv-x="757" d="M-26 153q-3 36 20 64q6 8 19.5 23.5t19.5 23.5q-2 23 -2 70q0 73 20 223q34 215 117 338q2 3 10 13.5t13 16t14.5 16t18.5 18t22 17t28 17.5q42 21 78 21q15 0 35 -4q6 14 14 28q26 40 73 50.5t87 -15.5q53 -35 88 -96q2 2 6.5 6t6.5 6q28 25 64.5 22.5t61.5 -30.5 q24 -27 21.5 -65t-29.5 -62q-23 -17 -80 -88q2 -18 2 -53q0 -56 -12 -185q-12 -119 -49 -227q-59 -161 -143 -240q-88 -77 -197 -77h-2q-36 0 -78 10q-59 14 -106 61q-12 16 -19 23q-15 -6 -35 -6q-32 0 -55 20q-29 25 -32 61zM268 248q2 -10 13 -31q8 -2 18 -2q20 0 43 18 q35 35 55 84q27 54 45 129q-51 -56 -174 -188v-10zM281 535q75 81 155 180q8 9 33 43q0 11 -6 59q-38 -41 -94 -41q-8 -8 -11 -14q-50 -67 -77 -227z" />
<glyph unicode="&#xf9;" horiz-adv-x="815" d="M51 672v2v96q0 78 6 119q11 40 15 49q17 33 32 47q35 32 83.5 30.5t80.5 -36.5q26 -28 31 -64t-12 -67v-10q-2 -18 -2 -68v-35v-10v-45q0 -4 2 -91t6 -122q11 -173 38 -214q11 -15 23 -17q41 -3 72.5 17t46.5 50.5t24 61.5t11 53l2 22q5 22 8.5 42t4.5 42l1.5 33t0 37.5 t-0.5 32.5q-5 138 -43 227q-19 44 0.5 89.5t63.5 64.5t88 0t63 -64q29 -67 45.5 -155.5t16.5 -161.5q0 -152 -37 -267q-4 -15 -18.5 -49.5t-26.5 -62.5l-12 -27q-56 -106 -119 -162q-8 -8 -24 -19.5t-67.5 -30.5t-107.5 -17h-2h-6q-70 3 -125 51q-42 37 -68 90 q-37 70 -63 205q-24 131 -31 334zM176.5 1388.5q0.5 44.5 32.5 75.5t76 30.5t75 -32.5q84 -87 123 -100q41 -17 60 -57.5t4 -81.5q-12 -32 -40.5 -51t-62.5 -19q-20 0 -36 8q-43 17 -86 48t-60.5 48t-54.5 56q-31 31 -30.5 75.5z" />
<glyph unicode="&#xfa;" horiz-adv-x="815" d="M51 768l2 -96v-2q7 -203 31 -334q21 -123 63 -203q26 -53 68 -90q52 -48 123 -51h8q56 -2 105.5 15t71.5 35l22 17q65 58 119 160q45 108 55 141q37 115 37 265q0 73 -16 161t-44 156q-19 44 -63 62.5t-88 -0.5q-45 -19 -64 -63.5t0 -88.5q38 -89 43 -227q0 -6 0.5 -32.5 t0 -37.5l-1.5 -33t-4.5 -41.5t-8.5 -40.5q0 -9 -1.5 -23t-11 -50.5t-24.5 -64t-45.5 -48.5t-71.5 -18q-49 4 -62 220q-1 6 -1 9q-6 89 -6 213v45q-2 2 -2 10v35q0 50 2 68q0 1 1 4t1 4q15 32 10 69t-29 64q-34 34 -82 35.5t-84 -31.5q-22 -23 -30 -45q-12 -31 -15 -49 q-2 -13 -8 -119zM229 1219q-15 41 3 81.5t59 57.5q41 12 123 98q31 32 75.5 33.5t75.5 -29.5q32 -31 33.5 -75.5t-29.5 -75.5q-71 -74 -112 -104q-42 -30 -88 -48q-16 -8 -39 -8q-33 0 -61 19t-40 51z" />
<glyph unicode="&#xfb;" horiz-adv-x="815" d="M51 670v2v96q0 78 6 119q11 40 15 49q15 29 32 45q36 33 83.5 31.5t80.5 -35.5q26 -28 31 -64.5t-12 -68.5v-8q-2 -18 -2 -68v-35v-10v-45q0 -124 6 -213q11 -171 39 -212q11 -16 24 -17q41 -3 71.5 17t45.5 50.5t24 61.5t11 53l2 22q5 21 8.5 40.5t4.5 41.5l1.5 33 t0 37.5t-0.5 32.5q0 125 -41 227q-19 44 -0.5 88.5t62.5 63.5t89 0.5t64 -62.5q28 -68 44 -156t16 -161q0 -150 -37 -265l-57 -141q-53 -101 -117 -160q-8 -8 -24 -19.5t-67.5 -30.5t-107.5 -17h-2h-8q-68 3 -123 51q-42 37 -68 90q-36 69 -63 203q-24 131 -31 334z M79 1212.5q0 40.5 32 71.5q4 4 73 102q17 24 45.5 57t32.5 38q14 17 35 32q32 19 65 19h21q21 -4 41 -19q10 -6 22 -18q4 -5 11 -13t10 -12q15 -24 33 -51q14 -22 39.5 -57t29.5 -41q16 -26 31 -45q7 -9 13.5 -34t5.5 -56t-15 -47q-34 -37 -74 -37q-39 0 -69 24 q-16 15 -42.5 56.5t-44.5 75.5l-18 34q-1 -1 -39.5 -65t-60.5 -86q-31 -32 -72.5 -32t-72.5 32q-32 31 -32 71.5z" />
<glyph unicode="&#xfc;" horiz-adv-x="815" d="M55 768q0 64 8 119q4 26 13 49q14 28 33 45q36 33 83 31.5t80 -35.5q26 -27 31.5 -64t-10.5 -69q-2 -2 -2 -8q-2 -18 -2 -68v-35v-10v-45q0 -4 2 -91t6 -122q11 -173 38 -213q11 -14 23 -16q41 -3 72 17t46 50.5t24.5 61.5t11.5 53l2 22q5 21 7.5 41t3.5 41t1.5 33.5 t0 37t-0.5 32.5q0 132 -41 227q-19 44 0 88.5t64 63.5q44 19 88 0.5t63 -62.5q28 -68 44 -156t16 -161q0 -150 -37 -265l-57 -141q-49 -99 -117 -160q-8 -8 -24 -19.5t-67.5 -30.5t-107.5 -17h-2h-6q-70 3 -125 51q-40 35 -67 90q-42 85 -62 203q-31 157 -31 334v2 q-2 63 -2 96zM115 1251q0 23 6 35l4 12q20 40 62.5 55t82.5 -5q33 -17 49 -54q15 -26 13.5 -58t-21.5 -58q-30 -43 -86 -43q-38 0 -63 22q-24 16 -35 41q-12 24 -12 53zM424 1241v19q0 44 31 76t75 32t76.5 -32t32.5 -76v-19q0 -43 -32.5 -74.5t-76.5 -31.5t-75 31.5 t-31 74.5z" />
<glyph unicode="&#xfd;" horiz-adv-x="747" d="M57 731q0 -347 17 -440q19 -98 47 -154q24 -43 59 -69q43 -37 107 -37q125 0 137 2q-5 -148 -34.5 -424.5t-35.5 -401.5q-3 -44 49.5 -81.5t104.5 -40.5h6q46 0 80 32t37 78q9 165 17 513.5t18 527.5q1 24 11.5 124.5t10.5 163.5q0 344 -10 369q-15 42 -67.5 56 t-103 -9.5t-58.5 -77.5q-3 -23 -2.5 -54t2.5 -80t2 -58q0 -52 -7.5 -153.5t-15.5 -141.5q-4 -30 -18 -66l-43 -6q-21 -5 -36 9.5t-23 47t-13 68t-6 84t-0.5 84t1.5 78.5t1 57q0 51 1 115t1 74q0 47 -34 81.5t-81 34.5q-49 0 -83 -34t-34 -82q0 -5 -1 -34t-2 -72t-1 -83z M221 1171q-17 41 2 83t60 57q40 13 120 100q32 31 77 32t77 -30t32.5 -75t-30.5 -76l-20.5 -20.5t-24.5 -24t-24 -22.5t-29 -25t-29.5 -21.5t-36 -21.5t-37.5 -17q-24 -8 -36 -8q-34 0 -61.5 18.5t-39.5 50.5z" />
<glyph unicode="&#xfe;" horiz-adv-x="829" d="M41 115q15 90 22 199.5t8 186t0 202.5t-1 182v10v98q0 26 1 91t1 94q0 40 28 68t68 28t68 -28t28 -68q0 -24 -1 -83t-1 -83q6 2 19 2q151 -3 292 -103q151 -113 175 -266q6 -30 6 -63q0 -95 -52 -166q-46 -66 -124 -99q-111 -47 -289 -47q-21 0 -41 2q-3 -24 -8.5 -95 t-8.5 -95q-6 -35 -33.5 -57.5t-62.5 -22.5q-10 0 -16 2q-39 6 -62 39t-16 72zM256 463q2 -1 15.5 -0.5t17.5 0.5q99 0 170 18q65 17 88 47q14 21 14 54q0 8 -4 32q-10 76 -98 142q-89 66 -178 63h-19q-1 -66 0 -118.5t-0.5 -118.5t-5.5 -119z" />
<glyph unicode="&#xff;" horiz-adv-x="747" d="M59 725q0 54 1 120l1 66q0 48 34 82.5t83 34.5q47 0 81 -35t34 -82q0 -9 -1 -42.5t-1.5 -64t0.5 -79.5q0 -6 -1.5 -56t-1.5 -79.5t0.5 -82t5.5 -85t13 -66t23 -48t35 -9.5l43 6q11 23 18 64q9 42 17 144t8 151q0 3 -3.5 89.5t-1.5 102.5q9 53 59.5 76.5t102.5 9.5t68 -55 q10 -29 10 -369q0 -61 -10.5 -162t-11.5 -125q-11 -178 -20 -523.5t-17 -508.5q-1 -47 -35 -78.5t-80 -31.5h-6q-52 3 -103.5 41t-50.5 82q6 124 35.5 398.5t34.5 420.5q-10 -2 -135 -2q-64 0 -107 37q-37 27 -57 69q-30 53 -49 152q-15 91 -15 438zM119 1247q0 13 6 37 l6 12q21 39 62 53t81 -6q33 -17 50 -51q33 -61 -9 -116q-30 -43 -84 -43q-36 0 -65 20q-20 16 -35 41q-12 27 -12 53zM426 1239v18q0 44 31.5 75.5t74.5 31.5q44 0 75.5 -31.5t31.5 -75.5v-18q0 -44 -31.5 -75t-75.5 -31q-43 0 -74.5 31t-31.5 75z" />
<glyph unicode="&#x178;" horiz-adv-x="663" d="M-70 1300q-3 45 27.5 79.5t75.5 37.5q44 4 79 -26t38 -74q6 -91 38.5 -231.5t79.5 -227.5q26 -51 51 -76q9 0 21 -4q2 1 5 4t5 4q29 23 86 95q100 131 166 282q41 98 37 129v4q-5 44 24.5 79.5t75.5 39.5q44 5 79.5 -24.5t39.5 -75.5v-23q0 -58 -24 -139 q-24 -71 -62 -145q-78 -159 -180 -285q-76 -93 -141 -135q-25 -15 -33 -19v-583q0 -46 -32.5 -78.5t-76.5 -32.5q-46 0 -78 32.5t-32 78.5v612q-45 34 -82 84q-58 86 -103 211q-67 199 -84 407zM141 1614q0 17 4 33l7 12q19 37 58.5 50.5t76.5 -5.5q31 -14 49 -49 q31 -60 -8 -111q-30 -41 -82 -41q-35 0 -62 21q-15 12 -32 39q-14 28 -11 51zM432 1604v18q0 41 30 70.5t73 29.5q41 0 70.5 -29.5t29.5 -70.5v-18q0 -41 -29.5 -71t-70.5 -30q-43 0 -73 30t-30 71z" />
<glyph unicode="&#x2c6;" horiz-adv-x="636" d="M53 1167.5q0 38.5 31 67.5q7 7 70 98q5 7 75 88q15 19 33 31q30 18 62 18h2h16q15 -3 41 -16q10 -8 20 -18q4 -5 11 -13t10 -12q5 -7 15.5 -24t15.5 -25q11 -19 34 -49.5t31 -42.5q24 -34 31 -43q11 -16 15.5 -58t-13.5 -73q-30 -35 -70 -35q-38 0 -65 24q-16 14 -41 53 t-43 71l-17 32q-5 -7 -39 -64t-55 -79q-31 -29 -70.5 -29t-68.5 29q-31 31 -31 69.5z" />
<glyph unicode="&#x2dc;" horiz-adv-x="655" d="M49 1182q0 17 10 47q6 18 15 33q23 34 49 53q43 35 104 35q60 0 111 -41q13 -10 25 -29t20 -32.5t14 -12.5t7.5 10t5 24.5t14.5 26.5q26 34 67.5 41t75.5 -18q34 -27 40.5 -68t-19.5 -75q-2 -3 -14.5 -21t-20.5 -29q-38 -42 -74 -59q-40 -14 -73 -14q-11 0 -39 4 q-32 3 -64.5 20t-48.5 37l-10 10q-9 8 -21 -3t-25 -27.5t-38 -21.5t-60 15q-26 15 -43 50q-8 24 -8 45z" />
<glyph unicode="&#x2000;" horiz-adv-x="967" />
<glyph unicode="&#x2001;" horiz-adv-x="1935" />
<glyph unicode="&#x2002;" horiz-adv-x="967" />
<glyph unicode="&#x2003;" horiz-adv-x="1935" />
<glyph unicode="&#x2004;" horiz-adv-x="645" />
<glyph unicode="&#x2005;" horiz-adv-x="483" />
<glyph unicode="&#x2006;" horiz-adv-x="322" />
<glyph unicode="&#x2007;" horiz-adv-x="322" />
<glyph unicode="&#x2008;" horiz-adv-x="241" />
<glyph unicode="&#x2009;" horiz-adv-x="387" />
<glyph unicode="&#x200a;" horiz-adv-x="107" />
<glyph unicode="&#x2010;" horiz-adv-x="765" d="M68 549q0 47 33.5 81t80.5 34h410q47 0 81 -34t34 -81t-34 -81t-81 -34h-410q-47 0 -80.5 34t-33.5 81z" />
<glyph unicode="&#x2011;" horiz-adv-x="765" d="M68 549q0 47 33.5 81t80.5 34h410q47 0 81 -34t34 -81t-34 -81t-81 -34h-410q-47 0 -80.5 34t-33.5 81z" />
<glyph unicode="&#x2012;" horiz-adv-x="765" d="M68 549q0 47 33.5 81t80.5 34h410q47 0 81 -34t34 -81t-34 -81t-81 -34h-410q-47 0 -80.5 34t-33.5 81z" />
<glyph unicode="&#x2013;" horiz-adv-x="1046" d="M94 563q0 47 34.5 81t80.5 34h2q56 0 193.5 6t224.5 6q123 0 231 -12q47 -4 77 -42t24 -85q-4 -47 -42 -76.5t-85 -23.5q-102 11 -205 8q-85 1 -223 -4.5t-195 -5.5h-2q-46 0 -80.5 33.5t-34.5 80.5z" />
<glyph unicode="&#x2014;" horiz-adv-x="1361" d="M70 563q0 47 33.5 81t80.5 34q34 0 496.5 3t495.5 3q47 0 80.5 -34t33.5 -81t-33.5 -80.5t-80.5 -33.5q-33 0 -495.5 -3t-496.5 -3q-47 0 -80.5 33.5t-33.5 80.5z" />
<glyph unicode="&#x2018;" horiz-adv-x="368" d="M37 1124q2 15 3.5 28.5t1.5 16t2 10.5t3.5 11.5l7.5 17.5q7 9 18 26t16.5 23t16 15t23.5 12t31 2q50 -3 78 -36q23 -28 0 -42l-2 -4q-1 -4 -3 -11t-3 -16t-1 -22t2 -27q0 -23 35 -60.5t47 -63.5q19 -43 1.5 -87.5t-60.5 -64.5q-21 -8 -47 -8q-33 0 -62.5 18t-42.5 49 q-6 14 -21.5 46.5t-22.5 50t-14 50t-7 66.5z" />
<glyph unicode="&#x2019;" horiz-adv-x="372" d="M60.5 898q-1.5 15 21.5 56l18 47q12 37 9 60.5t-12 59t-9 50.5v7q-1 47 31.5 82t79.5 38q47 2 82 -30.5t36 -79.5v-17q0 -109 -63 -247q-27 -64 -96 -64q-45 0 -56 4q-40 19 -41.5 34z" />
<glyph unicode="&#x201a;" horiz-adv-x="370" d="M50.5 -122q-1.5 15 21.5 56l18 48q12 37 9 60.5t-12 59t-9 50.5v6q-2 47 30.5 82.5t79.5 38.5q47 2 82.5 -31t36.5 -80v-16q0 -110 -63 -248q-27 -64 -97 -64q-44 0 -55 4q-40 19 -41.5 34z" />
<glyph unicode="&#x201c;" horiz-adv-x="684" d="M55 1108q7 55 10 63q1 1 9 21q7 9 18 25.5t16.5 23.5t15.5 15.5t23 11.5t31 2q50 -3 78 -36q23 -28 0 -42l-2 -4q-1 -4 -2.5 -11t-3 -16t-1 -22t2.5 -27q0 -23 35 -61t47 -64q18 -43 0.5 -87t-60.5 -64q-24 -9 -47 -9q-33 0 -62 18t-42 50q-6 15 -21.5 47t-23 50 t-14.5 50t-7 66zM348 1114q7 55 10 63q1 1 9 21q7 9 18 25.5t16.5 23.5t15.5 15.5t23 11.5t31 2q50 -3 78 -36q23 -28 0 -42l-1 -4q-2 -4 -3.5 -11t-3 -16t-1 -22t2.5 -27q0 -23 35 -61t47 -64q18 -43 0.5 -87t-60.5 -64q-21 -8 -47 -8q-33 0 -62 18t-42 49q-6 15 -21.5 47 t-23 50t-14.5 50t-7 66z" />
<glyph unicode="&#x201d;" horiz-adv-x="655" d="M44.5 888q-1.5 15 21.5 56l18 47q12 37 9 60.5t-12 59t-9 50.5v6q-2 47 30.5 82.5t79.5 38.5q47 2 82.5 -30.5t36.5 -79.5v-17q0 -110 -63 -248q-26 -63 -97 -63q-44 0 -55 4q-40 19 -41.5 34zM325 885.5q-2 14.5 21 56.5l19 47q12 37 9 60.5t-12.5 59t-9.5 50.5v6 q-1 47 31.5 82.5t79.5 38.5q47 2 82.5 -30.5t36.5 -79.5v-17q0 -108 -64 -248q-26 -63 -96 -63q-44 0 -55 4q-40 19 -42 33.5z" />
<glyph unicode="&#x201e;" horiz-adv-x="655" d="M48.5 -136q-1.5 15 21.5 56l18 47q12 37 9 60.5t-12 59t-9 50.5v6q-2 47 30.5 82.5t79.5 38.5q47 2 82.5 -30.5t36.5 -79.5v-17q0 -110 -63 -248q-26 -63 -97 -63q-44 0 -55 4q-40 19 -41.5 34zM329 -138.5q-2 14.5 21 56.5l19 47q12 37 9 60.5t-12.5 59t-9.5 50.5v6 q-1 47 31.5 82.5t79.5 38.5q47 2 82.5 -30.5t36.5 -79.5v-17q0 -108 -64 -248q-26 -63 -96 -63q-44 0 -55 4q-40 19 -42 33.5z" />
<glyph unicode="&#x2022;" horiz-adv-x="512" d="M82 666v12q3 73 57.5 122t128.5 46q62 -3 108.5 -45t55.5 -103q30 -55 17.5 -117.5t-62.5 -101.5q-48 -39 -111 -39q-85 0 -139 66q-25 28 -40.5 73t-14.5 87z" />
<glyph unicode="&#x2026;" horiz-adv-x="1071" d="M76 70q-18 50 6 94q5 31 26.5 56.5t53.5 35.5q46 13 87.5 -9.5t55.5 -68.5q8 -24 8 -47q0 -43 -22 -76q-25 -39 -68 -53q-16 -8 -39 -8q-36 0 -66 20.5t-42 55.5zM420 68q-18 50 6 94q5 31 26.5 56.5t53.5 35.5q46 13 87.5 -9.5t55.5 -68.5q8 -24 8 -47q0 -43 -22 -76 q-25 -39 -68 -53q-16 -8 -39 -8q-36 0 -66 20.5t-42 55.5zM762 70q-18 50 6 94q5 31 26.5 56.5t53.5 35.5q46 13 87.5 -9.5t55.5 -68.5q8 -24 8 -47q0 -43 -22 -76q-25 -39 -68 -53q-16 -8 -39 -8q-36 0 -66 20.5t-42 55.5z" />
<glyph unicode="&#x202f;" horiz-adv-x="387" />
<glyph unicode="&#x2039;" horiz-adv-x="624" d="M61 455q2 54 35 92q18 23 43 41q38 30 94 59q35 19 95.5 69.5t77.5 57.5q18 6 26 10q2 0 6 1.5t11 2.5q46 9 86 -17t49 -73q9 -43 -13 -81t-63 -50h-2q-2 -2 -14 -6q-3 -2 -20.5 -18t-27.5 -21v-4q-11 -5 -33.5 -27.5t-35.5 -27.5q12 -5 34 -27t33 -28q64 -37 115 -109 q26 -38 16.5 -85t-49.5 -73q-30 -18 -63 -18q-60 0 -94 49q-3 0 -7 4l-20 19q-21 19 -31 24q-17 8 -57.5 37t-61.5 39q-60 31 -84 57q-33 33 -43 78q-2 14 -2 25z" />
<glyph unicode="&#x203a;" horiz-adv-x="632" d="M49 250.5q14 45.5 57 68.5q11 5 189 152q-2 2 -4 2q-24 21 -83 83.5t-73 76.5q-94 70 -55 153q20 43 64 59.5t87 -3.5q8 -4 18 -11t23.5 -19t21.5 -19t26.5 -25t23.5 -23q73 -56 117 -96q16 -10 26 -18t14 -11.5t14.5 -15t16.5 -18.5q29 -34 37 -80l2 -17l-2 -14 q-5 -30 -24 -67q-10 -17 -33 -43q-38 -41 -76 -74q-8 -6 -49.5 -41t-67 -55.5t-58 -44.5t-48.5 -33q-24 -15 -53 -15q-66 0 -103 62q-22 41 -8 86.5z" />
<glyph unicode="&#x205f;" horiz-adv-x="483" />
<glyph unicode="&#x20ac;" horiz-adv-x="991" d="M35 582q-5 49 19 87.5t67 47.5q22 5 59 11t51 9q10 43 37 88q89 128 129 173q72 81 160 126q29 15 64 29q63 23 102 25q4 -1 15 -2t16 -2q1 -1 7 -1t16.5 -2.5t23.5 -7.5q36 -16 53 -49q15 -27 20 -67q3 -47 -26.5 -83.5t-73.5 -39.5q-34 -3 -65 18q-154 -54 -226 -160 q3 1 49 7t50 6q50 6 82 -20t43 -75q9 -44 -16.5 -74.5t-72.5 -41.5q-38 -8 -113.5 -20t-105.5 -17q-14 -50 -18 -76q130 26 186 31q45 3 76 -23t35 -73q3 -49 -18 -78.5t-64 -32.5q-56 -6 -180 -33q29 -37 80 -59q84 -36 145 -33q47 -3 74 14q29 16 43 43q20 43 62.5 57 t82.5 -8q40 -23 53.5 -68.5t-8.5 -86.5q-45 -95 -137 -144q-72 -38 -170 -38q-109 0 -229 53q-131 56 -195 172q-3 5 -8 15.5t-8 15.5q-2 -1 -27 -11q-18 -6 -35 -6q-35 0 -63.5 21t-38.5 57q-15 44 4.5 87t60.5 58q50 15 62 19q0 11 1.5 27.5t3.5 35t3 25.5q-5 -1 -14 -2.5 t-31.5 -1t-40.5 6.5t-33.5 24t-17.5 47z" />
<glyph unicode="&#x25fc;" horiz-adv-x="1085" d="M0 0v1085h1085v-1085h-1085z" />
</font>
</defs>
</svg>
